SplineFontDB: 3.0
FontName: Asap-Symbol
FullName: Asap Symbol
FamilyName: Asap Symbol
Weight: Medium
Copyright: Copyright (c) 2014, Omnibus-Type (www.omnibus-type.com omnibus.type@gmail.com) with Reserved Font Name 'Asap'
Version: 001.000
ItalicAngle: 0
UnderlinePosition: -102.4
UnderlineWidth: 102.4
Ascent: 1638
Descent: 410
InvalidEm: 0
sfntRevision: 0x00010000
LayerCount: 2
Layer: 0 1 "Back" 1
Layer: 1 1 "Fore" 0
XUID: [1021 191 1600663927 14903418]
FSType: 8
OS2Version: 3
OS2_WeightWidthSlopeOnly: 0
OS2_UseTypoMetrics: 1
CreationTime: 1416602058
ModificationTime: 1416632278
PfmFamily: 33
TTFWeight: 500
TTFWidth: 5
LineGap: 0
VLineGap: 0
Panose: 2 15 6 4 3 2 2 6 2 3
OS2TypoAscent: 1925
OS2TypoAOffset: 0
OS2TypoDescent: -434
OS2TypoDOffset: 0
OS2TypoLinegap: 98
OS2WinAscent: 2023
OS2WinAOffset: 0
OS2WinDescent: 434
OS2WinDOffset: 0
HheadAscent: 2023
HheadAOffset: 0
HheadDescent: -434
HheadDOffset: 0
OS2SubXSize: 1331
OS2SubYSize: 1229
OS2SubXOff: 0
OS2SubYOff: 154
OS2SupXSize: 1331
OS2SupYSize: 1229
OS2SupXOff: 0
OS2SupYOff: 717
OS2StrikeYSize: 102
OS2StrikeYPos: 641
OS2CapHeight: 0
OS2XHeight: 0
OS2Vendor: 'OMNI'
OS2CodePages: 20000001.00000000
OS2UnicodeRanges: 00000003.00000000.00000000.00000000
Lookup: 1 0 0 "'aalt' Access All Alternates lookup 0" { "'aalt' Access All Alternates lookup 0 subtable"  } ['aalt' ('DFLT' <'dflt' > 'grek' <'dflt' > 'latn' <'dflt' > ) ]
Lookup: 3 0 0 "'aalt' Access All Alternates lookup 1" { "'aalt' Access All Alternates lookup 1 subtable"  } ['aalt' ('DFLT' <'dflt' > 'grek' <'dflt' > 'latn' <'dflt' > ) ]
Lookup: 1 0 0 "'sups' Superscript lookup 2" { "'sups' Superscript lookup 2 subtable" ("superior") } ['sups' ('DFLT' <'dflt' > 'grek' <'dflt' > 'latn' <'dflt' > ) ]
Lookup: 4 0 0 "'frac' Diagonal Fractions lookup 3" { "'frac' Diagonal Fractions lookup 3 subtable"  } ['frac' ('DFLT' <'dflt' > 'grek' <'dflt' > 'latn' <'dflt' > ) ]

StartChar: .notdef
Encoding: 65536 -1 0
GlifName: _notdef
Width: 1052
Flags: MW
HStem: 0 102<178 874 178 1038> 1331 102<176 872 176 176>
VStem: 14 100<195 195 195 1239> 934 104<195 1239 1239 1239>
LayerCount: 2
Back
Fore
SplineSet
14 1434 m 1,0,-1
 1038 1434 l 1,1,-1
 1038 0 l 1,2,-1
 14 0 l 1,3,-1
 14 1434 l 1,0,-1
872 1331 m 1,4,-1
 176 1331 l 1,5,-1
 526 809 l 1,6,-1
 872 1331 l 1,4,-1
115 195 m 1,7,-1
 465 717 l 1,8,-1
 115 1239 l 1,9,-1
 115 195 l 1,7,-1
934 195 m 1,10,-1
 934 1239 l 1,11,-1
 588 717 l 1,12,-1
 934 195 l 1,10,-1
874 102 m 1,13,-1
 524 625 l 1,14,-1
 178 102 l 1,15,-1
 874 102 l 1,13,-1
EndSplineSet
EndChar

StartChar: A
Encoding: 65 65 2
GlifName: A_
Width: 1255
Flags: MW
HStem: 332 205<420 829 420 899 348 829> 1165 272<625 625 625 631>
VStem: 14 1227<23 40>
LayerCount: 2
Back
Fore
SplineSet
668 1438 m 2,0,1
 753 1438 753 1438 766 1401 c 2,2,-1
 1235 66 l 2,3,4
 1241 48 1241 48 1241 35 c 0,5,6
 1241 -4 1241 -4 1147 -4 c 2,7,-1
 1100 -4 l 2,8,9
 1014 -4 1014 -4 1004 33 c 1,10,-1
 899 332 l 1,11,-1
 348 332 l 1,12,-1
 248 33 l 1,13,14
 234 -4 234 -4 160 -4 c 2,15,-1
 119 -4 l 2,16,17
 14 -4 14 -4 14 35 c 0,18,19
 14 47 14 47 20 68 c 1,20,-1
 492 1401 l 2,21,22
 505 1438 505 1438 588 1438 c 2,23,-1
 668 1438 l 2,0,1
625 1165 m 1,24,25
 594 1040 l 1,26,-1
 420 537 l 1,27,-1
 829 537 l 1,28,-1
 657 1040 l 1,29,30
 642 1088 642 1088 631 1165 c 1,31,-1
 625 1165 l 1,24,25
EndSplineSet
Substitution2: "Single Substitution lookup 13 subtable" ordfeminine
Substitution2: "'ss06' Style Set 6 lookup 12 subtable" one.ss01
Substitution2: "'ss05' Style Set 5 lookup 11 subtable" A.ss05
Substitution2: "'ss04' Style Set 4 lookup 10 subtable" A.ss04
Substitution2: "'ss03' Style Set 3 lookup 9 subtable" A.ss03
Substitution2: "'ss02' Style Set 2 lookup 8 subtable" A.ss02
Substitution2: "'ss01' Style Set 1 lookup 7 subtable" A.ss01
Substitution2: "'salt' Stylistic Alternatives lookup 6 subtable" A.ss01
AlternateSubs2: "'aalt' Access All Alternates lookup 1 subtable" ordfeminine A.ss01 A.ss02 A.ss03 A.ss04 A.ss05
Position2: "'cpsp' Capital Spacing lookup 1 subtable" dx=10 dy=0 dh=20 dv=0
EndChar

StartChar: Aacute
Encoding: 193 193 3
GlifName: A_acute
Width: 1255
Flags: MW
HStem: 332 205
VStem: 14 1227
LayerCount: 2
Back
Fore
SplineSet
793 1864 m 0,0,1
 851 1864 851 1864 876 1858 c 128,-1,2
 901 1852 901 1852 901 1837 c 128,-1,3
 901 1822 901 1822 885 1802 c 0,4,5
 865.470588235 1777.58823529 865.470588235 1777.58823529 700 1595 c 0,6,7
 660 1552 660 1552 590 1552 c 128,-1,8
 520 1552 520 1552 520 1577 c 0,9,10
 520 1594.9 520 1594.9 576.5 1690.95 c 128,-1,11
 633 1787 633 1787 645 1808 c 0,12,13
 676 1864 676 1864 793 1864 c 0,0,1
668 1438 m 2,14,15
 753 1438 753 1438 766 1401 c 2,16,-1
 1235 66 l 2,17,18
 1241 48 1241 48 1241 35 c 0,19,20
 1241 -4 1241 -4 1147 -4 c 2,21,-1
 1100 -4 l 2,22,23
 1014 -4 1014 -4 1004 33 c 1,24,-1
 899 332 l 1,25,-1
 348 332 l 1,26,-1
 248 33 l 1,27,28
 234 -4 234 -4 160 -4 c 2,29,-1
 119 -4 l 2,30,31
 14 -4 14 -4 14 35 c 0,32,33
 14 47 14 47 20 68 c 1,34,-1
 492 1401 l 2,35,36
 505 1438 505 1438 588 1438 c 2,37,-1
 668 1438 l 2,14,15
625 1165 m 1,38,-1
 594 1040 l 1,39,-1
 420 537 l 1,40,-1
 829 537 l 1,41,-1
 657 1040 l 1,42,43
 642 1088 642 1088 631 1165 c 1,44,-1
 625 1165 l 1,38,-1
EndSplineSet
Position2: "'cpsp' Capital Spacing lookup 1 subtable" dx=10 dy=0 dh=20 dv=0
EndChar

StartChar: Acircumflex
Encoding: 194 194 4
GlifName: A_circumflex
Width: 1255
Flags: MW
HStem: 332 205<420 829 420 899 348 829> 1538 295<396 647 412 647 608 823 608 846>
VStem: 14 1227<23 40>
LayerCount: 2
Back
Fore
SplineSet
647 1833 m 2,0,1
 728 1833 728 1833 756 1790 c 2,2,-1
 879 1597 l 2,3,4
 891 1579 891 1579 891 1565 c 0,5,6
 891 1538 891 1538 846 1538 c 2,7,-1
 823 1538 l 2,8,9
 757 1538 757 1538 725 1575 c 1,10,-1
 627 1696 l 1,11,-1
 532 1575 l 1,12,13
 500 1538 500 1538 432 1538 c 2,14,-1
 412 1538 l 2,15,16
 367 1538 367 1538 367 1565 c 0,17,18
 367 1579 367 1579 379 1597 c 2,19,-1
 502 1790 l 1,20,21
 527 1833 527 1833 608 1833 c 2,22,-1
 647 1833 l 2,0,1
668 1438 m 2,23,24
 753 1438 753 1438 766 1401 c 2,25,-1
 1235 66 l 2,26,27
 1241 48 1241 48 1241 35 c 0,28,29
 1241 -4 1241 -4 1147 -4 c 2,30,-1
 1100 -4 l 2,31,32
 1014 -4 1014 -4 1004 33 c 1,33,-1
 899 332 l 1,34,-1
 348 332 l 1,35,-1
 248 33 l 1,36,37
 234 -4 234 -4 160 -4 c 2,38,-1
 119 -4 l 2,39,40
 14 -4 14 -4 14 35 c 0,41,42
 14 47 14 47 20 68 c 1,43,-1
 492 1401 l 2,44,45
 505 1438 505 1438 588 1438 c 2,46,-1
 668 1438 l 2,23,24
625 1165 m 1,47,48
 594 1040 l 1,49,-1
 420 537 l 1,50,-1
 829 537 l 1,51,-1
 657 1040 l 1,52,53
 642 1088 642 1088 631 1165 c 1,54,-1
 625 1165 l 1,47,48
EndSplineSet
Position2: "'cpsp' Capital Spacing lookup 1 subtable" dx=10 dy=0 dh=20 dv=0
EndChar

StartChar: Adieresis
Encoding: 196 196 5
GlifName: A_dieresis
Width: 1255
Flags: MW
HStem: 332 205<420 829 420 899 348 829> 1579 221<430 500 758 827>
VStem: 362 205<1634 1747 1617 1763> 690 205<1634 1747 1617 1763>
LayerCount: 2
Back
Fore
SplineSet
362 1747 m 2,0,1
 362 1800 362 1800 464.5 1800 c 128,-1,2
 567 1800 567 1800 567 1747 c 2,3,-1
 567 1634 l 2,4,5
 567 1579 567 1579 464.5 1579 c 128,-1,6
 362 1579 362 1579 362 1634 c 2,7,-1
 362 1747 l 2,0,1
690 1747 m 2,8,9
 690 1800 690 1800 792.5 1800 c 128,-1,10
 895 1800 895 1800 895 1747 c 2,11,-1
 895 1634 l 2,12,13
 895 1579 895 1579 792.5 1579 c 128,-1,14
 690 1579 690 1579 690 1634 c 2,15,-1
 690 1747 l 2,8,9
668 1438 m 2,16,17
 753 1438 753 1438 766 1401 c 2,18,-1
 1235 66 l 2,19,20
 1241 48 1241 48 1241 35 c 0,21,22
 1241 -4 1241 -4 1147 -4 c 2,23,-1
 1100 -4 l 2,24,25
 1014 -4 1014 -4 1004 33 c 1,26,-1
 899 332 l 1,27,-1
 348 332 l 1,28,-1
 248 33 l 1,29,30
 234 -4 234 -4 160 -4 c 2,31,-1
 119 -4 l 2,32,33
 14 -4 14 -4 14 35 c 0,34,35
 14 47 14 47 20 68 c 1,36,-1
 492 1401 l 2,37,38
 505 1438 505 1438 588 1438 c 2,39,-1
 668 1438 l 2,16,17
625 1165 m 1,40,-1
 594 1040 l 1,41,-1
 420 537 l 1,42,-1
 829 537 l 1,43,-1
 657 1040 l 1,44,45
 642 1088 642 1088 631 1165 c 1,46,-1
 625 1165 l 1,40,-1
EndSplineSet
Position2: "'cpsp' Capital Spacing lookup 1 subtable" dx=10 dy=0 dh=20 dv=0
EndChar

StartChar: Agrave
Encoding: 192 192 6
GlifName: A_grave
Width: 1255
Flags: MW
HStem: 332 205
VStem: 14 1227
LayerCount: 2
Back
Fore
SplineSet
373 1835 m 0,0,1
 373 1864 373 1864 485.5 1864 c 128,-1,2
 598 1864 598 1864 629 1808 c 0,3,4
 641 1787 641 1787 661 1753 c 0,5,6
 749.319327731 1602.85714286 749.319327731 1602.85714286 751.659663866 1590.92857143 c 128,-1,7
 754 1579 754 1579 754 1577 c 0,8,9
 754 1552 754 1552 683.5 1552 c 128,-1,10
 613 1552 613 1552 568 1601.5 c 128,-1,11
 523 1651 523 1651 462 1718.5 c 128,-1,12
 401 1786 401 1786 387 1804 c 128,-1,13
 373 1822 373 1822 373 1835 c 0,0,1
668 1438 m 2,14,15
 753 1438 753 1438 766 1401 c 2,16,-1
 1235 66 l 2,17,18
 1241 48 1241 48 1241 35 c 0,19,20
 1241 -4 1241 -4 1147 -4 c 2,21,-1
 1100 -4 l 2,22,23
 1014 -4 1014 -4 1004 33 c 1,24,-1
 899 332 l 1,25,-1
 348 332 l 1,26,-1
 248 33 l 1,27,28
 234 -4 234 -4 160 -4 c 2,29,-1
 119 -4 l 2,30,31
 14 -4 14 -4 14 35 c 0,32,33
 14 47 14 47 20 68 c 1,34,-1
 492 1401 l 2,35,36
 505 1438 505 1438 588 1438 c 2,37,-1
 668 1438 l 2,14,15
625 1165 m 1,38,-1
 594 1040 l 1,39,-1
 420 537 l 1,40,-1
 829 537 l 1,41,-1
 657 1040 l 1,42,43
 642 1088 642 1088 631 1165 c 1,44,-1
 625 1165 l 1,38,-1
EndSplineSet
Position2: "'cpsp' Capital Spacing lookup 1 subtable" dx=10 dy=0 dh=20 dv=0
EndChar

StartChar: Aring
Encoding: 197 197 7
GlifName: A_ring
Width: 1255
Flags: MW
HStem: 332 205<420 829 420 899 348 829> 1505 96<602 652 602 678> 1780 98<602 652>
VStem: 440 98<1664 1715 1664 1742> 719 94<1664 1715>
LayerCount: 2
Back
Fore
SplineSet
494.5 1823 m 128,-1,1
 549 1878 549 1878 626.5 1878 c 128,-1,2
 704 1878 704 1878 758.5 1823 c 128,-1,3
 813 1768 813 1768 813 1691 c 128,-1,4
 813 1614 813 1614 758.5 1559.5 c 128,-1,5
 704 1505 704 1505 626.5 1505 c 128,-1,6
 549 1505 549 1505 494.5 1559 c 128,-1,7
 440 1613 440 1613 440 1690.5 c 128,-1,0
 440 1768 440 1768 494.5 1823 c 128,-1,1
692 1754 m 128,-1,9
 665 1780 665 1780 627.5 1780 c 128,-1,10
 590 1780 590 1780 564.5 1754 c 128,-1,11
 539 1728 539 1728 539 1690 c 128,-1,12
 539 1652 539 1652 564.5 1627 c 128,-1,13
 590 1602 590 1602 628 1602 c 128,-1,14
 666 1602 666 1602 692.5 1627 c 128,-1,15
 719 1652 719 1652 719 1690 c 128,-1,8
 719 1728 719 1728 692 1754 c 128,-1,9
668 1438 m 2,16,17
 753 1438 753 1438 766 1401 c 2,18,-1
 1235 66 l 2,19,20
 1241 48 1241 48 1241 35 c 0,21,22
 1241 -4 1241 -4 1147 -4 c 2,23,-1
 1100 -4 l 2,24,25
 1014 -4 1014 -4 1004 33 c 1,26,-1
 899 332 l 1,27,-1
 348 332 l 1,28,-1
 248 33 l 1,29,30
 234 -4 234 -4 160 -4 c 2,31,-1
 119 -4 l 2,32,33
 14 -4 14 -4 14 35 c 0,34,35
 14 47 14 47 20 68 c 1,36,-1
 492 1401 l 2,37,38
 505 1438 505 1438 588 1438 c 2,39,-1
 668 1438 l 2,16,17
625 1165 m 1,40,-1
 594 1040 l 1,41,-1
 420 537 l 1,42,-1
 829 537 l 1,43,-1
 657 1040 l 1,44,45
 642 1088 642 1088 631 1165 c 1,46,-1
 625 1165 l 1,40,-1
EndSplineSet
Position2: "'cpsp' Capital Spacing lookup 1 subtable" dx=10 dy=0 dh=20 dv=0
EndChar

StartChar: Atilde
Encoding: 195 195 8
GlifName: A_tilde
Width: 1255
Flags: MW
HStem: 332 205<420 829 420 899 348 829> 1563 129<756 788 756 815> 1655 129<465 489>
VStem: 14 1227
LayerCount: 2
Back
Fore
SplineSet
731 1702 m 128,-1,1
 758 1692 758 1692 776 1692 c 128,-1,2
 794 1692 794 1692 808.5 1706.5 c 128,-1,3
 823 1721 823 1721 844 1754 c 128,-1,4
 865 1787 865 1787 879 1787 c 0,5,6
 886 1787 886 1787 899 1782 c 2,7,-1
 944 1763 l 2,8,9
 963 1754 963 1754 963 1742.5 c 128,-1,10
 963 1731 963 1731 956 1712 c 0,11,12
 903 1563 903 1563 778 1563 c 0,13,14
 713 1563 713 1563 607.5 1609 c 128,-1,15
 502 1655 502 1655 480.5 1655 c 128,-1,16
 459 1655 459 1655 442.5 1639.5 c 128,-1,17
 426 1624 426 1624 406.5 1591.5 c 128,-1,18
 387 1559 387 1559 373 1559 c 0,19,20
 368 1559 368 1559 352 1565 c 2,21,-1
 307 1583 l 1,22,23
 288 1592 288 1592 288 1603.5 c 128,-1,24
 288 1615 288 1615 295 1634 c 0,25,26
 349 1784 349 1784 473 1784 c 0,27,28
 523 1784 523 1784 571.5 1766 c 128,-1,29
 620 1748 620 1748 662 1730 c 128,-1,0
 704 1712 704 1712 731 1702 c 128,-1,1
668 1438 m 2,30,31
 753 1438 753 1438 766 1401 c 2,32,-1
 1235 66 l 2,33,34
 1241 48 1241 48 1241 35 c 0,35,36
 1241 -4 1241 -4 1147 -4 c 2,37,-1
 1100 -4 l 2,38,39
 1014 -4 1014 -4 1004 33 c 1,40,-1
 899 332 l 1,41,-1
 348 332 l 1,42,-1
 248 33 l 1,43,44
 234 -4 234 -4 160 -4 c 2,45,-1
 119 -4 l 2,46,47
 14 -4 14 -4 14 35 c 0,48,49
 14 47 14 47 20 68 c 1,50,-1
 492 1401 l 2,51,52
 505 1438 505 1438 588 1438 c 2,53,-1
 668 1438 l 2,30,31
625 1165 m 1,54,-1
 594 1040 l 1,55,-1
 420 537 l 1,56,-1
 829 537 l 1,57,-1
 657 1040 l 1,58,59
 642 1088 642 1088 631 1165 c 1,60,-1
 625 1165 l 1,54,-1
EndSplineSet
Position2: "'cpsp' Capital Spacing lookup 1 subtable" dx=10 dy=0 dh=20 dv=0
EndChar

StartChar: AE
Encoding: 198 198 9
GlifName: A_E_
Width: 1873
Flags: MW
HStem: 0 205<1025 1673 1184 1673 1184 1673> 332 205<463 877 463 918 360 877> 631 205<1096 1614 1096 1096> 1229 205<971 1671 971 971>
VStem: -12 1737<23 80>
LayerCount: 2
Back
Fore
SplineSet
1614 836 m 2,0,1
 1663 836 1663 836 1663 756 c 2,2,-1
 1663 711 l 2,3,4
 1663 631 1663 631 1614 631 c 2,5,-1
 1096 631 l 1,6,-1
 1184 205 l 1,7,-1
 1673 205 l 2,8,9
 1724 205 1724 205 1724 125 c 2,10,-1
 1724 80 l 2,11,12
 1724 0 1724 0 1673 0 c 2,13,-1
 1047 0 l 2,14,15
 985 0 985 0 973 59 c 2,16,-1
 918 332 l 1,17,-1
 360 332 l 1,18,-1
 215 33 l 1,19,20
 194 -4 194 -4 127 -4 c 2,21,-1
 88 -4 l 2,22,23
 -12 -4 -12 -4 -12 35 c 0,24,25
 -12 54 -12 54 -4 70 c 2,26,-1
 653 1378 l 2,27,28
 682 1434 682 1434 743 1434 c 2,29,-1
 1671 1434 l 2,30,31
 1722 1434 1722 1434 1722 1354 c 2,32,-1
 1722 1309 l 2,33,34
 1722 1229 1722 1229 1671 1229 c 2,35,-1
 971 1229 l 1,36,-1
 1053 836 l 1,37,-1
 1614 836 l 2,0,1
762 1184 m 1,38,-1
 713 1044 l 1,39,-1
 463 537 l 1,40,-1
 877 537 l 1,41,-1
 772 1042 l 1,42,-1
 768 1184 l 1,43,-1
 762 1184 l 1,38,-1
EndSplineSet
Position2: "'cpsp' Capital Spacing lookup 1 subtable" dx=10 dy=0 dh=20 dv=0
EndChar

StartChar: B
Encoding: 66 66 10
GlifName: B_
Width: 1214
Flags: MW
HStem: 0 205<219 670 414 633> 631 205<414 608 414 608 608 635> 1229 205<414 414 414 606>
VStem: 174 240<205 631 836 1229> 852 246<1002 1103> 911 246<357 492>
LayerCount: 2
Back
Fore
SplineSet
1157 414 m 0,0,1
 1157 0 1157 0 633 0 c 2,2,-1
 244 0 l 2,3,4
 207 0 207 0 190.5 16.5 c 128,-1,5
 174 33 174 33 174 70 c 2,6,-1
 174 1364 l 2,7,8
 174 1401 174 1401 190.5 1417.5 c 128,-1,9
 207 1434 207 1434 244 1434 c 2,10,-1
 629 1434 l 2,11,12
 863 1434 863 1434 980.5 1336.5 c 128,-1,13
 1098 1239 1098 1239 1098 1071 c 0,14,15
 1098 970 1098 970 1032 880.5 c 128,-1,16
 966 791 966 791 874 760 c 1,17,-1
 874 752 l 1,18,19
 934.220588235 739.955882353 934.220588235 739.955882353 989.610294118 700.977941176 c 128,-1,20
 1045 662 1045 662 1078.5 625 c 0,21,22
 1157 538.298507463 1157 538.298507463 1157 414 c 0,0,1
414 1229 m 1,23,-1
 414 836 l 1,24,-1
 608 836 l 2,25,26
 716 836 716 836 784 894 c 128,-1,27
 852 952 852 952 852 1043.5 c 0,28,29
 852 1229 852 1229 606 1229 c 2,30,-1
 414 1229 l 1,23,-1
414 631 m 1,31,-1
 414 205 l 1,32,-1
 670 205 l 2,33,34
 786 205 786 205 848.5 263.5 c 128,-1,35
 911 322 911 322 911 423.5 c 128,-1,36
 911 525 911 525 840.5 578 c 128,-1,37
 770 631 770 631 635 631 c 2,38,-1
 414 631 l 1,31,-1
EndSplineSet
Substitution2: "'ss06' Style Set 6 lookup 12 subtable" two.ss01
Substitution2: "'ss05' Style Set 5 lookup 11 subtable" B.ss05
Substitution2: "'ss04' Style Set 4 lookup 10 subtable" B.ss04
Substitution2: "'ss03' Style Set 3 lookup 9 subtable" B.ss03
Substitution2: "'ss02' Style Set 2 lookup 8 subtable" B.ss02
Substitution2: "'ss01' Style Set 1 lookup 7 subtable" B.ss01
Substitution2: "'salt' Stylistic Alternatives lookup 6 subtable" B.ss01
AlternateSubs2: "'aalt' Access All Alternates lookup 1 subtable" B.ss01 B.ss02 B.ss03 B.ss04 B.ss05
Position2: "'cpsp' Capital Spacing lookup 1 subtable" dx=10 dy=0 dh=20 dv=0
EndChar

StartChar: C
Encoding: 67 67 11
GlifName: C_
Width: 1267
Flags: MW
HStem: -14 205<630 847 630 876> 1241 207<634 851>
VStem: 106 246
LayerCount: 2
Back
Fore
SplineSet
778 1448 m 0,0,1
 990.412698413 1448 990.412698413 1448 1125 1378.5 c 0,2,3
 1186 1347 1186 1347 1186 1312.5 c 128,-1,4
 1186 1278 1186 1278 1151 1220.5 c 128,-1,5
 1116 1163 1116 1163 1090 1163 c 0,6,7
 1082 1163 1082 1163 1056 1176 c 0,8,9
 920 1241 920 1241 778 1241 c 0,10,11
 561 1241 561 1241 456.5 1113.5 c 128,-1,12
 352 986 352 986 352 718 c 128,-1,13
 352 450 352 450 455 320 c 128,-1,14
 558 190 558 190 772 190 c 0,15,16
 840 190 840 190 907.5 206 c 0,17,18
 992.112676056 226.056338028 992.112676056 226.056338028 1051.05633803 255.528169014 c 128,-1,19
 1110 285 1110 285 1118 285 c 0,20,21
 1147 285 1147 285 1178.5 228.5 c 128,-1,22
 1210 172 1210 172 1210 137 c 128,-1,23
 1210 102 1210 102 1144 65.5 c 128,-1,24
 1078 29 1078 29 976.5 7.5 c 128,-1,25
 875 -14 875 -14 772 -14 c 0,26,27
 432 -14 432 -14 269 164.5 c 128,-1,28
 106 343 106 343 106 719 c 0,29,30
 106 1448 106 1448 778 1448 c 0,0,1
EndSplineSet
Substitution2: "'ss06' Style Set 6 lookup 12 subtable" three.ss01
Substitution2: "'ss05' Style Set 5 lookup 11 subtable" C.ss05
Substitution2: "'ss04' Style Set 4 lookup 10 subtable" C.ss04
Substitution2: "'ss03' Style Set 3 lookup 9 subtable" C.ss03
Substitution2: "'ss02' Style Set 2 lookup 8 subtable" C.ss02
Substitution2: "'ss01' Style Set 1 lookup 7 subtable" C.ss01
Substitution2: "'salt' Stylistic Alternatives lookup 6 subtable" C.ss01
AlternateSubs2: "'aalt' Access All Alternates lookup 1 subtable" C.ss01 C.ss02 C.ss03 C.ss04 C.ss05
Position2: "'cpsp' Capital Spacing lookup 1 subtable" dx=10 dy=0 dh=20 dv=0
EndChar

StartChar: Ccedilla
Encoding: 199 199 12
GlifName: C_cedilla
Width: 1267
Flags: MW
HStem: -432 123 -14 204 1241 207<634 851>
VStem: 106 246 780 174
LayerCount: 2
Back
Fore
SplineSet
1210 143 m 0,0,1
 1210 85 1210 85 1083.5 38 c 128,-1,2
 957 -9 957 -9 803 -14 c 1,3,-1
 783 -88 l 1,4,5
 837.76056338 -90.0281690141 837.76056338 -90.0281690141 878.38028169 -112.514084507 c 0,6,7
 954 -154.375 954 -154.375 954 -240 c 0,8,9
 954 -432 954 -432 715 -432 c 0,10,11
 628 -432 628 -432 546.5 -405.5 c 128,-1,12
 465 -379 465 -379 465 -338 c 0,13,14
 465 -306 465 -306 480.5 -287 c 128,-1,15
 496 -268 496 -268 514 -268 c 128,-1,16
 532 -268 532 -268 587 -288.5 c 128,-1,17
 642 -309 642 -309 692 -309 c 0,18,19
 780 -309 780 -309 780 -254 c 0,20,21
 780 -219.52 780 -219.52 743.5 -202 c 0,22,23
 731 -196 731 -196 711 -189 c 128,-1,24
 691 -182 691 -182 681.5 -177.5 c 0,25,26
 655 -164.947368421 655 -164.947368421 655 -148.473684211 c 128,-1,27
 655 -132 655 -132 694 -12 c 1,28,29
 395 8 395 8 251 186.5 c 128,-1,30
 107 365 107 365 107 719 c 0,31,32
 107 1448 107 1448 778 1448 c 0,33,34
 990.412698413 1448 990.412698413 1448 1125 1378.5 c 0,35,36
 1186 1347 1186 1347 1186 1312.5 c 128,-1,37
 1186 1278 1186 1278 1151 1220.5 c 128,-1,38
 1116 1163 1116 1163 1090 1163 c 0,39,40
 1082 1163 1082 1163 1056 1176 c 0,41,42
 920 1241 920 1241 778 1241 c 0,43,44
 561 1241 561 1241 456.5 1113.5 c 128,-1,45
 352 986 352 986 352 718 c 128,-1,46
 352 450 352 450 455 320 c 128,-1,47
 558 190 558 190 772 190 c 0,48,49
 840 190 840 190 907.5 206 c 0,50,51
 992.112676056 226.056338028 992.112676056 226.056338028 1051.05633803 255.528169014 c 128,-1,52
 1110 285 1110 285 1118 285 c 0,53,54
 1147 285 1147 285 1178.5 228.5 c 128,-1,55
 1210 172 1210 172 1210 143 c 0,0,1
EndSplineSet
Position2: "'cpsp' Capital Spacing lookup 1 subtable" dx=10 dy=0 dh=20 dv=0
EndChar

StartChar: D
Encoding: 68 68 13
GlifName: D_
Width: 1423
Flags: MW
HStem: 0 205<219 670 414 670 670 678> 1229 205<414 414 414 670>
VStem: 174 240<205 1229 205 1364 205 1389> 1073 248<538 895>
LayerCount: 2
Back
Fore
SplineSet
678 1434 m 2,0,1
 972.50877193 1434 972.50877193 1434 1143 1264.5 c 0,2,3
 1321 1087.53488372 1321 1087.53488372 1321 717 c 0,4,5
 1321 179.175965665 1321 179.175965665 940.5 42 c 0,6,7
 824 0 824 0 678 0 c 2,8,-1
 244 0 l 2,9,10
 207 0 207 0 190.5 16.5 c 128,-1,11
 174 33 174 33 174 70 c 2,12,-1
 174 1364 l 2,13,14
 174 1401 174 1401 190.5 1417.5 c 128,-1,15
 207 1434 207 1434 244 1434 c 2,16,-1
 678 1434 l 2,0,1
414 1229 m 1,17,-1
 414 205 l 1,18,-1
 670 205 l 2,19,20
 858 205 858 205 965.5 331.5 c 128,-1,21
 1073 458 1073 458 1073 716.5 c 128,-1,22
 1073 975 1073 975 965.5 1102 c 128,-1,23
 858 1229 858 1229 670 1229 c 2,24,-1
 414 1229 l 1,17,-1
EndSplineSet
Substitution2: "'ss06' Style Set 6 lookup 12 subtable" four.ss01
Substitution2: "'ss05' Style Set 5 lookup 11 subtable" D.ss05
Substitution2: "'ss04' Style Set 4 lookup 10 subtable" D.ss04
Substitution2: "'ss03' Style Set 3 lookup 9 subtable" D.ss03
Substitution2: "'ss02' Style Set 2 lookup 8 subtable" D.ss02
Substitution2: "'ss01' Style Set 1 lookup 7 subtable" D.ss01
Substitution2: "'salt' Stylistic Alternatives lookup 6 subtable" D.ss01
AlternateSubs2: "'aalt' Access All Alternates lookup 1 subtable" D.ss01 D.ss02 D.ss03 D.ss04 D.ss05
Position2: "'cpsp' Capital Spacing lookup 1 subtable" dx=10 dy=0 dh=20 dv=0
EndChar

StartChar: Eth
Encoding: 208 208 14
GlifName: E_th
Width: 1425
Flags: MW
HStem: 0 205<207 672 401 672 672 680> 629 205<42 162 59 162 401 582> 1229 205<401 401 401 672>
VStem: 162 240<205 629 205 629 205 629 834 1229> 1079 246<538 895>
LayerCount: 2
Back
Fore
SplineSet
680 1434 m 2,0,1
 974.01754386 1434 974.01754386 1434 1145.5 1264.5 c 0,2,3
 1325 1087.07514451 1325 1087.07514451 1325 717 c 0,4,5
 1325 179.896995708 1325 179.896995708 942.5 42 c 0,6,7
 826 0 826 0 680 0 c 2,8,-1
 231 0 l 2,9,10
 194 0 194 0 178 16.5 c 128,-1,11
 162 33 162 33 162 70 c 2,12,-1
 162 629 l 1,13,-1
 59 629 l 2,14,15
 10 629 10 629 10 709 c 2,16,-1
 10 754 l 2,17,18
 10 834 10 834 59 834 c 2,19,-1
 162 834 l 1,20,-1
 162 1364 l 2,21,22
 162 1401 162 1401 178 1417.5 c 128,-1,23
 194 1434 194 1434 231 1434 c 2,24,-1
 680 1434 l 2,0,1
401 1229 m 1,25,-1
 401 834 l 1,26,-1
 582 834 l 2,27,28
 631 834 631 834 631 754 c 2,29,-1
 631 709 l 2,30,31
 631 629 631 629 582 629 c 2,32,-1
 401 629 l 1,33,-1
 401 205 l 1,34,-1
 672 205 l 2,35,36
 861 205 861 205 970 331.5 c 128,-1,37
 1079 458 1079 458 1079 716 c 128,-1,38
 1079 974 1079 974 969.5 1101.5 c 128,-1,39
 860 1229 860 1229 672 1229 c 2,40,-1
 401 1229 l 1,25,-1
EndSplineSet
Position2: "'cpsp' Capital Spacing lookup 1 subtable" dx=10 dy=0 dh=20 dv=0
EndChar

StartChar: E
Encoding: 69 69 15
GlifName: E_
Width: 1118
Flags: MW
HStem: 0 205<219 977 414 977 414 977> 631 205<414 915 414 915> 1229 205<414 975 414 414>
VStem: 174 240<205 631 836 1229>
LayerCount: 2
Back
Fore
SplineSet
915 836 m 2,0,1
 965 836 965 836 965 756 c 2,2,-1
 965 711 l 2,3,4
 965 631 965 631 915 631 c 2,5,-1
 414 631 l 1,6,-1
 414 205 l 1,7,-1
 977 205 l 2,8,9
 1026 205 1026 205 1026 125 c 2,10,-1
 1026 80 l 2,11,12
 1026 0 1026 0 977 0 c 2,13,-1
 244 0 l 2,14,15
 207 0 207 0 190.5 16.5 c 128,-1,16
 174 33 174 33 174 70 c 2,17,-1
 174 1364 l 2,18,19
 174 1401 174 1401 190.5 1417.5 c 128,-1,20
 207 1434 207 1434 244 1434 c 2,21,-1
 975 1434 l 2,22,23
 1024 1434 1024 1434 1024 1354 c 2,24,-1
 1024 1309 l 2,25,26
 1024 1229 1024 1229 975 1229 c 2,27,-1
 414 1229 l 1,28,-1
 414 836 l 1,29,-1
 915 836 l 2,0,1
EndSplineSet
Substitution2: "'ss06' Style Set 6 lookup 12 subtable" five.ss01
Substitution2: "'ss05' Style Set 5 lookup 11 subtable" E.ss05
Substitution2: "'ss04' Style Set 4 lookup 10 subtable" E.ss04
Substitution2: "'ss03' Style Set 3 lookup 9 subtable" E.ss03
Substitution2: "'ss02' Style Set 2 lookup 8 subtable" E.ss02
Substitution2: "'ss01' Style Set 1 lookup 7 subtable" E.ss01
Substitution2: "'salt' Stylistic Alternatives lookup 6 subtable" E.ss01
AlternateSubs2: "'aalt' Access All Alternates lookup 1 subtable" E.ss01 E.ss02 E.ss03 E.ss04 E.ss05
Position2: "'cpsp' Capital Spacing lookup 1 subtable" dx=10 dy=0 dh=20 dv=0
EndChar

StartChar: Eacute
Encoding: 201 201 16
GlifName: E_acute
Width: 1118
Flags: MW
HStem: 0 205 631 205 1229 205
VStem: 174 240
LayerCount: 2
Back
Fore
SplineSet
770 1864 m 0,0,1
 828 1864 828 1864 853.5 1858 c 128,-1,2
 879 1852 879 1852 879 1837 c 128,-1,3
 879 1822 879 1822 864 1803.5 c 0,4,5
 824.744680851 1755.08510638 824.744680851 1755.08510638 678 1595 c 0,6,7
 638 1552 638 1552 568 1552 c 128,-1,8
 498 1552 498 1552 498 1577 c 0,9,10
 498 1597.62162162 498 1597.62162162 556 1694.81081081 c 128,-1,11
 614 1792 614 1792 623 1808 c 0,12,13
 654 1864 654 1864 770 1864 c 0,0,1
915 836 m 2,14,15
 965 836 965 836 965 756 c 2,16,-1
 965 711 l 2,17,18
 965 631 965 631 915 631 c 2,19,-1
 414 631 l 1,20,-1
 414 205 l 1,21,-1
 977 205 l 2,22,23
 1026 205 1026 205 1026 125 c 2,24,-1
 1026 80 l 2,25,26
 1026 0 1026 0 977 0 c 2,27,-1
 244 -0 l 2,28,29
 207 0 207 0 190.5 16.5 c 128,-1,30
 174 33 174 33 174 70 c 2,31,-1
 174 1364 l 2,32,33
 174 1401 174 1401 190.5 1417.5 c 128,-1,34
 207 1434 207 1434 244 1434 c 2,35,-1
 975 1434 l 2,36,37
 1024 1434 1024 1434 1024 1354 c 2,38,-1
 1024 1309 l 2,39,40
 1024 1229 1024 1229 975 1229 c 2,41,-1
 414 1229 l 1,42,-1
 414 836 l 1,43,-1
 915 836 l 2,14,15
EndSplineSet
Position2: "'cpsp' Capital Spacing lookup 1 subtable" dx=10 dy=0 dh=20 dv=0
EndChar

StartChar: Ecircumflex
Encoding: 202 202 17
GlifName: E_circumflex
Width: 1118
Flags: MW
HStem: 0 205<219 977 414 977 414 977> 631 205<414 915 414 915> 1229 205<414 975 414 414> 1538 295<374 625 389 625 586 801 586 823>
VStem: 174 240<205 631 836 1229>
LayerCount: 2
Back
Fore
SplineSet
625 1833 m 2,0,1
 705 1833 705 1833 733 1790 c 2,2,-1
 856 1597 l 2,3,4
 868 1579 868 1579 868 1565 c 0,5,6
 868 1538 868 1538 823 1538 c 2,7,-1
 801 1538 l 2,8,9
 734 1538 734 1538 702 1575 c 1,10,-1
 604 1696 l 1,11,-1
 510 1575 l 1,12,13
 478 1538 478 1538 410 1538 c 2,14,-1
 389 1538 l 2,15,16
 344 1538 344 1538 344 1565 c 0,17,18
 344 1579 344 1579 356 1597 c 2,19,-1
 479 1790 l 1,20,21
 504 1833 504 1833 586 1833 c 2,22,-1
 625 1833 l 2,0,1
915 836 m 2,23,24
 965 836 965 836 965 756 c 2,25,-1
 965 711 l 2,26,27
 965 631 965 631 915 631 c 2,28,-1
 414 631 l 1,29,-1
 414 205 l 1,30,-1
 977 205 l 2,31,32
 1026 205 1026 205 1026 125 c 2,33,-1
 1026 80 l 2,34,35
 1026 0 1026 0 977 0 c 2,36,-1
 244 0 l 2,37,38
 207 0 207 0 190.5 16.5 c 128,-1,39
 174 33 174 33 174 70 c 2,40,-1
 174 1364 l 2,41,42
 174 1401 174 1401 190.5 1417.5 c 128,-1,43
 207 1434 207 1434 244 1434 c 2,44,-1
 975 1434 l 2,45,46
 1024 1434 1024 1434 1024 1354 c 2,47,-1
 1024 1309 l 2,48,49
 1024 1229 1024 1229 975 1229 c 2,50,-1
 414 1229 l 1,51,-1
 414 836 l 1,52,-1
 915 836 l 2,23,24
EndSplineSet
Position2: "'cpsp' Capital Spacing lookup 1 subtable" dx=10 dy=0 dh=20 dv=0
EndChar

StartChar: Edieresis
Encoding: 203 203 18
GlifName: E_dieresis
Width: 1118
Flags: MW
HStem: 0 205<219 977 414 977 414 977> 631 205<414 915 414 915> 1229 205<414 975 414 414> 1579 221<408 477 735 805>
VStem: 174 240<205 631 836 1229> 340 205<1634 1747 1617 1763> 668 205<1634 1747 1617 1763>
LayerCount: 2
Back
Fore
SplineSet
340 1747 m 2,0,1
 340 1800 340 1800 442.5 1800 c 128,-1,2
 545 1800 545 1800 545 1747 c 2,3,-1
 545 1634 l 2,4,5
 545 1579 545 1579 442.5 1579 c 128,-1,6
 340 1579 340 1579 340 1634 c 2,7,-1
 340 1747 l 2,0,1
668 1747 m 2,8,9
 668 1800 668 1800 770 1800 c 128,-1,10
 872 1800 872 1800 872 1747 c 2,11,-1
 872 1634 l 2,12,13
 872 1579 872 1579 770 1579 c 128,-1,14
 668 1579 668 1579 668 1634 c 2,15,-1
 668 1747 l 2,8,9
915 836 m 2,16,17
 965 836 965 836 965 756 c 2,18,-1
 965 711 l 2,19,20
 965 631 965 631 915 631 c 2,21,-1
 414 631 l 1,22,-1
 414 205 l 1,23,-1
 977 205 l 2,24,25
 1026 205 1026 205 1026 125 c 2,26,-1
 1026 80 l 2,27,28
 1026 0 1026 0 977 0 c 2,29,-1
 244 0 l 2,30,31
 207 0 207 0 190.5 16.5 c 128,-1,32
 174 33 174 33 174 70 c 2,33,-1
 174 1364 l 2,34,35
 174 1401 174 1401 190.5 1417.5 c 128,-1,36
 207 1434 207 1434 244 1434 c 2,37,-1
 975 1434 l 2,38,39
 1024 1434 1024 1434 1024 1354 c 2,40,-1
 1024 1309 l 2,41,42
 1024 1229 1024 1229 975 1229 c 2,43,-1
 414 1229 l 1,44,-1
 414 836 l 1,45,-1
 915 836 l 2,16,17
EndSplineSet
Position2: "'cpsp' Capital Spacing lookup 1 subtable" dx=10 dy=0 dh=20 dv=0
EndChar

StartChar: Egrave
Encoding: 200 200 19
GlifName: E_grave
Width: 1118
Flags: MW
HStem: 0 205 631 205 1229 205
VStem: 174 240
LayerCount: 2
Back
Fore
SplineSet
350 1835 m 0,0,1
 350 1864 350 1864 462.5 1864 c 128,-1,2
 575 1864 575 1864 606 1808 c 0,3,4
 615 1792 615 1792 633.5 1761 c 0,5,6
 731 1597.62162162 731 1597.62162162 731 1574.81081081 c 128,-1,7
 731 1552 731 1552 661 1552 c 128,-1,8
 591 1552 591 1552 546 1601.5 c 128,-1,9
 501 1651 501 1651 439 1719.5 c 128,-1,10
 377 1788 377 1788 363.5 1805.5 c 128,-1,11
 350 1823 350 1823 350 1835 c 0,0,1
915 836 m 2,12,13
 965 836 965 836 965 756 c 2,14,-1
 965 711 l 2,15,16
 965 631 965 631 915 631 c 2,17,-1
 414 631 l 1,18,-1
 414 205 l 1,19,-1
 977 205 l 2,20,21
 1026 205 1026 205 1026 125 c 2,22,-1
 1026 80 l 2,23,24
 1026 0 1026 0 977 0 c 2,25,-1
 244 -0 l 2,26,27
 207 0 207 0 190.5 16.5 c 128,-1,28
 174 33 174 33 174 70 c 2,29,-1
 174 1364 l 2,30,31
 174 1401 174 1401 190.5 1417.5 c 128,-1,32
 207 1434 207 1434 244 1434 c 2,33,-1
 975 1434 l 2,34,35
 1024 1434 1024 1434 1024 1354 c 2,36,-1
 1024 1309 l 2,37,38
 1024 1229 1024 1229 975 1229 c 2,39,-1
 414 1229 l 1,40,-1
 414 836 l 1,41,-1
 915 836 l 2,12,13
EndSplineSet
Position2: "'cpsp' Capital Spacing lookup 1 subtable" dx=10 dy=0 dh=20 dv=0
EndChar

StartChar: F
Encoding: 70 70 20
GlifName: F_
Width: 1030
Flags: MW
HStem: 631 205<414 879 414 879> 1229 205<414 907 414 414>
VStem: 174 240<49 631 836 1229>
LayerCount: 2
Back
Fore
SplineSet
879 836 m 2,0,1
 930 836 930 836 930 756 c 2,2,-1
 930 711 l 2,3,4
 930 668 930 668 918.5 649.5 c 128,-1,5
 907 631 907 631 879 631 c 2,6,-1
 414 631 l 1,7,-1
 414 49 l 2,8,9
 414 -4 414 -4 313 -4 c 2,10,-1
 274 -4 l 2,11,12
 174 -4 174 -4 174 49 c 2,13,-1
 174 1364 l 2,14,15
 174 1401 174 1401 190.5 1417.5 c 128,-1,16
 207 1434 207 1434 244 1434 c 2,17,-1
 907 1434 l 2,18,19
 956 1434 956 1434 956 1354 c 2,20,-1
 956 1309 l 2,21,22
 956 1229 956 1229 907 1229 c 2,23,-1
 414 1229 l 1,24,-1
 414 836 l 1,25,-1
 879 836 l 2,0,1
EndSplineSet
Substitution2: "'ss06' Style Set 6 lookup 12 subtable" six.ss01
Substitution2: "'ss05' Style Set 5 lookup 11 subtable" F.ss05
Substitution2: "'ss04' Style Set 4 lookup 10 subtable" F.ss04
Substitution2: "'ss03' Style Set 3 lookup 9 subtable" F.ss03
Substitution2: "'ss02' Style Set 2 lookup 8 subtable" F.ss02
Substitution2: "'ss01' Style Set 1 lookup 7 subtable" F.ss01
Substitution2: "'salt' Stylistic Alternatives lookup 6 subtable" F.ss01
AlternateSubs2: "'aalt' Access All Alternates lookup 1 subtable" F.ss01 F.ss02 F.ss03 F.ss04 F.ss05
Position2: "'cpsp' Capital Spacing lookup 1 subtable" dx=10 dy=0 dh=20 dv=0
EndChar

StartChar: G
Encoding: 71 71 21
GlifName: G_
Width: 1376
Flags: MW
HStem: -14 205<610 807 610 855> 559 205<752 1153 770 983> 1241 207<624 851>
VStem: 106 246<565 889 565 962> 983 240<213 559 559 559>
LayerCount: 2
Back
Fore
SplineSet
758 -14 m 0,0,1
 106 -14 106 -14 106 717 c 128,-1,2
 106 1448 106 1448 778 1448 c 0,3,4
 991.206349206 1448 991.206349206 1448 1128 1378.5 c 0,5,6
 1190 1347 1190 1347 1190 1312.5 c 128,-1,7
 1190 1278 1190 1278 1155 1220.5 c 128,-1,8
 1120 1163 1120 1163 1094 1163 c 0,9,10
 1088 1163 1088 1163 1060 1176 c 0,11,12
 921 1241 921 1241 778 1241 c 0,13,14
 552 1241 552 1241 452 1111 c 128,-1,15
 352 981 352 981 352 721 c 0,16,17
 352 190 352 190 764 190 c 0,18,19
 893 190 893 190 983 213 c 1,20,-1
 983 559 l 1,21,-1
 770 559 l 2,22,23
 742 559 742 559 730.5 577.5 c 128,-1,24
 719 596 719 596 719 639 c 2,25,-1
 719 684 l 2,26,27
 719 727 719 727 730.5 745.5 c 128,-1,28
 742 764 742 764 770 764 c 2,29,-1
 1153 764 l 2,30,31
 1190 764 1190 764 1206.5 747.5 c 128,-1,32
 1223 731 1223 731 1223 694 c 2,33,-1
 1223 139 l 2,34,35
 1223 95 1223 95 1179 63 c 128,-1,36
 1135 31 1135 31 1062 15 c 0,37,38
 929.6875 -14 929.6875 -14 758 -14 c 0,0,1
EndSplineSet
Substitution2: "'ss06' Style Set 6 lookup 12 subtable" seven.ss01
Substitution2: "'ss05' Style Set 5 lookup 11 subtable" G.ss05
Substitution2: "'ss04' Style Set 4 lookup 10 subtable" G.ss04
Substitution2: "'ss03' Style Set 3 lookup 9 subtable" G.ss03
Substitution2: "'ss02' Style Set 2 lookup 8 subtable" G.ss02
Substitution2: "'ss01' Style Set 1 lookup 7 subtable" G.ss01
Substitution2: "'salt' Stylistic Alternatives lookup 6 subtable" G.ss01
AlternateSubs2: "'aalt' Access All Alternates lookup 1 subtable" G.ss01 G.ss02 G.ss03 G.ss04 G.ss05
Position2: "'cpsp' Capital Spacing lookup 1 subtable" dx=10 dy=0 dh=20 dv=0
EndChar

StartChar: H
Encoding: 72 72 22
GlifName: H_
Width: 1501
Flags: MW
HStem: 631 205<426 1085 426 1085>
VStem: 186 240<49 631 836 1384> 1085 240<49 631 631 631 836 1384>
LayerCount: 2
Back
Fore
SplineSet
1227 1438 m 2,0,1
 1325 1438 1325 1438 1325 1384 c 2,2,-1
 1325 49 l 2,3,4
 1325 -4 1325 -4 1227 -4 c 2,5,-1
 1186 -4 l 2,6,7
 1085 -4 1085 -4 1085 49 c 2,8,-1
 1085 631 l 1,9,-1
 426 631 l 1,10,-1
 426 49 l 2,11,12
 426 -4 426 -4 328 -4 c 2,13,-1
 287 -4 l 2,14,15
 186 -4 186 -4 186 49 c 2,16,-1
 186 1384 l 2,17,18
 186 1438 186 1438 287 1438 c 2,19,-1
 328 1438 l 2,20,21
 426 1438 426 1438 426 1384 c 2,22,-1
 426 836 l 1,23,-1
 1085 836 l 1,24,-1
 1085 1384 l 2,25,26
 1085 1438 1085 1438 1186 1438 c 2,27,-1
 1227 1438 l 2,0,1
EndSplineSet
Substitution2: "'ss06' Style Set 6 lookup 12 subtable" eight.ss01
Substitution2: "'ss05' Style Set 5 lookup 11 subtable" H.ss05
Substitution2: "'ss04' Style Set 4 lookup 10 subtable" H.ss04
Substitution2: "'ss02' Style Set 2 lookup 8 subtable" H.ss02
Substitution2: "'ss01' Style Set 1 lookup 7 subtable" H.ss01
Substitution2: "'salt' Stylistic Alternatives lookup 6 subtable" H.ss01
AlternateSubs2: "'aalt' Access All Alternates lookup 1 subtable" H.ss01 H.ss02 H.ss04 H.ss05
Position2: "'cpsp' Capital Spacing lookup 1 subtable" dx=10 dy=0 dh=20 dv=0
EndChar

StartChar: I
Encoding: 73 73 23
GlifName: I_
Width: 577
Flags: MW
HStem: -4 1442<233 309 268 309>
VStem: 168 240<49 1384>
LayerCount: 2
Back
Fore
SplineSet
309 1438 m 2,0,1
 408 1438 408 1438 408 1384 c 2,2,-1
 408 49 l 2,3,4
 408 -4 408 -4 309 -4 c 2,5,-1
 268 -4 l 2,6,7
 168 -4 168 -4 168 49 c 2,8,-1
 168 1384 l 2,9,10
 168 1438 168 1438 268 1438 c 2,11,-1
 309 1438 l 2,0,1
EndSplineSet
Substitution2: "'ss06' Style Set 6 lookup 12 subtable" one.ss02
Substitution2: "'ss05' Style Set 5 lookup 11 subtable" I.ss05
Substitution2: "'ss04' Style Set 4 lookup 10 subtable" I.ss04
Substitution2: "'ss02' Style Set 2 lookup 8 subtable" I.ss02
Substitution2: "'ss01' Style Set 1 lookup 7 subtable" I.ss01
Substitution2: "'salt' Stylistic Alternatives lookup 6 subtable" I.ss01
AlternateSubs2: "'aalt' Access All Alternates lookup 1 subtable" I.ss01 I.ss02 I.ss04 I.ss05
Position2: "'cpsp' Capital Spacing lookup 1 subtable" dx=10 dy=0 dh=20 dv=0
EndChar

StartChar: Iacute
Encoding: 205 205 24
GlifName: I_acute
Width: 577
Flags: MW
HStem: -4 1868
VStem: 168 240
LayerCount: 2
Back
Fore
SplineSet
453 1864 m 0,0,1
 511 1864 511 1864 536 1858 c 128,-1,2
 561 1852 561 1852 561 1837 c 128,-1,3
 561 1822 561 1822 545 1802 c 0,4,5
 525.470588235 1777.58823529 525.470588235 1777.58823529 360 1595 c 0,6,7
 320 1552 320 1552 250 1552 c 128,-1,8
 180 1552 180 1552 180 1577 c 0,9,10
 180 1591.2 180 1591.2 217 1655.1 c 0,11,12
 264.882352941 1737.79411765 264.882352941 1737.79411765 300.441176471 1800.89705882 c 128,-1,13
 336 1864 336 1864 453 1864 c 0,0,1
309 1438 m 2,14,15
 408 1438 408 1438 408 1384 c 2,16,-1
 408 49 l 2,17,18
 408 -4 408 -4 309 -4 c 2,19,-1
 268 -4 l 2,20,21
 168 -4 168 -4 168 49 c 2,22,-1
 168 1384 l 2,23,24
 168 1438 168 1438 268 1438 c 2,25,-1
 309 1438 l 2,14,15
EndSplineSet
Position2: "'cpsp' Capital Spacing lookup 1 subtable" dx=10 dy=0 dh=20 dv=0
EndChar

StartChar: Icircumflex
Encoding: 206 206 25
GlifName: I_circumflex
Width: 577
Flags: MW
HStem: 1538 295<56 307 72 307 268 483 268 506>
VStem: 168 240<49 1384>
LayerCount: 2
Back
Fore
SplineSet
307 1833 m 2,0,1
 388 1833 388 1833 416 1790 c 2,2,-1
 539 1597 l 2,3,4
 551 1579 551 1579 551 1565 c 0,5,6
 551 1538 551 1538 506 1538 c 2,7,-1
 483 1538 l 2,8,9
 417 1538 417 1538 385 1575 c 1,10,-1
 287 1696 l 1,11,-1
 193 1575 l 1,12,13
 161 1538 161 1538 92 1538 c 2,14,-1
 72 1538 l 2,15,16
 27 1538 27 1538 27 1565 c 0,17,18
 27 1579 27 1579 39 1597 c 2,19,-1
 162 1790 l 1,20,21
 187 1833 187 1833 268 1833 c 2,22,-1
 307 1833 l 2,0,1
309 1438 m 2,23,24
 408 1438 408 1438 408 1384 c 2,25,-1
 408 49 l 2,26,27
 408 -4 408 -4 309 -4 c 2,28,-1
 268 -4 l 2,29,30
 168 -4 168 -4 168 49 c 2,31,-1
 168 1384 l 2,32,33
 168 1438 168 1438 268 1438 c 2,34,-1
 309 1438 l 2,23,24
EndSplineSet
Position2: "'cpsp' Capital Spacing lookup 1 subtable" dx=10 dy=0 dh=20 dv=0
EndChar

StartChar: Idieresis
Encoding: 207 207 26
GlifName: I_dieresis
Width: 577
Flags: MW
HStem: 1579 221<90 160 418 487>
VStem: 23 205<1634 1747 1617 1763> 168 240<49 1384> 350 205<1634 1747 1617 1763>
LayerCount: 2
Back
Fore
SplineSet
23 1747 m 2,0,1
 23 1800 23 1800 125 1800 c 128,-1,2
 227 1800 227 1800 227 1747 c 2,3,-1
 227 1634 l 2,4,5
 227 1579 227 1579 125 1579 c 128,-1,6
 23 1579 23 1579 23 1634 c 2,7,-1
 23 1747 l 2,0,1
350 1747 m 2,8,9
 350 1800 350 1800 452.5 1800 c 128,-1,10
 555 1800 555 1800 555 1747 c 2,11,-1
 555 1634 l 2,12,13
 555 1579 555 1579 452.5 1579 c 128,-1,14
 350 1579 350 1579 350 1634 c 2,15,-1
 350 1747 l 2,8,9
309 1438 m 2,16,17
 408 1438 408 1438 408 1384 c 2,18,-1
 408 49 l 2,19,20
 408 -4 408 -4 309 -4 c 2,21,-1
 268 -4 l 2,22,23
 168 -4 168 -4 168 49 c 2,24,-1
 168 1384 l 2,25,26
 168 1438 168 1438 268 1438 c 2,27,-1
 309 1438 l 2,16,17
EndSplineSet
Position2: "'cpsp' Capital Spacing lookup 1 subtable" dx=10 dy=0 dh=20 dv=0
EndChar

StartChar: Igrave
Encoding: 204 204 27
GlifName: I_grave
Width: 577
Flags: MW
HStem: -4 1868
VStem: 168 240
LayerCount: 2
Back
Fore
SplineSet
33 1835 m 0,0,1
 33 1864 33 1864 145.5 1864 c 128,-1,2
 258 1864 258 1864 289 1808 c 0,3,4
 341 1717 341 1717 343 1715 c 1,5,-1
 343 1714 l 1,6,-1
 344 1713 l 1,7,-1
 344 1712 l 1,8,-1
 346 1710 l 1,9,-1
 346 1709 l 1,10,-1
 347 1708 l 1,11,-1
 348 1706 l 1,12,13
 412 1593 412 1593 413 1572.5 c 128,-1,14
 414 1552 414 1552 343.5 1552 c 128,-1,15
 273 1552 273 1552 228 1601.5 c 128,-1,16
 183 1651 183 1651 122 1718.5 c 128,-1,17
 61 1786 61 1786 47 1804 c 128,-1,18
 33 1822 33 1822 33 1835 c 0,0,1
309 1438 m 2,19,20
 408 1438 408 1438 408 1384 c 2,21,-1
 408 49 l 2,22,23
 408 -4 408 -4 309 -4 c 2,24,-1
 268 -4 l 2,25,26
 168 -4 168 -4 168 49 c 2,27,-1
 168 1384 l 2,28,29
 168 1438 168 1438 268 1438 c 2,30,-1
 309 1438 l 2,19,20
EndSplineSet
Position2: "'cpsp' Capital Spacing lookup 1 subtable" dx=10 dy=0 dh=20 dv=0
EndChar

StartChar: J
Encoding: 74 74 28
GlifName: J_
Width: 823
Flags: MW
HStem: -14 207<201 274 169 389>
VStem: 428 240
LayerCount: 2
Back
Fore
SplineSet
562.5 99.5 m 128,-1,1
 457 -14 457 -14 231.5 -14 c 128,-1,2
 6 -14 6 -14 6 63 c 0,3,4
 6 95 6 95 22.5 152.5 c 128,-1,5
 39 210 39 210 68 211 c 0,6,7
 74 211 74 211 112.5 202 c 128,-1,8
 151 193 151 193 190 193 c 0,9,10
 316 193 316 193 372 249 c 128,-1,11
 428 305 428 305 428 428 c 2,12,-1
 428 1384 l 2,13,14
 428 1438 428 1438 528 1438 c 2,15,-1
 567 1438 l 2,16,17
 668 1438 668 1438 668 1384 c 2,18,-1
 668 418 l 2,19,0
 668 213 668 213 562.5 99.5 c 128,-1,1
EndSplineSet
Substitution2: "'ss06' Style Set 6 lookup 12 subtable" two.ss02
Substitution2: "'ss05' Style Set 5 lookup 11 subtable" J.ss05
Substitution2: "'ss04' Style Set 4 lookup 10 subtable" J.ss04
Substitution2: "'ss02' Style Set 2 lookup 8 subtable" J.ss02
Substitution2: "'ss01' Style Set 1 lookup 7 subtable" J.ss01
Substitution2: "'salt' Stylistic Alternatives lookup 6 subtable" J.ss01
AlternateSubs2: "'aalt' Access All Alternates lookup 1 subtable" J.ss01 J.ss02 J.ss04 J.ss05
Position2: "'cpsp' Capital Spacing lookup 1 subtable" dx=10 dy=0 dh=20 dv=0
EndChar

StartChar: K
Encoding: 75 75 29
GlifName: K_
Width: 1179
Flags: MW
HStem: -4 1442<240 315 274 315 1013 1032 1032 1038 1038 1063 274 1104>
VStem: 174 240<49 670 791 1384>
LayerCount: 2
Back
Fore
SplineSet
1032 1438 m 2,0,1
 1122 1438 1122 1438 1122 1409 c 0,2,3
 1122 1392 1122 1392 1104 1368 c 2,4,-1
 641 743 l 1,5,-1
 1188 63 l 1,6,7
 1204 39 1204 39 1204 25 c 0,8,9
 1204 -4 1204 -4 1104 -4 c 2,10,-1
 1038 -4 l 2,11,12
 946 -4 946 -4 920 29 c 2,13,-1
 422 672 l 1,14,-1
 414 670 l 1,15,-1
 414 49 l 2,16,17
 414 -4 414 -4 315 -4 c 2,18,-1
 274 -4 l 2,19,20
 174 -4 174 -4 174 49 c 2,21,-1
 174 1384 l 2,22,23
 174 1438 174 1438 274 1438 c 2,24,-1
 315 1438 l 2,25,26
 414 1438 414 1438 414 1384 c 2,27,-1
 414 791 l 1,28,-1
 422 791 l 1,29,-1
 862 1405 l 1,30,31
 884 1438 884 1438 977 1438 c 2,32,-1
 1032 1438 l 2,0,1
EndSplineSet
Substitution2: "'ss06' Style Set 6 lookup 12 subtable" three.ss02
Substitution2: "'ss04' Style Set 4 lookup 10 subtable" K.ss04
Substitution2: "'ss02' Style Set 2 lookup 8 subtable" K.ss02
Substitution2: "'ss01' Style Set 1 lookup 7 subtable" K.ss01
Substitution2: "'salt' Stylistic Alternatives lookup 6 subtable" K.ss01
AlternateSubs2: "'aalt' Access All Alternates lookup 1 subtable" K.ss01 K.ss02 K.ss04
Position2: "'cpsp' Capital Spacing lookup 1 subtable" dx=10 dy=0 dh=20 dv=0
EndChar

StartChar: L
Encoding: 76 76 30
GlifName: L_
Width: 991
Flags: MW
HStem: 0 205<219 930 414 930 414 930>
VStem: 174 240<205 1384 205 1384 205 1402>
LayerCount: 2
Back
Fore
SplineSet
313 1438 m 2,0,1
 414 1438 414 1438 414 1384 c 2,2,-1
 414 205 l 1,3,-1
 930 205 l 2,4,5
 979 205 979 205 979 125 c 2,6,-1
 979 80 l 2,7,8
 979 0 979 0 930 0 c 2,9,-1
 244 0 l 2,10,11
 207 0 207 0 190.5 16.5 c 128,-1,12
 174 33 174 33 174 70 c 2,13,-1
 174 1384 l 2,14,15
 174 1438 174 1438 274 1438 c 2,16,-1
 313 1438 l 2,0,1
EndSplineSet
Substitution2: "'ss06' Style Set 6 lookup 12 subtable" four.ss02
Substitution2: "'ss04' Style Set 4 lookup 10 subtable" L.ss04
Substitution2: "'ss01' Style Set 1 lookup 7 subtable" L.ss01
Substitution2: "'salt' Stylistic Alternatives lookup 6 subtable" L.ss01
AlternateSubs2: "'aalt' Access All Alternates lookup 1 subtable" L.ss01 L.ss04
Position2: "'cpsp' Capital Spacing lookup 1 subtable" dx=10 dy=0 dh=20 dv=0
EndChar

StartChar: Lslash
Encoding: 321 321 31
GlifName: L_slash
Width: 995
Flags: MW
HStem: 0 205<207 936 399 936 399 936>
VStem: 162 238<205 670 670 670 795 815 940 1384>
LayerCount: 2
Back
Fore
SplineSet
301 1438 m 2,0,1
 399 1438 399 1438 399 1384 c 2,2,-1
 399 940 l 1,3,-1
 602 1061 l 2,4,5
 619 1071 619 1071 627 1071 c 0,6,7
 647 1071 647 1071 647 1038 c 2,8,-1
 647 1014 l 2,9,10
 647 961 647 961 602 938 c 1,11,-1
 399 815 l 1,12,-1
 399 205 l 1,13,-1
 936 205 l 2,14,15
 985 205 985 205 985 125 c 2,16,-1
 985 80 l 2,17,18
 985 0 985 0 936 0 c 2,19,-1
 231 0 l 2,20,21
 194 0 194 0 178 16.5 c 128,-1,22
 162 33 162 33 162 70 c 2,23,-1
 162 670 l 1,24,-1
 66 614 l 1,25,26
 53 604 53 604 41 604 c 0,27,28
 20 604 20 604 20 639 c 2,29,-1
 20 664 l 2,30,31
 20 712 20 712 66 739 c 2,32,-1
 162 795 l 1,33,-1
 162 1384 l 2,34,35
 162 1438 162 1438 260 1438 c 2,36,-1
 301 1438 l 2,0,1
EndSplineSet
Position2: "'cpsp' Capital Spacing lookup 1 subtable" dx=10 dy=0 dh=20 dv=0
EndChar

StartChar: M
Encoding: 77 77 32
GlifName: M_
Width: 1726
Flags: MW
HStem: -4 1442<231 354 266 299 1393 1427 1427 1462>
VStem: 166 233<49 1049> 1327 233<49 1040 1040 1040>
LayerCount: 2
Back
Fore
SplineSet
1462 1438 m 2,0,1
 1561 1438 1561 1438 1561 1384 c 2,2,-1
 1561 49 l 2,3,4
 1561 -4 1561 -4 1462 -4 c 2,5,-1
 1427 -4 l 2,6,7
 1327 -4 1327 -4 1327 49 c 2,8,-1
 1327 1040 l 1,9,-1
 1321 1036 l 1,10,-1
 963 406 l 1,11,12
 941 375 941 375 901 375 c 2,13,-1
 829 375 l 2,14,15
 790 375 790 375 768 406 c 1,16,-1
 406 1044 l 1,17,-1
 399 1049 l 1,18,-1
 399 49 l 2,19,20
 399 -4 399 -4 299 -4 c 2,21,-1
 266 -4 l 2,22,23
 166 -4 166 -4 166 49 c 2,24,-1
 166 1384 l 2,25,26
 166 1438 166 1438 266 1438 c 2,27,-1
 354 1438 l 2,28,29
 436 1438 436 1438 459 1393 c 1,30,-1
 827 748 l 1,31,-1
 864 662 l 1,32,-1
 903 743 l 1,33,-1
 1272 1393 l 1,34,35
 1295 1438 1295 1438 1376 1438 c 2,36,-1
 1462 1438 l 2,0,1
EndSplineSet
Substitution2: "'ss06' Style Set 6 lookup 12 subtable" five.ss02
Substitution2: "'ss04' Style Set 4 lookup 10 subtable" M.ss04
Substitution2: "'ss01' Style Set 1 lookup 7 subtable" M.ss01
Substitution2: "'salt' Stylistic Alternatives lookup 6 subtable" M.ss01
AlternateSubs2: "'aalt' Access All Alternates lookup 1 subtable" M.ss01 M.ss04
Position2: "'cpsp' Capital Spacing lookup 1 subtable" dx=10 dy=0 dh=20 dv=0
EndChar

StartChar: N
Encoding: 78 78 33
GlifName: N_
Width: 1472
Flags: MW
HStem: -4 1442<231 328 266 299 266 1151 1174 1208 266 1208>
VStem: 166 233<49 1036> 1073 233<410 1384>
LayerCount: 2
Back
Fore
SplineSet
1208 1438 m 2,0,1
 1307 1438 1307 1438 1307 1384 c 2,2,-1
 1307 49 l 2,3,4
 1307 -4 1307 -4 1208 -4 c 2,5,-1
 1151 -4 l 2,6,7
 1077 -4 1077 -4 1051 37 c 2,8,-1
 449 948 l 1,9,-1
 399 1036 l 1,10,-1
 399 49 l 2,11,12
 399 -4 399 -4 299 -4 c 2,13,-1
 266 -4 l 2,14,15
 166 -4 166 -4 166 49 c 2,16,-1
 166 1384 l 2,17,18
 166 1438 166 1438 266 1438 c 2,19,-1
 328 1438 l 2,20,21
 404 1438 404 1438 436 1393 c 1,22,-1
 1016 510 l 1,23,-1
 1073 410 l 1,24,-1
 1073 1384 l 2,25,26
 1073 1438 1073 1438 1174 1438 c 2,27,-1
 1208 1438 l 2,0,1
EndSplineSet
Substitution2: "'ss06' Style Set 6 lookup 12 subtable" six.ss02
Substitution2: "'ss01' Style Set 1 lookup 7 subtable" N.ss01
Substitution2: "'salt' Stylistic Alternatives lookup 6 subtable" N.ss01
Substitution2: "'aalt' Access All Alternates lookup 0 subtable" N.ss01
Position2: "'cpsp' Capital Spacing lookup 1 subtable" dx=10 dy=0 dh=20 dv=0
EndChar

StartChar: Ntilde
Encoding: 209 209 34
GlifName: N_tilde
Width: 1472
Flags: MW
HStem: 1563 129<865 897 865 924> 1655 129<573 598>
VStem: 166 233 1073 233
LayerCount: 2
Back
Fore
SplineSet
840 1702 m 128,-1,1
 867 1692 867 1692 885 1692 c 128,-1,2
 903 1692 903 1692 917 1706 c 128,-1,3
 931 1720 931 1720 952 1753.5 c 128,-1,4
 973 1787 973 1787 987 1787 c 0,5,6
 995 1787 995 1787 1008 1782 c 2,7,-1
 1053 1763 l 2,8,9
 1072 1754 1072 1754 1072 1742.5 c 128,-1,10
 1072 1731 1072 1731 1065 1712 c 0,11,12
 1012 1563 1012 1563 887 1563 c 0,13,14
 821 1563 821 1563 715.5 1609 c 128,-1,15
 610 1655 610 1655 589 1655 c 0,16,17
 553.6 1655 553.6 1655 514 1589 c 0,18,19
 496 1559 496 1559 481 1559 c 0,20,21
 477 1559 477 1559 461 1565 c 2,22,-1
 416 1583 l 1,23,24
 397 1592 397 1592 397 1605 c 128,-1,25
 397 1618 397 1618 403 1634 c 0,26,27
 457 1784 457 1784 582 1784 c 0,28,29
 631 1784 631 1784 679.5 1766 c 128,-1,30
 728 1748 728 1748 770.5 1730 c 128,-1,0
 813 1712 813 1712 840 1702 c 128,-1,1
1208 1438 m 2,31,32
 1307 1438 1307 1438 1307 1384 c 2,33,-1
 1307 49 l 2,34,35
 1307 -4 1307 -4 1208 -4 c 2,36,-1
 1151 -4 l 2,37,38
 1077 -4 1077 -4 1051 37 c 2,39,-1
 449 948 l 1,40,-1
 399 1036 l 1,41,-1
 399 49 l 2,42,43
 399 -4 399 -4 299 -4 c 2,44,-1
 266 -4 l 2,45,46
 166 -4 166 -4 166 49 c 2,47,-1
 166 1384 l 2,48,49
 166 1438 166 1438 266 1438 c 2,50,-1
 328 1438 l 2,51,52
 404 1438 404 1438 436 1393 c 1,53,-1
 1016 510 l 1,54,-1
 1073 410 l 1,55,-1
 1073 1384 l 2,56,57
 1073 1438 1073 1438 1174 1438 c 2,58,-1
 1208 1438 l 2,31,32
EndSplineSet
Position2: "'cpsp' Capital Spacing lookup 1 subtable" dx=10 dy=0 dh=20 dv=0
EndChar

StartChar: O
Encoding: 79 79 35
GlifName: O_
Width: 1497
Flags: MW
HStem: -14 205<618 878 618 957> 1241 207<618 878>
VStem: 106 246<547 891 547 957> 1145 246<547 891>
LayerCount: 2
Back
Fore
SplineSet
750 1448 m 128,-1,1
 1063 1448 1063 1448 1227 1262 c 128,-1,2
 1391 1076 1391 1076 1391 718.5 c 128,-1,3
 1391 361 1391 361 1226.5 173.5 c 128,-1,4
 1062 -14 1062 -14 749.5 -14 c 128,-1,5
 437 -14 437 -14 271.5 174 c 128,-1,6
 106 362 106 362 106 719 c 128,-1,7
 106 1076 106 1076 271.5 1262 c 128,-1,0
 437 1448 437 1448 750 1448 c 128,-1,1
1044 1109 m 128,-1,9
 943 1241 943 1241 748.5 1241 c 128,-1,10
 554 1241 554 1241 453 1108.5 c 128,-1,11
 352 976 352 976 352 718.5 c 128,-1,12
 352 461 352 461 453.5 325.5 c 128,-1,13
 555 190 555 190 749 190 c 128,-1,14
 943 190 943 190 1044 325.5 c 128,-1,15
 1145 461 1145 461 1145 719 c 128,-1,8
 1145 977 1145 977 1044 1109 c 128,-1,9
EndSplineSet
Substitution2: "Single Substitution lookup 13 subtable" ordmasculine
Substitution2: "'ss06' Style Set 6 lookup 12 subtable" seven.ss02
Substitution2: "'ss05' Style Set 5 lookup 11 subtable" O.ss05
Substitution2: "'ss04' Style Set 4 lookup 10 subtable" O.ss04
Substitution2: "'ss01' Style Set 1 lookup 7 subtable" O.ss01
Substitution2: "'salt' Stylistic Alternatives lookup 6 subtable" O.ss01
AlternateSubs2: "'aalt' Access All Alternates lookup 1 subtable" ordmasculine O.ss01 O.ss04 O.ss05
Position2: "'cpsp' Capital Spacing lookup 1 subtable" dx=10 dy=0 dh=20 dv=0
EndChar

StartChar: Oacute
Encoding: 211 211 36
GlifName: O_acute
Width: 1497
Flags: MW
HStem: -14 205 1241 207
VStem: 106 246 1145 246
LayerCount: 2
Back
Fore
SplineSet
913 1864 m 0,0,1
 971 1864 971 1864 996.5 1858 c 128,-1,2
 1022 1852 1022 1852 1022 1837 c 128,-1,3
 1022 1822 1022 1822 1007 1803.5 c 0,4,5
 967.744680851 1755.08510638 967.744680851 1755.08510638 821 1595 c 0,6,7
 781 1552 781 1552 711 1552 c 128,-1,8
 641 1552 641 1552 641 1577 c 0,9,10
 641 1591.71794872 641 1591.71794872 697 1689.35897436 c 128,-1,11
 753 1787 753 1787 766 1808 c 0,12,13
 797 1864 797 1864 913 1864 c 0,0,1
750 1448 m 128,-1,15
 1063 1448 1063 1448 1227 1262 c 128,-1,16
 1391 1076 1391 1076 1391 718.5 c 128,-1,17
 1391 361 1391 361 1226.5 173.5 c 128,-1,18
 1062 -14 1062 -14 750 -14 c 128,-1,19
 438 -14 438 -14 272.5 174 c 128,-1,20
 107 362 107 362 107 719 c 128,-1,21
 107 1076 107 1076 272 1262 c 128,-1,14
 437 1448 437 1448 750 1448 c 128,-1,15
1044 1109 m 128,-1,23
 943 1241 943 1241 748.5 1241 c 128,-1,24
 554 1241 554 1241 453 1108.5 c 128,-1,25
 352 976 352 976 352 718.5 c 128,-1,26
 352 461 352 461 453.5 325.5 c 128,-1,27
 555 190 555 190 749 190 c 128,-1,28
 943 190 943 190 1044 325.5 c 128,-1,29
 1145 461 1145 461 1145 719 c 128,-1,22
 1145 977 1145 977 1044 1109 c 128,-1,23
EndSplineSet
Position2: "'cpsp' Capital Spacing lookup 1 subtable" dx=10 dy=0 dh=20 dv=0
EndChar

StartChar: Ocircumflex
Encoding: 212 212 37
GlifName: O_circumflex
Width: 1497
Flags: MW
HStem: -14 205<618 878 618 957> 1241 207<618 878> 1538 295<517 768 532 768 729 944 729 967>
VStem: 106 246<547 891 547 957> 1145 246<547 891>
LayerCount: 2
Back
Fore
SplineSet
768 1833 m 2,0,1
 849 1833 849 1833 877 1790 c 2,2,-1
 999 1597 l 2,3,4
 1012 1577 1012 1577 1012 1565 c 0,5,6
 1012 1538 1012 1538 967 1538 c 2,7,-1
 944 1538 l 2,8,9
 878 1538 878 1538 846 1575 c 1,10,-1
 748 1696 l 1,11,-1
 653 1575 l 1,12,13
 621 1538 621 1538 553 1538 c 2,14,-1
 532 1538 l 2,15,16
 487 1538 487 1538 487 1565 c 0,17,18
 487 1577 487 1577 500 1597 c 2,19,-1
 623 1790 l 1,20,21
 648 1833 648 1833 729 1833 c 2,22,-1
 768 1833 l 2,0,1
750 1448 m 128,-1,24
 1063 1448 1063 1448 1227 1262 c 128,-1,25
 1391 1076 1391 1076 1391 718.5 c 128,-1,26
 1391 361 1391 361 1226.5 173.5 c 128,-1,27
 1062 -14 1062 -14 749.5 -14 c 128,-1,28
 437 -14 437 -14 271.5 174 c 128,-1,29
 106 362 106 362 106 719 c 128,-1,30
 106 1076 106 1076 271.5 1262 c 128,-1,23
 437 1448 437 1448 750 1448 c 128,-1,24
1044 1109 m 128,-1,32
 943 1241 943 1241 748.5 1241 c 128,-1,33
 554 1241 554 1241 453 1108.5 c 128,-1,34
 352 976 352 976 352 718.5 c 128,-1,35
 352 461 352 461 453.5 325.5 c 128,-1,36
 555 190 555 190 749 190 c 128,-1,37
 943 190 943 190 1044 325.5 c 128,-1,38
 1145 461 1145 461 1145 719 c 128,-1,31
 1145 977 1145 977 1044 1109 c 128,-1,32
EndSplineSet
Position2: "'cpsp' Capital Spacing lookup 1 subtable" dx=10 dy=0 dh=20 dv=0
EndChar

StartChar: Odieresis
Encoding: 214 214 38
GlifName: O_dieresis
Width: 1497
Flags: MW
HStem: -14 205<618 878 618 957> 1241 207<618 878> 1579 221<551 621 879 948>
VStem: 106 246<547 891 547 957> 483 205<1634 1747 1617 1763> 811 205<1634 1747 1617 1763> 1145 246<547 891>
LayerCount: 2
Back
Fore
SplineSet
483 1747 m 2,0,1
 483 1800 483 1800 585.5 1800 c 128,-1,2
 688 1800 688 1800 688 1747 c 2,3,-1
 688 1634 l 2,4,5
 688 1579 688 1579 585.5 1579 c 128,-1,6
 483 1579 483 1579 483 1634 c 2,7,-1
 483 1747 l 2,0,1
811 1747 m 2,8,9
 811 1800 811 1800 913.5 1800 c 128,-1,10
 1016 1800 1016 1800 1016 1747 c 2,11,-1
 1016 1634 l 2,12,13
 1016 1579 1016 1579 913.5 1579 c 128,-1,14
 811 1579 811 1579 811 1634 c 2,15,-1
 811 1747 l 2,8,9
750 1448 m 128,-1,17
 1063 1448 1063 1448 1227 1262 c 128,-1,18
 1391 1076 1391 1076 1391 718.5 c 128,-1,19
 1391 361 1391 361 1226.5 173.5 c 128,-1,20
 1062 -14 1062 -14 749.5 -14 c 128,-1,21
 437 -14 437 -14 271.5 174 c 128,-1,22
 106 362 106 362 106 719 c 128,-1,23
 106 1076 106 1076 271.5 1262 c 128,-1,16
 437 1448 437 1448 750 1448 c 128,-1,17
1044 1109 m 128,-1,25
 943 1241 943 1241 748.5 1241 c 128,-1,26
 554 1241 554 1241 453 1108.5 c 128,-1,27
 352 976 352 976 352 718.5 c 128,-1,28
 352 461 352 461 453.5 325.5 c 128,-1,29
 555 190 555 190 749 190 c 128,-1,30
 943 190 943 190 1044 325.5 c 128,-1,31
 1145 461 1145 461 1145 719 c 128,-1,24
 1145 977 1145 977 1044 1109 c 128,-1,25
EndSplineSet
Position2: "'cpsp' Capital Spacing lookup 1 subtable" dx=10 dy=0 dh=20 dv=0
EndChar

StartChar: Ograve
Encoding: 210 210 39
GlifName: O_grave
Width: 1497
Flags: MW
HStem: -14 205 1241 207
VStem: 106 246 1145 246
LayerCount: 2
Back
Fore
SplineSet
494 1835 m 0,0,1
 494 1864 494 1864 606.5 1864 c 128,-1,2
 719 1864 719 1864 750 1808 c 0,3,4
 763 1787 763 1787 782 1753 c 128,-1,5
 801 1719 801 1719 837.5 1656.5 c 128,-1,6
 874 1594 874 1594 874 1577 c 0,7,8
 874 1552 874 1552 804 1552 c 128,-1,9
 734 1552 734 1552 689 1601.5 c 128,-1,10
 644 1651 644 1651 583 1718.5 c 128,-1,11
 522 1786 522 1786 508 1804 c 128,-1,12
 494 1822 494 1822 494 1835 c 0,0,1
750 1448 m 128,-1,14
 1063 1448 1063 1448 1227 1262 c 128,-1,15
 1391 1076 1391 1076 1391 718.5 c 128,-1,16
 1391 361 1391 361 1226.5 173.5 c 128,-1,17
 1062 -14 1062 -14 749.5 -14 c 128,-1,18
 437 -14 437 -14 271.5 174 c 128,-1,19
 106 362 106 362 106 719 c 128,-1,20
 106 1076 106 1076 271.5 1262 c 128,-1,13
 437 1448 437 1448 750 1448 c 128,-1,14
1044 1109 m 128,-1,22
 943 1241 943 1241 748.5 1241 c 128,-1,23
 554 1241 554 1241 453 1108.5 c 128,-1,24
 352 976 352 976 352 718.5 c 128,-1,25
 352 461 352 461 453.5 325.5 c 128,-1,26
 555 190 555 190 749 190 c 128,-1,27
 943 190 943 190 1044 325.5 c 128,-1,28
 1145 461 1145 461 1145 719 c 128,-1,21
 1145 977 1145 977 1044 1109 c 128,-1,22
EndSplineSet
Position2: "'cpsp' Capital Spacing lookup 1 subtable" dx=10 dy=0 dh=20 dv=0
EndChar

StartChar: Oslash
Encoding: 216 216 40
GlifName: O_slash
Width: 1497
Flags: MW
HStem: -14 205<683 879 683 955> 1241 207<618 804>
VStem: 104 248<666 891 666 957> 1145 246<547 785>
LayerCount: 2
Back
Fore
SplineSet
748 1448 m 0,0,1
 1006 1448 1006 1448 1167 1315 c 1,2,-1
 1276 1438 l 2,3,4
 1293 1458 1293 1458 1312.5 1458 c 128,-1,5
 1332 1458 1332 1458 1356 1435.5 c 128,-1,6
 1380 1413 1380 1413 1380 1394.5 c 128,-1,7
 1380 1376 1380 1376 1364 1360 c 1,8,-1
 1249 1231 l 1,9,10
 1391 1044 1391 1044 1391 703 c 128,-1,11
 1391 362 1391 362 1225.5 174 c 128,-1,12
 1060 -14 1060 -14 754 -14 c 128,-1,13
 448 -14 448 -14 289 156 c 1,14,-1
 160 12 l 2,15,16
 141 -10 141 -10 122.5 -10 c 128,-1,17
 104 -10 104 -10 79.5 12.5 c 128,-1,18
 55 35 55 35 55 54 c 128,-1,19
 55 73 55 73 72 90 c 1,20,-1
 215 250 l 1,21,22
 104 428 104 428 104 719 c 0,23,24
 104 1076 104 1076 269.5 1262 c 128,-1,25
 435 1448 435 1448 748 1448 c 0,0,1
1014 1143 m 1,26,27
 916 1241 916 1241 735 1241 c 128,-1,28
 554 1241 554 1241 453 1108.5 c 128,-1,29
 352 976 352 976 352 719 c 0,30,31
 352 561 352 561 393 449 c 1,32,-1
 1014 1143 l 1,26,27
449 334 m 1,33,34
 550 190 550 190 746.5 190 c 128,-1,35
 943 190 943 190 1044 325.5 c 128,-1,36
 1145 461 1145 461 1145 719 c 0,37,38
 1145 914 1145 914 1081 1042 c 1,39,-1
 449 334 l 1,33,34
EndSplineSet
Position2: "'cpsp' Capital Spacing lookup 1 subtable" dx=10 dy=0 dh=20 dv=0
EndChar

StartChar: Otilde
Encoding: 213 213 41
GlifName: O_tilde
Width: 1497
Flags: MW
HStem: -14 205<619 878 619 957> 1241 207<619 878> 1563 129<877 909 877 936> 1655 129<586 610>
VStem: 106 246 1145 246
LayerCount: 2
Back
Fore
SplineSet
852 1702 m 128,-1,1
 879 1692 879 1692 897 1692 c 128,-1,2
 915 1692 915 1692 929.5 1706.5 c 128,-1,3
 944 1721 944 1721 965 1754 c 128,-1,4
 986 1787 986 1787 1000 1787 c 0,5,6
 1007 1787 1007 1787 1020 1782 c 2,7,-1
 1065 1763 l 2,8,9
 1084 1754 1084 1754 1084 1742.5 c 128,-1,10
 1084 1731 1084 1731 1077 1712 c 0,11,12
 1024 1563 1024 1563 899 1563 c 0,13,14
 833 1563 833 1563 727.5 1609 c 128,-1,15
 622 1655 622 1655 601 1655 c 0,16,17
 565.6 1655 565.6 1655 526 1589 c 0,18,19
 508 1559 508 1559 493 1559 c 0,20,21
 489 1559 489 1559 473 1565 c 2,22,-1
 428 1583 l 1,23,24
 409 1592 409 1592 409 1603.5 c 128,-1,25
 409 1615 409 1615 416 1634 c 0,26,27
 470 1784 470 1784 594 1784 c 0,28,29
 644 1784 644 1784 692.5 1766 c 128,-1,30
 741 1748 741 1748 783 1730 c 128,-1,0
 825 1712 825 1712 852 1702 c 128,-1,1
750 1448 m 128,-1,32
 1063 1448 1063 1448 1227 1262 c 128,-1,33
 1391 1076 1391 1076 1391 718.5 c 128,-1,34
 1391 361 1391 361 1226.5 173.5 c 128,-1,35
 1062 -14 1062 -14 750 -14 c 128,-1,36
 438 -14 438 -14 272.5 174 c 128,-1,37
 107 362 107 362 107 719 c 128,-1,38
 107 1076 107 1076 272 1262 c 128,-1,31
 437 1448 437 1448 750 1448 c 128,-1,32
1044 1109 m 128,-1,40
 943 1241 943 1241 748.5 1241 c 128,-1,41
 554 1241 554 1241 453 1108.5 c 128,-1,42
 352 976 352 976 352 718.5 c 128,-1,43
 352 461 352 461 453.5 325.5 c 128,-1,44
 555 190 555 190 749 190 c 128,-1,45
 943 190 943 190 1044 325.5 c 128,-1,46
 1145 461 1145 461 1145 719 c 128,-1,39
 1145 977 1145 977 1044 1109 c 128,-1,40
EndSplineSet
Position2: "'cpsp' Capital Spacing lookup 1 subtable" dx=10 dy=0 dh=20 dv=0
EndChar

StartChar: OE
Encoding: 338 338 42
GlifName: O_E_
Width: 2091
Flags: MW
HStem: -14 205 0 205 631 205<1389 1894 1389 1894> 1229 205<1389 1954 1389 1389> 1241 207
VStem: 106 246 1145 244
LayerCount: 2
Back
Fore
SplineSet
1894 836 m 2,0,1
 1944 836 1944 836 1944 756 c 2,2,-1
 1944 711 l 2,3,4
 1944 631 1944 631 1894 631 c 2,5,-1
 1389 631 l 1,6,-1
 1389 205 l 1,7,-1
 1956 205 l 2,8,9
 2005 205 2005 205 2005 125 c 2,10,-1
 2005 80 l 2,11,12
 2005 0 2005 0 1956 0 c 2,13,-1
 1221 0 l 2,14,15
 1149 0 1149 0 1149 72 c 2,16,-1
 1149 118 l 1,17,18
 995 -14 995 -14 739 -14 c 0,19,20
 431 -14 431 -14 268.5 174 c 128,-1,21
 106 362 106 362 106 719 c 128,-1,22
 106 1076 106 1076 268.5 1262 c 128,-1,23
 431 1448 431 1448 739 1448 c 0,24,25
 992 1448 992 1448 1149 1316 c 1,26,-1
 1149 1366 l 2,27,28
 1149 1434 1149 1434 1221 1434 c 2,29,-1
 1954 1434 l 2,30,31
 2003 1434 2003 1434 2003 1354 c 2,32,-1
 2003 1309 l 2,33,34
 2003 1229 2003 1229 1954 1229 c 2,35,-1
 1389 1229 l 1,36,-1
 1389 836 l 1,37,-1
 1894 836 l 2,0,1
453.5 325.5 m 128,-1,39
 555 190 555 190 749 190 c 128,-1,40
 943 190 943 190 1044 325.5 c 128,-1,41
 1145 461 1145 461 1145 719 c 128,-1,42
 1145 977 1145 977 1044 1109 c 128,-1,43
 943 1241 943 1241 748.5 1241 c 128,-1,44
 554 1241 554 1241 453 1108.5 c 128,-1,45
 352 976 352 976 352 718.5 c 128,-1,38
 352 461 352 461 453.5 325.5 c 128,-1,39
EndSplineSet
Position2: "'cpsp' Capital Spacing lookup 1 subtable" dx=10 dy=0 dh=20 dv=0
EndChar

StartChar: P
Encoding: 80 80 43
GlifName: P_
Width: 1167
Flags: MW
HStem: 578 207<399 659 659 672 399 659> 1229 205<399 399 399 643>
VStem: 160 240<49 578 784 1229> 877 246<916 1101>
LayerCount: 2
Back
Fore
SplineSet
651 1434 m 2,0,1
 1027.888 1434 1027.888 1434 1105 1150.5 c 0,2,3
 1122 1088 1122 1088 1122 1010.5 c 128,-1,4
 1122 933 1122 933 1102.5 867.5 c 128,-1,5
 1083 802 1083 802 1052 758 c 128,-1,6
 1021 714 1021 714 979 680.5 c 128,-1,7
 937 647 937 647 895.5 628 c 128,-1,8
 854 609 854 609 809 597 c 0,9,10
 737.75 578 737.75 578 672 578 c 2,11,-1
 399 578 l 1,12,-1
 399 49 l 2,13,14
 399 -4 399 -4 299 -4 c 2,15,-1
 260 -4 l 2,16,17
 160 -4 160 -4 160 49 c 2,18,-1
 160 1364 l 2,19,20
 160 1401 160 1401 176 1417.5 c 128,-1,21
 192 1434 192 1434 229 1434 c 2,22,-1
 651 1434 l 2,0,1
399 1229 m 1,23,-1
 399 784 l 1,24,-1
 659 784 l 2,25,26
 731.260869565 784 731.260869565 784 797 826 c 0,27,28
 877 877.111111111 877 877.111111111 877 1012 c 0,29,30
 877 1154.5625 877 1154.5625 769 1203.5 c 0,31,32
 712.724137931 1229 712.724137931 1229 643 1229 c 2,33,-1
 399 1229 l 1,23,-1
EndSplineSet
Substitution2: "'ss06' Style Set 6 lookup 12 subtable" eight.ss02
Substitution2: "'ss04' Style Set 4 lookup 10 subtable" P.ss04
Substitution2: "'ss01' Style Set 1 lookup 7 subtable" P.ss01
Substitution2: "'salt' Stylistic Alternatives lookup 6 subtable" P.ss01
AlternateSubs2: "'aalt' Access All Alternates lookup 1 subtable" P.ss01 P.ss04
Position2: "'cpsp' Capital Spacing lookup 1 subtable" dx=10 dy=0 dh=20 dv=0
EndChar

StartChar: Thorn
Encoding: 222 222 44
GlifName: T_horn
Width: 1161
Flags: MW
HStem: 342 205<399 664 664 678 399 399> 993 205<397 657 399 647>
VStem: 160 240<49 342 1198 1384> 881 248<681 865>
LayerCount: 2
Back
Fore
SplineSet
299 1438 m 2,0,1
 399 1438 399 1438 399 1384 c 2,2,-1
 399 1198 l 1,3,-1
 657 1198 l 2,4,5
 1033.888 1198 1033.888 1198 1111 914.5 c 0,6,7
 1128 852 1128 852 1128 774.5 c 128,-1,8
 1128 697 1128 697 1108.5 631 c 128,-1,9
 1089 565 1089 565 1058 521.5 c 128,-1,10
 1027 478 1027 478 985 444 c 128,-1,11
 943 410 943 410 901.5 391.5 c 128,-1,12
 860 373 860 373 814.5 361 c 0,13,14
 742.458333333 342 742.458333333 342 678 342 c 2,15,-1
 399 342 l 1,16,-1
 399 49 l 2,17,18
 399 -4 399 -4 299 -4 c 2,19,-1
 260 -4 l 2,20,21
 160 -4 160 -4 160 49 c 2,22,-1
 160 1384 l 2,23,24
 160 1438 160 1438 260 1438 c 2,25,-1
 299 1438 l 2,0,1
397 993 m 1,26,-1
 397 547 l 1,27,-1
 664 547 l 2,28,29
 764.75 547 764.75 547 828 613 c 0,30,31
 881 668.304347826 881 668.304347826 881 776 c 0,32,33
 881 918.5625 881 918.5625 773 967.5 c 0,34,35
 716.724137931 993 716.724137931 993 647 993 c 2,36,-1
 397 993 l 1,26,-1
EndSplineSet
Position2: "'cpsp' Capital Spacing lookup 1 subtable" dx=10 dy=0 dh=20 dv=0
EndChar

StartChar: Q
Encoding: 81 81 45
GlifName: Q_
Width: 1497
Flags: MW
HStem: 1241 207
VStem: 106 246 1145 246
LayerCount: 2
Back
Fore
SplineSet
271.5 1259.5 m 128,-1,1
 437 1448 437 1448 749.5 1448 c 128,-1,2
 1062 1448 1062 1448 1226.5 1259.5 c 128,-1,3
 1391 1071 1391 1071 1391 713 c 0,4,5
 1391 444 1391 444 1296 271.5 c 128,-1,6
 1201 99 1201 99 1020 33 c 1,7,-1
 1020 25 l 1,8,-1
 1382 -96 l 2,9,10
 1411 -106 1411 -106 1411 -133.5 c 128,-1,11
 1411 -161 1411 -161 1381 -231 c 128,-1,12
 1351 -301 1351 -301 1315 -301 c 0,13,14
 1296 -301 1296 -301 978 -174.5 c 128,-1,15
 660 -48 660 -48 592 -21.5 c 128,-1,16
 524 5 524 5 487 20 c 0,17,18
 106 171 106 171 106 713 c 0,19,0
 106 1071 106 1071 271.5 1259.5 c 128,-1,1
1042.5 1105 m 128,-1,21
 940 1241 940 1241 748.5 1241 c 128,-1,22
 557 1241 557 1241 454.5 1105.5 c 128,-1,23
 352 970 352 970 352 713 c 128,-1,24
 352 456 352 456 454.5 320 c 128,-1,25
 557 184 557 184 748.5 184 c 128,-1,26
 940 184 940 184 1042.5 320.5 c 128,-1,27
 1145 457 1145 457 1145 713 c 128,-1,20
 1145 969 1145 969 1042.5 1105 c 128,-1,21
EndSplineSet
Substitution2: "'ss06' Style Set 6 lookup 12 subtable" one.ss03
Substitution2: "'ss01' Style Set 1 lookup 7 subtable" Q.ss01
Substitution2: "'salt' Stylistic Alternatives lookup 6 subtable" Q.ss01
Substitution2: "'aalt' Access All Alternates lookup 0 subtable" Q.ss01
Position2: "'cpsp' Capital Spacing lookup 1 subtable" dx=10 dy=0 dh=20 dv=0
EndChar

StartChar: R
Encoding: 82 82 46
GlifName: R_
Width: 1249
Flags: MW
HStem: 600 207<414 553 414 651> 1229 205<414 414 414 612 612 637>
VStem: 174 240<49 600 807 1229> 868 246<977 1094>
LayerCount: 2
Back
Fore
SplineSet
612 1434 m 2,0,1
 865 1434 865 1434 989.5 1342.5 c 128,-1,2
 1114 1251 1114 1251 1114 1061 c 0,3,4
 1114 939 1114 939 1050.5 853.5 c 128,-1,5
 987 768 987 768 877 725 c 1,6,-1
 877 717 l 1,7,8
 969 682 969 682 1044 489 c 1,9,-1
 1212 66 l 2,10,11
 1221 45 1221 45 1221 33 c 0,12,13
 1221 -4 1221 -4 1118 -4 c 2,14,-1
 1071 -4 l 2,15,16
 988 -4 988 -4 973 33 c 2,17,-1
 815 434 l 1,18,19
 775 528 775 528 719 564 c 128,-1,20
 663 600 663 600 553 600 c 2,21,-1
 414 600 l 1,22,-1
 414 49 l 2,23,24
 414 -4 414 -4 313 -4 c 2,25,-1
 274 -4 l 2,26,27
 174 -4 174 -4 174 49 c 2,28,-1
 174 1364 l 2,29,30
 174 1401 174 1401 190.5 1417.5 c 128,-1,31
 207 1434 207 1434 244 1434 c 2,32,-1
 612 1434 l 2,0,1
414 1229 m 1,33,-1
 414 807 l 1,34,-1
 651 807 l 2,35,36
 740 807 740 807 804 872 c 128,-1,37
 868 937 868 937 868 1031 c 0,38,39
 868 1125 868 1125 806 1177 c 128,-1,40
 744 1229 744 1229 637 1229 c 2,41,-1
 414 1229 l 1,33,-1
EndSplineSet
Substitution2: "'ss06' Style Set 6 lookup 12 subtable" two.ss03
Substitution2: "'ss01' Style Set 1 lookup 7 subtable" R.ss01
Substitution2: "'salt' Stylistic Alternatives lookup 6 subtable" R.ss01
Substitution2: "'aalt' Access All Alternates lookup 0 subtable" R.ss01
Position2: "'cpsp' Capital Spacing lookup 1 subtable" dx=10 dy=0 dh=20 dv=0
EndChar

StartChar: S
Encoding: 83 83 47
GlifName: S_
Width: 1024
Flags: MW
HStem: -14 205<419 550 419 637> 1241 207
VStem: 88 248<998 1113 998 1180> 723 246
LayerCount: 2
Back
Fore
SplineSet
557 1448 m 0,0,1
 682 1448 682 1448 792.5 1407.5 c 128,-1,2
 903 1367 903 1367 903 1315 c 0,3,4
 903 1282 903 1282 872 1229 c 128,-1,5
 841 1176 841 1176 817 1176 c 0,6,7
 809 1176 809 1176 779 1190 c 0,8,9
 672 1241 672 1241 563 1241 c 128,-1,10
 454 1241 454 1241 395 1191.5 c 128,-1,11
 336 1142 336 1142 336 1061 c 0,12,13
 336 996.083333333 336 996.083333333 361.5 967.041666667 c 128,-1,14
 387 938 387 938 403 923.5 c 128,-1,15
 419 909 419 909 452 893 c 0,16,17
 542.391304348 849.173913043 542.391304348 849.173913043 563.695652174 843.086956522 c 128,-1,18
 585 837 585 837 588 836 c 0,19,20
 738 776 738 776 804 731 c 0,21,22
 968 615 968 615 969 406 c 0,23,24
 969 195.464566929 969 195.464566929 834.5 88.5 c 0,25,26
 705.613861386 -14 705.613861386 -14 510 -14 c 0,27,28
 315.333333333 -14 315.333333333 -14 183.5 45.5 c 0,29,30
 61 100.787610619 61 100.787610619 61 150 c 0,31,32
 61 184 61 184 97.5 237.5 c 128,-1,33
 134 291 134 291 158 291 c 0,34,35
 166 291 166 291 205.5 269.5 c 128,-1,36
 245 248 245 248 272.5 235.5 c 128,-1,37
 300 223 300 223 362.5 206.5 c 128,-1,38
 425 190 425 190 506 190 c 128,-1,39
 587 190 587 190 655 242 c 128,-1,40
 723 294 723 294 723 389 c 0,41,42
 723 494.188235294 723 494.188235294 608.5 557.5 c 0,43,44
 553.193500739 588.081240768 553.193500739 588.081240768 502.096750369 609.040620384 c 128,-1,45
 451 630 451 630 435 637 c 128,-1,46
 419 644 419 644 385 658 c 128,-1,47
 351 672 351 672 314 691 c 128,-1,48
 277 710 277 710 229 745 c 128,-1,49
 181 780 181 780 154 818.5 c 0,50,51
 88 912.611111111 88 912.611111111 88 1053 c 0,52,53
 88 1237 88 1237 221 1342.5 c 128,-1,54
 354 1448 354 1448 557 1448 c 0,0,1
EndSplineSet
Substitution2: "'ss06' Style Set 6 lookup 12 subtable" three.ss03
Substitution2: "'ss01' Style Set 1 lookup 7 subtable" S.ss01
Substitution2: "'salt' Stylistic Alternatives lookup 6 subtable" S.ss01
Substitution2: "'aalt' Access All Alternates lookup 0 subtable" S.ss01
Position2: "'cpsp' Capital Spacing lookup 1 subtable" dx=10 dy=0 dh=20 dv=0
EndChar

StartChar: Scaron
Encoding: 352 352 48
GlifName: S_caron
Width: 1024
Flags: MW
HStem: -14 205<419 550 419 637> 1241 207 1546 293<295 492 295 530>
VStem: 88 248<998 1113 998 1180> 723 246
LayerCount: 2
Back
Fore
SplineSet
729 1839 m 2,0,1
 774 1839 774 1839 774 1815 c 0,2,3
 774 1798 774 1798 762 1780 c 2,4,-1
 639 1587 l 1,5,6
 610 1546 610 1546 530 1546 c 2,7,-1
 492 1546 l 2,8,9
 410 1546 410 1546 385 1587 c 2,10,-1
 262 1780 l 1,11,12
 250 1801 250 1801 250 1815 c 0,13,14
 250 1839 250 1839 295 1839 c 2,15,-1
 315 1839 l 2,16,17
 384 1839 384 1839 416 1802 c 1,18,-1
 510 1681 l 1,19,-1
 608 1804 l 1,20,21
 638 1839 638 1839 707 1839 c 2,22,-1
 729 1839 l 2,0,1
557 1448 m 0,23,24
 682 1448 682 1448 792.5 1407.5 c 128,-1,25
 903 1367 903 1367 903 1315 c 0,26,27
 903 1282 903 1282 872 1229 c 128,-1,28
 841 1176 841 1176 817 1176 c 0,29,30
 809 1176 809 1176 779 1190 c 0,31,32
 672 1241 672 1241 563 1241 c 128,-1,33
 454 1241 454 1241 395 1191.5 c 128,-1,34
 336 1142 336 1142 336 1061 c 0,35,36
 336 996.083333333 336 996.083333333 361.5 967.041666667 c 128,-1,37
 387 938 387 938 403 923.5 c 128,-1,38
 419 909 419 909 452 893 c 0,39,40
 542.391304348 849.173913043 542.391304348 849.173913043 563.695652174 843.086956522 c 128,-1,41
 585 837 585 837 588 836 c 0,42,43
 738 776 738 776 804 731 c 0,44,45
 968 615 968 615 969 406 c 0,46,47
 969 195.464566929 969 195.464566929 834.5 88.5 c 0,48,49
 705.613861386 -14 705.613861386 -14 510 -14 c 0,50,51
 315.333333333 -14 315.333333333 -14 183.5 45.5 c 0,52,53
 61 100.787610619 61 100.787610619 61 150 c 0,54,55
 61 184 61 184 97.5 237.5 c 128,-1,56
 134 291 134 291 158 291 c 0,57,58
 166 291 166 291 205.5 269.5 c 128,-1,59
 245 248 245 248 272.5 235.5 c 128,-1,60
 300 223 300 223 362.5 206.5 c 128,-1,61
 425 190 425 190 506 190 c 128,-1,62
 587 190 587 190 655 242 c 128,-1,63
 723 294 723 294 723 389 c 0,64,65
 723 494.188235294 723 494.188235294 608.5 557.5 c 0,66,67
 553.193500739 588.081240768 553.193500739 588.081240768 502.096750369 609.040620384 c 128,-1,68
 451 630 451 630 435 637 c 128,-1,69
 419 644 419 644 385 658 c 128,-1,70
 351 672 351 672 314 691 c 128,-1,71
 277 710 277 710 229 745 c 128,-1,72
 181 780 181 780 154 818.5 c 0,73,74
 88 912.611111111 88 912.611111111 88 1053 c 0,75,76
 88 1237 88 1237 221 1342.5 c 128,-1,77
 354 1448 354 1448 557 1448 c 0,23,24
EndSplineSet
Position2: "'cpsp' Capital Spacing lookup 1 subtable" dx=10 dy=0 dh=20 dv=0
EndChar

StartChar: T
Encoding: 84 84 49
GlifName: T_
Width: 1124
Flags: MW
HStem: 1229 205<62 1044 80 444 684 1044 684 684>
VStem: 444 240<49 1229>
LayerCount: 2
Back
Fore
SplineSet
1044 1434 m 2,0,1
 1094 1434 1094 1434 1094 1354 c 2,2,-1
 1094 1309 l 2,3,4
 1094 1229 1094 1229 1044 1229 c 2,5,-1
 684 1229 l 1,6,-1
 684 49 l 2,7,8
 684 -4 684 -4 584 -4 c 2,9,-1
 545 -4 l 2,10,11
 444 -4 444 -4 444 49 c 2,12,-1
 444 1229 l 1,13,-1
 80 1229 l 2,14,15
 31 1229 31 1229 31 1309 c 2,16,-1
 31 1354 l 2,17,18
 31 1434 31 1434 80 1434 c 2,19,-1
 1044 1434 l 2,0,1
EndSplineSet
Substitution2: "'ss06' Style Set 6 lookup 12 subtable" four.ss03
Substitution2: "'ss01' Style Set 1 lookup 7 subtable" T.ss01
Substitution2: "'salt' Stylistic Alternatives lookup 6 subtable" T.ss01
Substitution2: "'aalt' Access All Alternates lookup 0 subtable" T.ss01
Position2: "'cpsp' Capital Spacing lookup 1 subtable" dx=10 dy=0 dh=20 dv=0
EndChar

StartChar: U
Encoding: 85 85 50
GlifName: U_
Width: 1458
Flags: MW
HStem: -14 205<632 827 632 912>
VStem: 156 240<467 473 473 1384> 1065 240<473 1384>
LayerCount: 2
Back
Fore
SplineSet
1204 1438 m 2,0,1
 1305 1438 1305 1438 1305 1384 c 2,2,-1
 1305 467 l 2,3,4
 1305 239 1305 239 1154 112.5 c 128,-1,5
 1003 -14 1003 -14 729 -14 c 128,-1,6
 455 -14 455 -14 305.5 112.5 c 128,-1,7
 156 239 156 239 156 467 c 2,8,-1
 156 1384 l 2,9,10
 156 1438 156 1438 256 1438 c 2,11,-1
 295 1438 l 2,12,13
 395 1438 395 1438 395 1384 c 2,14,-1
 395 473 l 2,15,16
 395 349 395 349 489 269.5 c 128,-1,17
 583 190 583 190 729.5 190 c 0,18,19
 876 190 876 190 970.5 270 c 128,-1,20
 1065 350 1065 350 1065 473 c 2,21,-1
 1065 1384 l 2,22,23
 1065 1438 1065 1438 1165 1438 c 2,24,-1
 1204 1438 l 2,0,1
EndSplineSet
Substitution2: "'ss06' Style Set 6 lookup 12 subtable" five.ss03
Substitution2: "'ss01' Style Set 1 lookup 7 subtable" U.ss01
Substitution2: "'salt' Stylistic Alternatives lookup 6 subtable" U.ss01
Substitution2: "'aalt' Access All Alternates lookup 0 subtable" U.ss01
Position2: "'cpsp' Capital Spacing lookup 1 subtable" dx=10 dy=0 dh=20 dv=0
EndChar

StartChar: Uacute
Encoding: 218 218 51
GlifName: U_acute
Width: 1458
Flags: MW
HStem: -14 205
VStem: 156 240 1065 240
LayerCount: 2
Back
Fore
SplineSet
893 1864 m 0,0,1
 951 1864 951 1864 976 1858 c 128,-1,2
 1001 1852 1001 1852 1001 1837 c 128,-1,3
 1001 1822 1001 1822 985 1802 c 0,4,5
 945.571428571 1752.71428571 945.571428571 1752.71428571 801 1595 c 0,6,7
 761 1552 761 1552 691 1552 c 128,-1,8
 621 1552 621 1552 621 1577 c 0,9,10
 621 1594 621 1594 657.5 1656.5 c 0,11,12
 700.636363636 1730.36363636 700.636363636 1730.36363636 745 1808 c 0,13,14
 776 1864 776 1864 893 1864 c 0,0,1
1204 1438 m 2,15,16
 1305 1438 1305 1438 1305 1384 c 2,17,-1
 1305 467 l 2,18,19
 1305 239 1305 239 1154 112.5 c 128,-1,20
 1003 -14 1003 -14 729 -14 c 128,-1,21
 455 -14 455 -14 305.5 112.5 c 128,-1,22
 156 239 156 239 156 467 c 2,23,-1
 156 1384 l 2,24,25
 156 1438 156 1438 256 1438 c 2,26,-1
 295 1438 l 2,27,28
 395 1438 395 1438 395 1384 c 2,29,-1
 395 473 l 2,30,31
 395 349 395 349 489 269.5 c 128,-1,32
 583 190 583 190 729.5 190 c 128,-1,33
 876 190 876 190 970.5 270 c 128,-1,34
 1065 350 1065 350 1065 473 c 2,35,-1
 1065 1384 l 2,36,37
 1065 1438 1065 1438 1165 1438 c 2,38,-1
 1204 1438 l 2,15,16
EndSplineSet
Position2: "'cpsp' Capital Spacing lookup 1 subtable" dx=10 dy=0 dh=20 dv=0
EndChar

StartChar: Ucircumflex
Encoding: 219 219 52
GlifName: U_circumflex
Width: 1458
Flags: MW
HStem: -14 205<632 827 632 912> 1538 295<497 748 512 748 709 924 709 946>
VStem: 156 240<467 473 473 1384> 1065 240<473 1384>
LayerCount: 2
Back
Fore
SplineSet
748 1833 m 2,0,1
 828 1833 828 1833 856 1790 c 2,2,-1
 979 1597 l 2,3,4
 991 1579 991 1579 991 1565 c 0,5,6
 991 1538 991 1538 946 1538 c 2,7,-1
 924 1538 l 2,8,9
 857 1538 857 1538 825 1575 c 1,10,-1
 727 1696 l 1,11,-1
 633 1575 l 1,12,13
 601 1538 601 1538 532 1538 c 2,14,-1
 512 1538 l 2,15,16
 467 1538 467 1538 467 1565 c 0,17,18
 467 1579 467 1579 479 1597 c 2,19,-1
 602 1790 l 1,20,21
 627 1833 627 1833 709 1833 c 2,22,-1
 748 1833 l 2,0,1
1204 1438 m 2,23,24
 1305 1438 1305 1438 1305 1384 c 2,25,-1
 1305 467 l 2,26,27
 1305 239 1305 239 1154 112.5 c 128,-1,28
 1003 -14 1003 -14 729 -14 c 128,-1,29
 455 -14 455 -14 305.5 112.5 c 128,-1,30
 156 239 156 239 156 467 c 2,31,-1
 156 1384 l 2,32,33
 156 1438 156 1438 256 1438 c 2,34,-1
 295 1438 l 2,35,36
 395 1438 395 1438 395 1384 c 2,37,-1
 395 473 l 2,38,39
 395 349 395 349 489 269.5 c 128,-1,40
 583 190 583 190 729.5 190 c 0,41,42
 876 190 876 190 970.5 270 c 128,-1,43
 1065 350 1065 350 1065 473 c 2,44,-1
 1065 1384 l 2,45,46
 1065 1438 1065 1438 1165 1438 c 2,47,-1
 1204 1438 l 2,23,24
EndSplineSet
Position2: "'cpsp' Capital Spacing lookup 1 subtable" dx=10 dy=0 dh=20 dv=0
EndChar

StartChar: Udieresis
Encoding: 220 220 53
GlifName: U_dieresis
Width: 1458
Flags: MW
HStem: -14 205<632 827 632 912> 1579 221<530 600 858 928>
VStem: 156 240<467 473 473 1384> 463 205<1634 1747 1617 1763> 791 205<1634 1747 1617 1763> 1065 240<473 1384>
LayerCount: 2
Back
Fore
SplineSet
463 1747 m 2,0,1
 463 1800 463 1800 565.5 1800 c 128,-1,2
 668 1800 668 1800 668 1747 c 2,3,-1
 668 1634 l 2,4,5
 668 1579 668 1579 565.5 1579 c 128,-1,6
 463 1579 463 1579 463 1634 c 2,7,-1
 463 1747 l 2,0,1
791 1747 m 2,8,9
 791 1800 791 1800 893 1800 c 128,-1,10
 995 1800 995 1800 995 1747 c 2,11,-1
 995 1634 l 2,12,13
 995 1579 995 1579 893 1579 c 128,-1,14
 791 1579 791 1579 791 1634 c 2,15,-1
 791 1747 l 2,8,9
1204 1438 m 2,16,17
 1305 1438 1305 1438 1305 1384 c 2,18,-1
 1305 467 l 2,19,20
 1305 239 1305 239 1154 112.5 c 128,-1,21
 1003 -14 1003 -14 729 -14 c 128,-1,22
 455 -14 455 -14 305.5 112.5 c 128,-1,23
 156 239 156 239 156 467 c 2,24,-1
 156 1384 l 2,25,26
 156 1438 156 1438 256 1438 c 2,27,-1
 295 1438 l 2,28,29
 395 1438 395 1438 395 1384 c 2,30,-1
 395 473 l 2,31,32
 395 349 395 349 489 269.5 c 128,-1,33
 583 190 583 190 729.5 190 c 128,-1,34
 876 190 876 190 970.5 270 c 128,-1,35
 1065 350 1065 350 1065 473 c 2,36,-1
 1065 1384 l 2,37,38
 1065 1438 1065 1438 1165 1438 c 2,39,-1
 1204 1438 l 2,16,17
EndSplineSet
Position2: "'cpsp' Capital Spacing lookup 1 subtable" dx=10 dy=0 dh=20 dv=0
EndChar

StartChar: Ugrave
Encoding: 217 217 54
GlifName: U_grave
Width: 1458
Flags: MW
HStem: -14 205
VStem: 156 240 1065 240
LayerCount: 2
Back
Fore
SplineSet
473 1835 m 0,0,1
 473 1864 473 1864 585.5 1864 c 128,-1,2
 698 1864 698 1864 729 1808 c 0,3,4
 777.388888889 1729.83333333 777.388888889 1729.83333333 782 1716 c 0,5,6
 854 1592.11764706 854 1592.11764706 854 1577 c 0,7,8
 854 1552 854 1552 784 1552 c 128,-1,9
 714 1552 714 1552 669 1601.5 c 128,-1,10
 624 1651 624 1651 562 1719.5 c 128,-1,11
 500 1788 500 1788 486.5 1805.5 c 128,-1,12
 473 1823 473 1823 473 1835 c 0,0,1
1204 1438 m 2,13,14
 1305 1438 1305 1438 1305 1384 c 2,15,-1
 1305 467 l 2,16,17
 1305 239 1305 239 1154 112.5 c 128,-1,18
 1003 -14 1003 -14 729 -14 c 128,-1,19
 455 -14 455 -14 305.5 112.5 c 128,-1,20
 156 239 156 239 156 467 c 2,21,-1
 156 1384 l 2,22,23
 156 1438 156 1438 256 1438 c 2,24,-1
 295 1438 l 2,25,26
 395 1438 395 1438 395 1384 c 2,27,-1
 395 473 l 2,28,29
 395 349 395 349 489 269.5 c 128,-1,30
 583 190 583 190 729.5 190 c 128,-1,31
 876 190 876 190 970.5 270 c 128,-1,32
 1065 350 1065 350 1065 473 c 2,33,-1
 1065 1384 l 2,34,35
 1065 1438 1065 1438 1165 1438 c 2,36,-1
 1204 1438 l 2,13,14
EndSplineSet
Position2: "'cpsp' Capital Spacing lookup 1 subtable" dx=10 dy=0 dh=20 dv=0
EndChar

StartChar: V
Encoding: 86 86 55
GlifName: V_
Width: 1263
Flags: MW
HStem: -4 303<565 635 627 635 627 672> -4 1442<133 590 133 672>
VStem: 29 1202<1394 1411>
LayerCount: 2
Back
Fore
SplineSet
1128 1438 m 2,0,1
 1231 1438 1231 1438 1231 1399 c 0,2,3
 1231 1387 1231 1387 1225 1366 c 1,4,-1
 768 33 l 2,5,6
 755 -4 755 -4 672 -4 c 2,7,-1
 590 -4 l 2,8,9
 504 -4 504 -4 494 33 c 1,10,-1
 35 1368 l 2,11,12
 29 1386 29 1386 29 1399 c 0,13,14
 29 1438 29 1438 133 1438 c 2,15,-1
 172 1438 l 2,16,17
 257 1438 257 1438 272 1393 c 2,18,-1
 606 389 l 1,19,-1
 627 299 l 1,20,-1
 635 299 l 1,21,-1
 657 391 l 1,22,-1
 995 1393 l 1,23,24
 1009 1438 1009 1438 1094 1438 c 2,25,-1
 1128 1438 l 2,0,1
EndSplineSet
Substitution2: "'ss06' Style Set 6 lookup 12 subtable" six.ss03
Position2: "'cpsp' Capital Spacing lookup 1 subtable" dx=10 dy=0 dh=20 dv=0
EndChar

StartChar: W
Encoding: 87 87 56
GlifName: W_
Width: 1806
Flags: MW
HStem: -4 1442
VStem: 14 1780
LayerCount: 2
Back
Fore
SplineSet
1688 1438 m 2,0,1
 1794 1438 1794 1438 1794 1395 c 0,2,3
 1794 1390 1794 1390 1788 1366 c 2,4,-1
 1442 33 l 1,5,6
 1434 -4 1434 -4 1348 -4 c 2,7,-1
 1235 -4 l 2,8,9
 1147 -4 1147 -4 1139 33 c 1,10,-1
 940 813 l 1,11,-1
 901 1024 l 1,12,-1
 862 813 l 1,13,-1
 661 33 l 1,14,15
 650 -4 650 -4 565 -4 c 2,16,-1
 453 -4 l 2,17,18
 366 -4 366 -4 358 33 c 1,19,-1
 20 1366 l 1,20,21
 14 1381 14 1381 14 1395 c 0,22,23
 14 1438 14 1438 119 1438 c 2,24,-1
 154 1438 l 2,25,26
 249 1438 249 1438 260 1391 c 2,27,-1
 473 537 l 1,28,29
 488 482 488 482 503 398.5 c 128,-1,30
 518 315 518 315 522 299 c 1,31,32
 536.944444444 376.021367521 536.944444444 376.021367521 556.972222222 451.510683761 c 128,-1,33
 577 527 577 527 580 539 c 2,34,-1
 793 1399 l 2,35,36
 803 1438 803 1438 887 1438 c 2,37,-1
 940 1438 l 2,38,39
 1026 1438 1026 1438 1034 1399 c 1,40,-1
 1247 535 l 2,41,42
 1256 499 1256 499 1273 414.5 c 128,-1,43
 1290 330 1290 330 1298 293 c 1,44,45
 1305 324 1305 324 1326 411 c 128,-1,46
 1347 498 1347 498 1356 539 c 1,47,-1
 1565 1391 l 2,48,49
 1576 1438 1576 1438 1671 1438 c 2,50,-1
 1688 1438 l 2,0,1
EndSplineSet
Substitution2: "'ss06' Style Set 6 lookup 12 subtable" seven.ss03
Position2: "'cpsp' Capital Spacing lookup 1 subtable" dx=10 dy=0 dh=20 dv=0
EndChar

StartChar: X
Encoding: 88 88 57
GlifName: X_
Width: 1251
Flags: MW
HStem: -4 1442<101 242 139 242 1035 1061 1061 1075 1075 1114>
VStem: 31 1192<20 38>
LayerCount: 2
Back
Fore
SplineSet
1075 1438 m 2,0,1
 1186 1438 1186 1438 1186 1401 c 0,2,3
 1186 1388 1186 1388 1167 1358 c 2,4,-1
 768 752 l 1,5,-1
 1206 76 l 2,6,7
 1223 49 1223 49 1223 33 c 0,8,9
 1223 -4 1223 -4 1114 -4 c 2,10,-1
 1061 -4 l 2,11,12
 978 -4 978 -4 956 31 c 2,13,-1
 625 541 l 1,14,-1
 287 29 l 1,15,16
 267 -4 267 -4 184 -4 c 2,17,-1
 139 -4 l 2,18,19
 31 -4 31 -4 31 33 c 0,20,21
 31 49 31 49 49 76 c 2,22,-1
 492 748 l 1,23,-1
 96 1358 l 2,24,25
 80 1384 80 1384 80 1401 c 0,26,27
 80 1438 80 1438 188 1438 c 2,28,-1
 242 1438 l 2,29,30
 324 1438 324 1438 346 1403 c 2,31,-1
 633 958 l 1,32,-1
 930 1405 l 2,33,34
 952 1438 952 1438 1034 1438 c 2,35,-1
 1075 1438 l 2,0,1
EndSplineSet
Substitution2: "'ss06' Style Set 6 lookup 12 subtable" eight.ss03
Substitution2: "'ss05' Style Set 5 lookup 11 subtable" X.ss05
Substitution2: "'aalt' Access All Alternates lookup 0 subtable" X.ss05
Position2: "'cpsp' Capital Spacing lookup 1 subtable" dx=10 dy=0 dh=20 dv=0
EndChar

StartChar: Y
Encoding: 89 89 58
GlifName: Y_
Width: 1144
Flags: MW
HStem: -4 1442<127 553 127 594>
VStem: 455 238<49 709>
LayerCount: 2
Back
Fore
SplineSet
1028 1438 m 1,0,1
 1130 1435 1130 1435 1130 1401 c 0,2,3
 1130 1390 1130 1390 1114 1358 c 1,4,-1
 692 709 l 1,5,-1
 692 49 l 2,6,7
 692 -4 692 -4 594 -4 c 2,8,-1
 553 -4 l 2,9,10
 455 -4 455 -4 455 49 c 2,11,-1
 455 715 l 1,12,-1
 35 1358 l 1,13,14
 16 1383 16 1383 16 1401 c 0,15,16
 16 1438 16 1438 127 1438 c 2,17,-1
 178 1438 l 2,18,19
 262 1438 262 1438 281 1403 c 1,20,-1
 580 928 l 1,21,-1
 883 1405 l 2,22,23
 903 1438 903 1438 989 1438 c 2,24,-1
 1028 1438 l 1,0,1
EndSplineSet
Position2: "'cpsp' Capital Spacing lookup 1 subtable" dx=10 dy=0 dh=20 dv=0
EndChar

StartChar: Yacute
Encoding: 221 221 59
GlifName: Y_acute
Width: 1144
Flags: MW
HStem: -4 1868
VStem: 455 238
LayerCount: 2
Back
Fore
SplineSet
737 1864 m 0,0,1
 795 1864 795 1864 820.5 1858 c 128,-1,2
 846 1852 846 1852 846 1837 c 128,-1,3
 846 1822 846 1822 831 1803.5 c 0,4,5
 791.744680851 1755.08510638 791.744680851 1755.08510638 645 1595 c 0,6,7
 605 1552 605 1552 535 1552 c 128,-1,8
 465 1552 465 1552 465 1577 c 0,9,10
 465 1597.62162162 465 1597.62162162 523 1694.81081081 c 128,-1,11
 581 1792 581 1792 590 1808 c 0,12,13
 621 1864 621 1864 737 1864 c 0,0,1
1028 1438 m 1,14,15
 1131 1435 1131 1435 1131 1401 c 0,16,17
 1131 1392 1131 1392 1114 1358 c 1,18,-1
 692 709 l 1,19,-1
 692 49 l 2,20,21
 692 -4 692 -4 594 -4 c 2,22,-1
 553 -4 l 2,23,24
 455 -4 455 -4 455 49 c 2,25,-1
 455 715 l 1,26,-1
 35 1358 l 1,27,28
 16 1383 16 1383 16 1401 c 0,29,30
 16 1438 16 1438 127 1438 c 2,31,-1
 178 1438 l 2,32,33
 262 1438 262 1438 281 1403 c 1,34,-1
 580 928 l 1,35,-1
 883 1405 l 2,36,37
 903 1438 903 1438 989 1438 c 2,38,-1
 1028 1438 l 1,14,15
EndSplineSet
Position2: "'cpsp' Capital Spacing lookup 1 subtable" dx=10 dy=0 dh=20 dv=0
EndChar

StartChar: Ydieresis
Encoding: 376 376 60
GlifName: Y_dieresis
Width: 1144
Flags: MW
HStem: 1579 221<375 444 702 772>
VStem: 307 205<1634 1747 1617 1763> 455 238<49 709> 635 205<1634 1747 1617 1763>
LayerCount: 2
Back
Fore
SplineSet
307 1747 m 2,0,1
 307 1800 307 1800 409.5 1800 c 128,-1,2
 512 1800 512 1800 512 1747 c 2,3,-1
 512 1634 l 2,4,5
 512 1579 512 1579 409.5 1579 c 128,-1,6
 307 1579 307 1579 307 1634 c 2,7,-1
 307 1747 l 2,0,1
635 1747 m 2,8,9
 635 1800 635 1800 737.5 1800 c 128,-1,10
 840 1800 840 1800 840 1747 c 2,11,-1
 840 1634 l 2,12,13
 840 1579 840 1579 737.5 1579 c 128,-1,14
 635 1579 635 1579 635 1634 c 2,15,-1
 635 1747 l 2,8,9
1028 1438 m 1,16,17
 1130 1435 1130 1435 1130 1401 c 0,18,19
 1130 1390 1130 1390 1114 1358 c 1,20,-1
 692 709 l 1,21,-1
 692 49 l 2,22,23
 692 -4 692 -4 594 -4 c 2,24,-1
 553 -4 l 2,25,26
 455 -4 455 -4 455 49 c 2,27,-1
 455 715 l 1,28,-1
 35 1358 l 1,29,30
 16 1383 16 1383 16 1401 c 0,31,32
 16 1438 16 1438 127 1438 c 2,33,-1
 178 1438 l 2,34,35
 262 1438 262 1438 281 1403 c 1,36,-1
 580 928 l 1,37,-1
 883 1405 l 2,38,39
 903 1438 903 1438 989 1438 c 2,40,-1
 1028 1438 l 1,16,17
EndSplineSet
Position2: "'cpsp' Capital Spacing lookup 1 subtable" dx=10 dy=0 dh=20 dv=0
EndChar

StartChar: Z
Encoding: 90 90 61
GlifName: Z_
Width: 1261
Flags: MW
HStem: 0 205<401 1124 401 1124> 1229 205<165 1118 182 846>
VStem: 68 1110
LayerCount: 2
Back
Fore
SplineSet
1118 1434 m 2,0,1
 1135 1434 1135 1434 1156.5 1380.5 c 128,-1,2
 1178 1327 1178 1327 1178 1302.5 c 0,3,4
 1178 1278 1178 1278 1174 1270 c 1,5,-1
 401 205 l 1,6,-1
 1124 205 l 2,7,8
 1176 205 1176 205 1176 121 c 2,9,-1
 1176 84 l 2,10,11
 1176 0 1176 0 1124 0 c 2,12,-1
 131 0 l 2,13,14
 110 0 110 0 89 51.5 c 128,-1,15
 68 103 68 103 68 129 c 0,16,17
 68 155 68 155 74 164 c 2,18,-1
 846 1229 l 1,19,-1
 182 1229 l 2,20,21
 131 1229 131 1229 131 1313 c 2,22,-1
 131 1350 l 2,23,24
 131 1434 131 1434 182 1434 c 2,25,-1
 1118 1434 l 2,0,1
EndSplineSet
Position2: "'cpsp' Capital Spacing lookup 1 subtable" dx=10 dy=0 dh=20 dv=0
EndChar

StartChar: Zcaron
Encoding: 381 381 62
GlifName: Z_caron
Width: 1261
Flags: MW
HStem: 0 205<401 1124 401 1124> 1229 205<165 1118 182 846> 1546 293<414 610 414 649>
VStem: 68 1110
LayerCount: 2
Back
Fore
SplineSet
848 1839 m 2,0,1
 893 1839 893 1839 893 1815 c 0,2,3
 893 1798 893 1798 881 1780 c 2,4,-1
 758 1587 l 1,5,6
 729 1546 729 1546 649 1546 c 2,7,-1
 610 1546 l 2,8,9
 529 1546 529 1546 504 1587 c 2,10,-1
 381 1780 l 1,11,12
 369 1801 369 1801 369 1815 c 0,13,14
 369 1839 369 1839 414 1839 c 2,15,-1
 434 1839 l 2,16,17
 503 1839 503 1839 535 1802 c 1,18,-1
 629 1681 l 1,19,-1
 727 1804 l 1,20,21
 757 1839 757 1839 825 1839 c 2,22,-1
 848 1839 l 2,0,1
1118 1434 m 2,23,24
 1135 1434 1135 1434 1156.5 1380.5 c 128,-1,25
 1178 1327 1178 1327 1178 1302.5 c 0,26,27
 1178 1278 1178 1278 1174 1270 c 1,28,-1
 401 205 l 1,29,-1
 1124 205 l 2,30,31
 1176 205 1176 205 1176 121 c 2,32,-1
 1176 84 l 2,33,34
 1176 0 1176 0 1124 0 c 2,35,-1
 131 0 l 2,36,37
 110 0 110 0 89 51.5 c 128,-1,38
 68 103 68 103 68 129 c 0,39,40
 68 155 68 155 74 164 c 2,41,-1
 846 1229 l 1,42,-1
 182 1229 l 2,43,44
 131 1229 131 1229 131 1313 c 2,45,-1
 131 1350 l 2,46,47
 131 1434 131 1434 182 1434 c 2,48,-1
 1118 1434 l 2,23,24
EndSplineSet
Position2: "'cpsp' Capital Spacing lookup 1 subtable" dx=10 dy=0 dh=20 dv=0
EndChar

StartChar: E.ss04.alt
Encoding: 65537 -1 63
GlifName: E_.ss04.alt
Width: 1433
Flags: MW
HStem: -12 47 -0 326 49 82 145 47 209 82 289 76 326 70 362 80 395 70 463 80 465 57 664 80 676 53 1067 53
VStem: 27 139<676 676 676 729> 197 100<35 487 487 497> 373 106<319 331 388 400 459 470> 522 37<319 331 388 400 459 470> 639 78 862 29<278 278> 897 158<39 57 50 140> 1104 41 1352 82<585 619>
LayerCount: 2
Back
Fore
SplineSet
639 1120 m 2,0,1
 668 1120 668 1120 668 1143 c 2,2,-1
 668 1151 l 1,3,4
 671.47318612 1192.67823344 671.47318612 1192.67823344 691.73659306 1214.33911672 c 128,-1,5
 712 1236 712 1236 731.5 1251 c 128,-1,6
 751 1266 751 1266 760 1274 c 128,-1,7
 769 1282 769 1282 772.5 1285 c 0,8,9
 825 1330 825 1330 825 1398 c 128,-1,10
 825 1466 825 1466 780 1505 c 0,11,12
 732 1544 732 1544 660.5 1544 c 128,-1,13
 589 1544 589 1544 555.5 1530.5 c 0,14,15
 473 1497.25373134 473 1497.25373134 473 1466 c 0,16,17
 473 1448 473 1448 490 1425.5 c 128,-1,18
 507 1403 507 1403 522 1403 c 1,19,20
 537 1409 537 1409 564 1420 c 1,21,-1
 564 1421 l 1,22,23
 567 1423 567 1423 572.5 1424.5 c 128,-1,24
 578 1426 578 1426 597.5 1433 c 128,-1,25
 617 1440 617 1440 643 1440 c 0,26,27
 700 1440 700 1440 700 1395 c 0,28,29
 700 1362 700 1362 631 1293 c 2,30,-1
 616 1278 l 1,31,32
 563 1220 563 1220 563 1145 c 0,33,34
 563 1120 563 1120 600 1120 c 2,35,-1
 639 1120 l 2,0,1
551 969 m 2,36,37
 551 942 551 942 602 942 c 2,38,-1
 627 942 l 2,39,40
 674 942 674 942 674 969 c 2,41,-1
 674 1040 l 2,42,43
 674 1067 674 1067 627 1067 c 2,44,-1
 602 1067 l 2,45,46
 551 1067 551 1067 551 1040 c 2,47,-1
 551 969 l 2,36,37
1139 506 m 2,48,49
 1139 483 1139 483 1118 483 c 0,50,51
 1112 483 1112 483 1100 485 c 2,52,-1
 233 659 l 2,53,54
 197 667 197 667 197 688 c 2,55,-1
 197 719 l 2,56,57
 197 737 197 737 233 745 c 2,58,-1
 1100 922 l 2,59,60
 1112 924 1112 924 1118 924 c 0,61,62
 1139 924 1139 924 1139 901 c 2,63,-1
 1139 743 l 1,64,-1
 1284 743 l 2,65,66
 1347 743 1347 743 1390.5 702.5 c 128,-1,67
 1434 662 1434 662 1434 603.5 c 128,-1,68
 1434 545 1434 545 1390.5 504 c 128,-1,69
 1347 463 1347 463 1284 463 c 0,70,71
 1266 463 1266 463 1260.5 474 c 128,-1,72
 1255 485 1255 485 1255 506 c 2,73,-1
 1255 514 l 2,74,75
 1255 543 1255 543 1283 543 c 128,-1,76
 1311 543 1311 543 1331.5 560 c 128,-1,77
 1352 577 1352 577 1352 602.5 c 128,-1,78
 1352 628 1352 628 1331.5 646 c 128,-1,79
 1311 664 1311 664 1284 664 c 2,80,-1
 1139 664 l 1,81,-1
 1139 506 l 2,48,49
27 676 m 2,82,83
 0 676 0 676 0 702 c 0,84,85
 0 713 0 713 7.5 721 c 128,-1,86
 15 729 15 729 27 729 c 2,87,-1
 166 729 l 1,88,-1
 166 676 l 1,89,-1
 27 676 l 2,82,83
297 522 m 1,90,-1
 297 -0 l 1,91,-1
 231 -0 l 2,92,93
 216 0 216 0 206.5 10.5 c 128,-1,94
 197 21 197 21 197 35 c 2,95,-1
 197 487 l 2,96,97
 197 501 197 501 206.5 511.5 c 128,-1,98
 216 522 216 522 231 522 c 2,99,-1
 297 522 l 1,90,-1
559 35 m 2,100,101
 559 21 559 21 549 10.5 c 128,-1,102
 539 0 539 0 524 0 c 2,103,-1
 373 -0 l 1,104,-1
 373 522 l 1,105,-1
 524 522 l 2,106,107
 539 522 539 522 549 511.5 c 128,-1,108
 559 501 559 501 559 487 c 2,109,-1
 559 35 l 2,100,101
502 442 m 0,110,111
 522 442 522 442 522 463.5 c 128,-1,112
 522 485 522 485 500.5 485 c 128,-1,113
 479 485 479 485 479 465 c 0,114,115
 479 456 479 456 485.5 449 c 128,-1,116
 492 442 492 442 502 442 c 0,110,111
1141 330 m 1,117,118
 1144 324 1144 324 1139 319 c 2,119,-1
 1106 291 l 1,120,121
 1103 286 1103 286 1098 291 c 1,122,-1
 1079 317 l 2,123,124
 1075 321 1075 321 1071 317 c 1,125,-1
 1053 291 l 1,126,127
 1048 286 1048 286 1042 291 c 1,128,-1
 1024 317 l 1,129,130
 1020 321 1020 321 1016 317 c 2,131,-1
 999 293 l 1,132,133
 985 279 985 279 985 291 c 1,134,-1
 967 317 l 2,135,136
 964 323 964 323 958 317 c 1,137,-1
 940 293 l 2,138,139
 936 289 936 289 930 289 c 2,140,-1
 891 289 l 1,141,-1
 891 258 l 1,142,143
 888 255 888 255 885 258 c 2,144,-1
 862 278 l 1,145,146
 850 247 850 247 821.5 228 c 128,-1,147
 793 209 793 209 750 209 c 128,-1,148
 707 209 707 209 673 243.5 c 128,-1,149
 639 278 639 278 640 327 c 128,-1,150
 641 376 641 376 675 409 c 128,-1,151
 709 442 709 442 751 442 c 0,152,153
 832.838709677 442 832.838709677 442 864 373 c 1,154,-1
 885 393 l 2,155,156
 888 396 888 396 891 393 c 1,157,-1
 891 364 l 1,158,-1
 1108 364 l 2,159,160
 1114 364 1114 364 1118 360 c 2,161,-1
 1141 330 l 1,117,118
479 395 m 0,162,163
 479 373 479 373 500.5 373 c 128,-1,164
 522 373 522 373 522 394.5 c 128,-1,165
 522 416 522 416 502 416 c 0,166,167
 492 416 492 416 485.5 409.5 c 128,-1,168
 479 403 479 403 479 395 c 0,162,163
693 302.5 m 128,-1,170
 704 291 704 291 718 291 c 128,-1,171
 732 291 732 291 743 302 c 128,-1,172
 754 313 754 313 754 327.5 c 128,-1,173
 754 342 754 342 743 352 c 128,-1,174
 732 362 732 362 717.5 362 c 128,-1,175
 703 362 703 362 692.5 351.5 c 128,-1,176
 682 341 682 341 682 327.5 c 128,-1,169
 682 314 682 314 693 302.5 c 128,-1,170
502 303 m 0,177,178
 522 303 522 303 522 324.5 c 128,-1,179
 522 346 522 346 500.5 346 c 128,-1,180
 479 346 479 346 479 326 c 0,181,182
 479 317 479 317 485.5 310 c 128,-1,183
 492 303 492 303 502 303 c 0,177,178
662 123 m 1,184,185
 666 131 666 131 672 131 c 2,186,-1
 897 131 l 1,187,188
 897 148 897 148 909.5 164.5 c 128,-1,189
 922 181 922 181 946 182 c 2,190,-1
 1090 192 l 1,191,192
 1132 192 1132 192 1144.5 165 c 128,-1,193
 1157 138 1157 138 1157 90 c 128,-1,194
 1157 42 1157 42 1145 18 c 0,195,196
 1133 -12 1133 -12 1090 -12 c 1,197,-1
 946 -2 l 2,198,199
 922 -1 922 -1 909.5 15 c 128,-1,200
 897 31 897 31 897 49 c 1,201,-1
 801 49 l 2,202,203
 796 49 796 49 788 53 c 1,204,-1
 770 78 l 1,205,206
 765 83 765 83 762 78 c 2,207,-1
 741 51 l 2,208,209
 736 46 736 46 731 51 c 1,210,-1
 713 78 l 2,211,212
 708 84 708 84 702 78 c 1,213,-1
 684 51 l 2,214,215
 681 48 681 48 674 51 c 1,216,-1
 641 82 l 2,217,218
 636 87 636 87 639 92 c 2,219,-1
 662 123 l 1,184,185
1055 57 m 2,220,221
 1055 35 1055 35 1069 35 c 2,222,-1
 1092 35 l 2,223,224
 1104 35 1104 35 1104 57 c 2,225,-1
 1104 119 l 2,226,227
 1104 145 1104 145 1092 145 c 2,228,-1
 1069 145 l 2,229,230
 1055 145 1055 145 1055 119 c 2,231,-1
 1055 57 l 2,220,221
EndSplineSet
EndChar

StartChar: A.ss01
Encoding: 65538 -1 64
GlifName: A_.ss01
Width: 1495
Flags: MW
HStem: 291 272
VStem: 342 39<45 805> 647 115 1157 113
LayerCount: 2
Back
Fore
SplineSet
186 45 m 1,0,1
 186 0 186 0 264 0 c 128,-1,2
 342 0 342 0 342 45 c 2,3,-1
 342 805 l 1,4,-1
 381 805 l 1,5,-1
 381 45 l 2,6,7
 381 0 381 0 457 0 c 128,-1,8
 533 0 533 0 535 45 c 2,9,-1
 563 805 l 1,10,-1
 621 805 l 1,11,-1
 891 29 l 1,12,13
 903 0 903 0 921 0 c 128,-1,14
 939 0 939 0 949.5 9 c 128,-1,15
 960 18 960 18 960 28 c 128,-1,16
 960 38 960 38 955 53 c 1,17,-1
 954 53 l 1,18,-1
 688 848 l 2,19,20
 678 879 678 879 643 879 c 2,21,-1
 637 879 l 1,22,-1
 649 1370 l 1,23,24
 649 1458 649 1458 565 1489 c 0,25,26
 516 1507 516 1507 471 1537.5 c 128,-1,27
 426 1568 426 1568 426 1593 c 2,28,-1
 426 1630 l 1,29,30
 453 1646 453 1646 453 1692 c 1,31,-1
 459 1821 l 1,32,-1
 459 1824 l 2,33,34
 459 1859 459 1859 429 1882 c 128,-1,35
 399 1905 399 1905 359 1905 c 128,-1,36
 319 1905 319 1905 289.5 1882.5 c 128,-1,37
 260 1860 260 1860 260 1834.5 c 128,-1,38
 260 1809 260 1809 261 1790 c 2,39,-1
 263.5 1742.5 l 2,40,41
 265 1714 265 1714 266.5 1681.5 c 128,-1,42
 268 1649 268 1649 293 1630 c 1,43,-1
 293 1593 l 2,44,45
 293 1568 293 1568 248.5 1537 c 128,-1,46
 204 1506 204 1506 154 1489 c 0,47,48
 72 1459 72 1459 72 1373.5 c 128,-1,49
 72 1288 72 1288 77.5 1114.5 c 128,-1,50
 83 941 83 941 84 893.5 c 0,51,52
 85.8631578947 805 85.8631578947 805 156 805 c 1,53,-1
 186 45 l 1,0,1
1294 809 m 2,54,55
 1298 815 1298 815 1304.5 815 c 128,-1,56
 1311 815 1311 815 1311 805 c 2,57,-1
 1311 747 l 1,58,-1
 1452 674 l 2,59,60
 1470 665 1470 665 1470 649.5 c 128,-1,61
 1470 634 1470 634 1453.5 604.5 c 128,-1,62
 1437 575 1437 575 1405 575 c 2,63,-1
 1317 575 l 1,64,-1
 1268 340 l 1,65,-1
 1270 31 l 2,66,67
 1270 0 1270 0 1221 0 c 0,68,69
 1195 0 1195 0 1176 8.5 c 128,-1,70
 1157 17 1157 17 1157 31 c 1,71,-1
 1135 291 l 1,72,-1
 1018 291 l 2,73,74
 958 291 958 291 909 303 c 1,75,-1
 819 571 l 1,76,-1
 1108 555 l 1,77,-1
 1294 809 l 2,54,55
791 209 m 1,78,-1
 762 31 l 2,79,80
 759 10 759 10 747 5 c 128,-1,81
 735 0 735 0 691 0 c 128,-1,82
 647 0 647 0 647 30 c 1,83,84
 650.454545455 81.8181818182 650.454545455 81.8181818182 654.727272727 161.409090909 c 128,-1,85
 659 241 659 241 665.5 352 c 128,-1,86
 672 463 672 463 676 541 c 1,87,-1
 791 209 l 1,78,-1
EndSplineSet
EndChar

StartChar: B.ss01
Encoding: 65539 -1 65
GlifName: B_.ss01
Width: 1495
Flags: MW
HStem: 0 1905
VStem: 170 170 260 199 291 137 379 171 807 100 1232 116
LayerCount: 2
Back
Fore
SplineSet
808 36 m 1,0,1
 808 100 808 100 831 422 c 1,2,3
 810 431 810 431 794 455.5 c 128,-1,4
 778 480 778 480 778 502 c 1,5,-1
 1196 459 l 1,6,-1
 1219 487 l 1,7,8
 1080 522 1080 522 940 594 c 128,-1,9
 800 666 800 666 596 811 c 1,10,11
 584 805 584 805 565 805 c 1,12,-1
 534 45 l 1,13,14
 531 0 531 0 455 0 c 128,-1,15
 379 0 379 0 379 45 c 2,16,-1
 379 797 l 1,17,-1
 340 797 l 1,18,-1
 340 45 l 2,19,20
 340 0 340 0 264.5 0 c 128,-1,21
 189 0 189 0 186 45 c 1,22,-1
 154 805 l 1,23,24
 86.3636363636 805 86.3636363636 805 84 883 c 0,25,26
 80 1055 80 1055 76 1193 c 128,-1,27
 72 1331 72 1331 72 1376 c 0,28,29
 72 1465 72 1465 151 1495 c 0,30,31
 202 1513 202 1513 246.5 1543.5 c 128,-1,32
 291 1574 291 1574 291 1602 c 2,33,-1
 291 1632 l 1,34,35
 268 1643 268 1643 266 1694 c 2,36,-1
 260 1826 l 1,37,38
 260 1861 260 1861 289.5 1883 c 128,-1,39
 319 1905 319 1905 359.5 1905 c 128,-1,40
 400 1905 400 1905 429.5 1882.5 c 128,-1,41
 459 1860 459 1860 459 1813 c 128,-1,42
 459 1766 459 1766 456 1705 c 128,-1,43
 453 1644 453 1644 428 1632 c 1,44,-1
 428 1602 l 2,45,46
 428 1574 428 1574 472 1543.5 c 128,-1,47
 516 1513 516 1513 567 1495 c 0,48,49
 649 1464 649 1464 649 1381.16666667 c 128,-1,50
 649 1298.33333333 649 1298.33333333 642 1086.16666667 c 128,-1,51
 635 874 635 874 631 858 c 1,52,53
 965 610 965 610 1257 539 c 1,54,-1
 1364 674 l 2,55,56
 1368 680 1368 680 1376 680 c 128,-1,57
 1384 680 1384 680 1384 672 c 2,58,-1
 1384 616 l 1,59,-1
 1503 549 l 2,60,61
 1522 538 1522 538 1522 524.5 c 128,-1,62
 1522 511 1522 511 1508 483 c 128,-1,63
 1494 455 1494 455 1460 455 c 2,64,-1
 1380 455 l 1,65,-1
 1348 299 l 1,66,-1
 1348 27 l 2,67,68
 1348 0 1348 0 1296 0 c 128,-1,69
 1244 0 1244 0 1241 27 c 2,70,-1
 1223 225 l 1,71,-1
 1126 225 l 2,72,73
 1034 225 1034 225 946 264 c 1,74,-1
 907 27 l 1,75,76
 901 0 901 0 854 0 c 128,-1,77
 807 0 807 0 807 26 c 1,78,-1
 808 36 l 1,0,1
EndSplineSet
EndChar

StartChar: C.ss01
Encoding: 65540 -1 66
GlifName: C_.ss01
Width: 1105
Flags: MW
HStem: 0 1905
VStem: 61 1018
LayerCount: 2
Back
Fore
SplineSet
874 483 m 2,0,1
 867 537 867 537 854 569 c 1,2,-1
 668 936 l 1,3,-1
 686 1241 l 1,4,-1
 762 1126 l 1,5,6
 784.738041002 1095.14123007 784.738041002 1095.14123007 836 1081 c 2,7,-1
 987 1042 l 2,8,9
 1003 1038 1003 1038 1022.5 1038 c 128,-1,10
 1042 1038 1042 1038 1060.5 1059.5 c 128,-1,11
 1079 1081 1079 1081 1079 1106.5 c 128,-1,12
 1079 1132 1079 1132 1069 1143.5 c 128,-1,13
 1059 1155 1059 1155 1036 1163 c 1,14,-1
 864 1214 l 1,15,-1
 719 1466 l 1,16,17
 679 1533 679 1533 627 1554 c 1,18,-1
 631 1618 l 1,19,20
 668 1630 668 1630 674 1675 c 0,21,22
 675 1687 675 1687 678 1711 c 0,23,24
 690 1807 690 1807 690 1832 c 128,-1,25
 690 1857 690 1857 659.5 1881 c 128,-1,26
 629 1905 629 1905 588 1905 c 128,-1,27
 547 1905 547 1905 523 1883.5 c 128,-1,28
 499 1862 499 1862 496.5 1831.5 c 128,-1,29
 494 1801 494 1801 492.5 1777 c 128,-1,30
 491 1753 491 1753 490 1739 c 128,-1,31
 489 1725 489 1725 488.5 1713 c 128,-1,32
 488 1701 488 1701 487.5 1696 c 128,-1,33
 487 1691 487 1691 487 1690 c 0,34,35
 487 1650 487 1650 516 1624 c 1,36,37
 516 1585 516 1585 467 1565 c 0,38,39
 411 1545 411 1545 358 1477 c 2,40,-1
 199 1270 l 1,41,42
 168 1227 168 1227 163 1181 c 128,-1,43
 158 1135 158 1135 151.5 1086.5 c 0,44,45
 135 963.384615385 135 963.384615385 135 942.192307692 c 128,-1,46
 135 921 135 921 154.5 901 c 128,-1,47
 174 881 174 881 201.5 881 c 0,48,49
 256.571428571 881 256.571428571 881 264 946 c 2,50,-1
 291 1171 l 1,51,-1
 403 1278 l 1,52,-1
 367 924 l 1,53,-1
 268 461 l 1,54,-1
 121 217 l 2,55,56
 61 118 61 118 61 98 c 128,-1,57
 61 78 61 78 98 51 c 0,58,59
 136 25 136 25 160.5 25 c 128,-1,60
 185 25 185 25 197 43 c 2,61,-1
 365 303 l 1,62,63
 419 391 419 391 440 446 c 1,64,-1
 543 731 l 1,65,-1
 702 473 l 1,66,-1
 768 45 l 1,67,68
 775 19 775 19 796 9.5 c 128,-1,69
 817 0 817 0 871.5 0 c 128,-1,70
 926 0 926 0 926 35 c 0,71,72
 926 40 926 40 924 63 c 2,73,-1
 874 483 l 2,0,1
EndSplineSet
EndChar

StartChar: D.ss01
Encoding: 65541 -1 67
GlifName: D_.ss01
Width: 1638
Flags: MW
HStem: 0 104 1071 139<933 1198 981 1100>
VStem: 326 180 426 199 457 137 545 176 1032 106 1100 66 1272 66 1300 106
LayerCount: 2
Back
Fore
SplineSet
922 201 m 2,0,-1
 940 780 l 2,1,2
 941 844 941 844 986.5 881 c 128,-1,3
 1032 918 1032 918 1100 918 c 1,4,-1
 1100 1071 l 1,5,-1
 946 1071 l 2,6,7
 914.681818182 1071 914.681818182 1071 881 1110 c 2,8,-1
 741 1276 l 1,9,-1
 700 45 l 1,10,11
 697 0 697 0 621 0 c 128,-1,12
 545 0 545 0 545 45 c 2,13,-1
 545 797 l 1,14,-1
 506 797 l 1,15,-1
 506 45 l 2,16,17
 506 0 506 0 427.5 0 c 128,-1,18
 349 0 349 0 346 45 c 1,19,-1
 305 1317 l 1,20,-1
 205 1243 l 2,21,22
 167 1214 167 1214 114 1214 c 128,-1,23
 61 1214 61 1214 41 1251 c 2,24,-1
 -115 1556 l 2,25,26
 -131 1588 -131 1588 -131 1607.5 c 128,-1,27
 -131 1627 -131 1627 -114 1644 c 128,-1,28
 -97 1661 -97 1661 -67 1661 c 128,-1,29
 -37 1661 -37 1661 -18 1622 c 1,30,-1
 119 1358 l 1,31,32
 168 1406 168 1406 232.5 1448.5 c 128,-1,33
 297 1491 297 1491 342.5 1503.5 c 128,-1,34
 388 1516 388 1516 422.5 1544.5 c 128,-1,35
 457 1573 457 1573 457 1602 c 2,36,-1
 457 1632 l 1,37,38
 434 1643 434 1643 432 1694 c 0,39,40
 426 1808 426 1808 426 1834.5 c 128,-1,41
 426 1861 426 1861 455.5 1883 c 128,-1,42
 485 1905 485 1905 525.5 1905 c 128,-1,43
 566 1905 566 1905 595.5 1882.5 c 128,-1,44
 625 1860 625 1860 625 1811 c 128,-1,45
 625 1762 625 1762 621 1703 c 128,-1,46
 617 1644 617 1644 594 1632 c 1,47,-1
 594 1602 l 2,48,49
 594 1549.05555556 594 1549.05555556 733 1495 c 0,50,51
 796 1472 796 1472 842 1415 c 1,52,-1
 981 1210 l 1,53,-1
 1198 1210 l 2,54,55
 1278 1210 1278 1210 1278 1135 c 1,56,-1
 1311 1135 l 2,57,58
 1337 1135 1337 1135 1337 1094 c 2,59,-1
 1337 918 l 1,60,-1
 1358 918 l 2,61,62
 1414 918 1414 918 1455 878 c 128,-1,63
 1496 838 1496 838 1497.5 780.5 c 128,-1,64
 1499 723 1499 723 1503 604 c 128,-1,65
 1507 485 1507 485 1510 396.5 c 0,66,67
 1516 219.5 1516 219.5 1516 200.75 c 128,-1,68
 1516 182 1516 182 1500 161.5 c 128,-1,69
 1484 141 1484 141 1456 141 c 2,70,-1
 981 141 l 2,71,72
 953 141 953 141 937.5 161.5 c 128,-1,73
 922 182 922 182 922 201 c 2,0,-1
1272 1071 m 1,74,-1
 1165 1071 l 1,75,-1
 1165 918 l 1,76,-1
 1272 918 l 1,77,-1
 1272 1071 l 1,74,-1
1085 104 m 128,-1,79
 1107 104 1107 104 1123 89 c 128,-1,80
 1139 74 1139 74 1139 52 c 128,-1,81
 1139 30 1139 30 1123 15 c 128,-1,82
 1107 0 1107 0 1085 0 c 128,-1,83
 1063 -0 1063 -0 1047.5 14.5 c 128,-1,84
 1032 29 1032 29 1032 51.5 c 128,-1,85
 1032 74 1032 74 1047.5 89 c 128,-1,78
 1063 104 1063 104 1085 104 c 128,-1,79
1316 89 m 128,-1,87
 1332 104 1332 104 1354.5 104 c 128,-1,88
 1377 104 1377 104 1392 89 c 128,-1,89
 1407 74 1407 74 1407 51.5 c 128,-1,90
 1407 29 1407 29 1392 14.5 c 128,-1,91
 1377 0 1377 0 1354.5 0 c 128,-1,92
 1332 0 1332 0 1316 15 c 128,-1,93
 1300 30 1300 30 1300 52 c 128,-1,86
 1300 74 1300 74 1316 89 c 128,-1,87
EndSplineSet
EndChar

StartChar: E.ss01
Encoding: 65542 -1 68
GlifName: E_.ss01
Width: 1433
Flags: MW
HStem: 0 104 1071 139
VStem: 197 106 266 66 438 66 465 106 884 175 979 199 1010 133 1098 171
LayerCount: 2
Back
Fore
SplineSet
1059 45 m 2,0,1
 1059 0 1059 0 982.5 0 c 128,-1,2
 906 0 906 0 903 45 c 1,3,-1
 864 1307 l 1,4,-1
 723 1110 l 2,5,6
 696 1071 696 1071 664 1071 c 2,7,-1
 504 1071 l 1,8,-1
 504 918 l 1,9,10
 572 918 572 918 617.5 881 c 128,-1,11
 663 844 663 844 664 780 c 2,12,-1
 682 201 l 2,13,14
 682 182 682 182 666.5 161.5 c 128,-1,15
 651 141 651 141 623 141 c 2,16,-1
 147 141 l 2,17,18
 119 141 119 141 103.5 161.5 c 128,-1,19
 88 182 88 182 88 201 c 2,20,-1
 106 780 l 2,21,22
 107 838 107 838 148.5 878 c 128,-1,23
 190 918 190 918 246 918 c 2,24,-1
 266 918 l 1,25,-1
 266 1094 l 2,26,27
 266 1135 266 1135 293 1135 c 2,28,-1
 326 1135 l 1,29,30
 326 1210 326 1210 405 1210 c 2,31,-1
 623 1210 l 1,32,-1
 760 1409 l 2,33,34
 788 1449 788 1449 866 1489.5 c 128,-1,35
 944 1530 944 1530 977 1554.5 c 128,-1,36
 1010 1579 1010 1579 1010 1602 c 2,37,-1
 1010 1632 l 1,38,39
 985 1644 985 1644 982 1691 c 128,-1,40
 979 1738 979 1738 979 1826 c 0,41,42
 979 1860 979 1860 1008 1882.5 c 128,-1,43
 1037 1905 1037 1905 1078 1905 c 128,-1,44
 1119 1905 1119 1905 1148.5 1882.5 c 128,-1,45
 1178 1860 1178 1860 1178 1826 c 0,46,47
 1178 1738 1178 1738 1175 1692 c 128,-1,48
 1172 1646 1172 1646 1143 1632 c 1,49,-1
 1143 1602 l 2,50,51
 1143 1574 1143 1574 1188.5 1543.5 c 128,-1,52
 1234 1513 1234 1513 1286 1495 c 0,53,54
 1366 1465 1366 1465 1366 1378.5 c 128,-1,55
 1366 1292 1366 1292 1360.5 1115 c 128,-1,56
 1355 938 1355 938 1354 894 c 0,57,58
 1351.97727273 805 1351.97727273 805 1284 805 c 1,59,-1
 1253 45 l 1,60,61
 1250 0 1250 0 1174 0 c 128,-1,62
 1098 0 1098 0 1098 45 c 2,63,-1
 1098 805 l 1,64,-1
 1059 805 l 1,65,-1
 1059 45 l 2,0,1
438 918 m 1,66,-1
 438 1071 l 1,67,-1
 332 1071 l 1,68,-1
 332 918 l 1,69,-1
 438 918 l 1,66,-1
212 89 m 128,-1,71
 227 104 227 104 249.5 104 c 128,-1,72
 272 104 272 104 287.5 89 c 128,-1,73
 303 74 303 74 303 51.5 c 128,-1,74
 303 29 303 29 287.5 14.5 c 128,-1,75
 272 0 272 0 249.5 0 c 128,-1,76
 227 0 227 0 212 14.5 c 128,-1,77
 197 29 197 29 197 51.5 c 128,-1,70
 197 74 197 74 212 89 c 128,-1,71
518 104 m 128,-1,79
 540 104 540 104 555.5 89 c 128,-1,80
 571 74 571 74 571 51.5 c 128,-1,81
 571 29 571 29 555.5 14.5 c 128,-1,82
 540 0 540 0 518 0 c 128,-1,83
 496 -0 496 -0 480.5 14.5 c 128,-1,84
 465 29 465 29 465 51.5 c 128,-1,85
 465 74 465 74 480.5 89 c 128,-1,78
 496 104 496 104 518 104 c 128,-1,79
EndSplineSet
EndChar

StartChar: F.ss01
Encoding: 65543 -1 69
GlifName: F_.ss01
Width: 1398
Flags: MW
HStem: 1071 135
VStem: 872 178 971 199 1001 137 1090 171
LayerCount: 2
Back
Fore
SplineSet
1051 45 m 2,0,1
 1051 0 1051 0 975.5 0 c 128,-1,2
 900 0 900 0 897 45 c 1,3,-1
 848 1298 l 1,4,-1
 758 1102 l 1,5,6
 742.5 1071 742.5 1071 694 1071 c 2,7,-1
 416 1071 l 2,8,9
 387 1071 387 1071 366.5 1091.5 c 128,-1,10
 346 1112 346 1112 346 1139 c 128,-1,11
 346 1166 346 1166 366 1186 c 128,-1,12
 386 1206 386 1206 414 1206 c 2,13,-1
 664 1206 l 1,14,-1
 735 1378 l 1,15,16
 778 1472 778 1472 911 1518 c 0,17,18
 949 1531 949 1531 975 1558.5 c 128,-1,19
 1001 1586 1001 1586 1001 1620 c 2,20,-1
 1001 1632 l 1,21,22
 979 1647 979 1647 977.5 1680 c 128,-1,23
 976 1713 976 1713 973.5 1751.5 c 128,-1,24
 971 1790 971 1790 971 1824.5 c 128,-1,25
 971 1859 971 1859 999.5 1882 c 128,-1,26
 1028 1905 1028 1905 1070 1905 c 128,-1,27
 1112 1905 1112 1905 1140.5 1882 c 128,-1,28
 1169 1859 1169 1859 1169 1823 c 1,29,-1
 1165 1694 l 2,30,31
 1163 1644 1163 1644 1139 1632 c 1,32,-1
 1139 1620 l 2,33,34
 1139 1583 1139 1583 1156.5 1559.5 c 128,-1,35
 1174 1536 1174 1536 1242 1513 c 128,-1,36
 1310 1490 1310 1490 1335 1456 c 128,-1,37
 1360 1422 1360 1422 1360 1362 c 0,38,39
 1360 1355 1360 1355 1355 1196.5 c 128,-1,40
 1350 1038 1350 1038 1348.5 975 c 128,-1,41
 1347 912 1347 912 1345.5 881.5 c 0,42,43
 1341.73770492 805 1341.73770492 805 1276 805 c 1,44,-1
 1245 45 l 1,45,46
 1242 0 1242 0 1166 0 c 128,-1,47
 1090 0 1090 0 1090 45 c 2,48,-1
 1090 797 l 1,49,-1
 1051 797 l 1,50,-1
 1051 45 l 2,0,1
393 913 m 1,51,52
 410 874 410 874 410 857 c 128,-1,53
 410 840 410 840 404.5 832.5 c 128,-1,54
 399 825 399 825 383 817 c 2,55,-1
 348 801 l 2,56,57
 336 795 336 795 326 795 c 0,58,59
 297 795 297 795 270 854 c 1,60,-1
 260 877 l 2,61,62
 244 913 244 913 244 935.5 c 128,-1,63
 244 958 244 958 266 969 c 2,64,-1
 305 987 l 2,65,66
 315 991 315 991 330 991 c 0,67,68
 357 991 357 991 383 934 c 1,69,-1
 393 913 l 1,51,52
508 688 m 2,70,71
 532 688 532 688 547.5 674.5 c 128,-1,72
 563 661 563 661 563 634 c 128,-1,73
 563 607 563 607 542 433.5 c 128,-1,74
 521 260 521 260 512 186 c 128,-1,75
 503 112 503 112 500 82 c 0,76,77
 488 -2 488 -2 412 -2 c 2,78,-1
 201 -2 l 2,79,80
 160 -2 160 -2 139 22 c 128,-1,81
 118 46 118 46 112.5 99 c 128,-1,82
 107 152 107 152 78 387.5 c 128,-1,83
 49 623 49 623 49 642.5 c 128,-1,84
 49 662 49 662 64.5 675 c 128,-1,85
 80 688 80 688 104 688 c 2,86,-1
 508 688 l 2,70,71
EndSplineSet
EndChar

StartChar: G.ss01
Encoding: 65544 -1 70
GlifName: G_.ss01
Width: 1802
Flags: MW
HStem: 805 150<1038 1176 1038 1247> 1434 59 1544 55 1741 45 1843 61
VStem: 0 59 197 53 256 53 410 61 549 489 731 127 1264 170 1354 199 1384 137 1473 169
LayerCount: 2
Back
Fore
SplineSet
402 1502 m 128,-1,1
 333 1434 333 1434 234 1434 c 128,-1,2
 135 1434 135 1434 67.5 1501.5 c 128,-1,3
 0 1569 0 1569 0 1668.5 c 128,-1,4
 0 1768 0 1768 67.5 1836.5 c 128,-1,5
 135 1905 135 1905 234 1905 c 128,-1,6
 333 1905 333 1905 402 1836 c 128,-1,7
 471 1767 471 1767 471 1668.5 c 128,-1,0
 471 1570 471 1570 402 1502 c 128,-1,1
1434 45 m 2,8,9
 1434 0 1434 0 1358.5 0 c 128,-1,10
 1283 0 1283 0 1280 45 c 1,11,-1
 1247 805 l 1,12,-1
 39 805 l 2,13,14
 23 805 23 805 11.5 820.5 c 128,-1,15
 0 836 0 836 0 864 c 2,16,-1
 -0 895 l 2,17,18
 0 923 0 923 11.5 938.5 c 128,-1,19
 23 954 23 954 39 954 c 2,20,-1
 549 954 l 1,21,-1
 549 1335 l 2,22,23
 549 1377 549 1377 576.5 1405.5 c 128,-1,24
 604 1434 604 1434 639 1434 c 128,-1,25
 674 1434 674 1434 702.5 1460.5 c 128,-1,26
 731 1487 731 1487 731 1503 c 2,27,-1
 731 1530 l 1,28,29
 713 1530 713 1530 707 1569 c 0,30,31
 706 1577 706 1577 702.5 1595 c 0,32,33
 686 1679.85714286 686 1679.85714286 686 1713.92857143 c 128,-1,34
 686 1748 686 1748 718 1767 c 128,-1,35
 750 1786 750 1786 795 1786 c 128,-1,36
 840 1786 840 1786 870.5 1767 c 128,-1,37
 901 1748 901 1748 901 1708 c 1,38,-1
 883 1569 l 2,39,40
 877 1530 877 1530 858 1530 c 1,41,-1
 858 1503 l 2,42,43
 858 1484 858 1484 880 1459 c 128,-1,44
 902 1434 902 1434 943 1434 c 128,-1,45
 984 1434 984 1434 1011 1406 c 128,-1,46
 1038 1378 1038 1378 1038 1335 c 2,47,-1
 1038 954 l 1,48,-1
 1176 954 l 1,49,-1
 1165 1381 l 1,50,51
 1165 1465 1165 1465 1245 1495 c 0,52,53
 1296 1513 1296 1513 1340 1543.5 c 128,-1,54
 1384 1574 1384 1574 1384 1602 c 2,55,-1
 1384 1632 l 1,56,57
 1354 1647 1354 1647 1354 1826 c 0,58,59
 1354 1861 1354 1861 1383.5 1883 c 128,-1,60
 1413 1905 1413 1905 1453.5 1905 c 128,-1,61
 1494 1905 1494 1905 1523 1882.5 c 128,-1,62
 1552 1860 1552 1860 1552 1813 c 128,-1,63
 1552 1766 1552 1766 1549 1705 c 128,-1,64
 1546 1644 1546 1644 1522 1632 c 1,65,-1
 1522 1602 l 2,66,67
 1522 1574 1522 1574 1566 1543.5 c 128,-1,68
 1610 1513 1610 1513 1661 1495 c 0,69,70
 1743 1464 1743 1464 1743 1381 c 0,71,72
 1743 1361 1743 1361 1741 1307 c 128,-1,73
 1739 1253 1739 1253 1737.5 1193.5 c 128,-1,74
 1736 1134 1736 1134 1734 1053.5 c 128,-1,75
 1732 973 1732 973 1729 889 c 128,-1,76
 1726 805 1726 805 1655 805 c 1,77,-1
 1628 45 l 1,78,79
 1625 0 1625 0 1549 0 c 128,-1,80
 1473 0 1473 0 1473 45 c 2,81,-1
 1473 805 l 1,82,-1
 1434 805 l 1,83,-1
 1434 45 l 2,8,9
110 1544.5 m 128,-1,85
 161 1493 161 1493 234 1493 c 128,-1,86
 307 1493 307 1493 358.5 1544.5 c 128,-1,87
 410 1596 410 1596 410 1668.5 c 128,-1,88
 410 1741 410 1741 358 1792 c 128,-1,89
 306 1843 306 1843 233.5 1843 c 128,-1,90
 161 1843 161 1843 110 1792 c 128,-1,91
 59 1741 59 1741 59 1668.5 c 128,-1,84
 59 1596 59 1596 110 1544.5 c 128,-1,85
172 1757 m 0,92,93
 172 1786 172 1786 221 1786 c 0,94,95
 309 1786 309 1786 309 1724 c 0,96,97
 309 1698 309 1698 297.5 1686.5 c 128,-1,98
 286 1675 286 1675 267.5 1659.5 c 128,-1,99
 249 1644 249 1644 246 1630 c 0,100,101
 244 1622 244 1622 229 1622 c 2,102,-1
 221 1622 l 2,103,104
 203 1622 203 1622 203 1630 c 0,105,106
 203 1657 203 1657 218 1673 c 0,107,108
 256 1713.53333333 256 1713.53333333 256 1722 c 0,109,110
 256 1741 256 1741 231 1741 c 1,111,-1
 192 1731 l 1,112,113
 186 1731 186 1731 179 1741.5 c 128,-1,114
 172 1752 172 1752 172 1757 c 0,92,93
229 1599 m 2,115,116
 250 1599 250 1599 250 1587 c 2,117,-1
 250 1554 l 2,118,119
 250 1544 250 1544 229 1544 c 2,120,-1
 217 1544 l 2,121,122
 197 1544 197 1544 197 1554 c 2,123,-1
 197 1587 l 2,124,125
 197 1599 197 1599 217 1599 c 2,126,-1
 229 1599 l 2,115,116
EndSplineSet
EndChar

StartChar: H.ss01
Encoding: 65545 -1 71
GlifName: H_.ss01
Width: 634
Flags: MW
HStem: 973 119
VStem: 12 94 119 174 211 201 246 129 332 175 535 90
LayerCount: 2
Back
Fore
SplineSet
293 45 m 2,0,1
 293 0 293 0 217.5 0 c 128,-1,2
 142 0 142 0 139 45 c 1,3,-1
 98 973 l 1,4,-1
 68 973 l 2,5,6
 43 973 43 973 27.5 998 c 128,-1,7
 12 1023 12 1023 12 1050.5 c 128,-1,8
 12 1078 12 1078 40 1253 c 128,-1,9
 68 1428 68 1428 70 1438 c 0,10,11
 81 1514 81 1514 156 1524 c 0,12,13
 198 1531 198 1531 222 1557.5 c 128,-1,14
 246 1584 246 1584 246 1620 c 2,15,-1
 246 1632 l 1,16,17
 215 1652.66666667 215 1652.66666667 215 1741 c 1,18,19
 211 1807 211 1807 211 1833 c 128,-1,20
 211 1859 211 1859 240.5 1882 c 128,-1,21
 270 1905 270 1905 311 1905 c 128,-1,22
 352 1905 352 1905 382 1882 c 128,-1,23
 412 1859 412 1859 412 1833 c 128,-1,24
 412 1807 412 1807 410 1770 c 128,-1,25
 408 1733 408 1733 407.5 1717 c 0,26,27
 405.300875274 1646.62800875 405.300875274 1646.62800875 375 1632 c 1,28,-1
 375 1620 l 2,29,30
 375 1584 375 1584 400 1557.5 c 128,-1,31
 425 1531 425 1531 469 1524 c 0,32,33
 547 1513 547 1513 565 1438 c 0,34,35
 567 1430 567 1430 569.5 1421 c 0,36,37
 625 1221.2 625 1221.2 625 1186.1 c 128,-1,38
 625 1151 625 1151 611 1125 c 128,-1,39
 597 1099 597 1099 570 1075 c 128,-1,40
 543 1051 543 1051 526 1051 c 1,41,-1
 487 45 l 1,42,43
 484 0 484 0 408 0 c 128,-1,44
 332 0 332 0 332 45 c 2,45,-1
 332 797 l 1,46,-1
 293 797 l 1,47,-1
 293 45 l 2,0,1
418 1255 m 2,48,49
 406 1241 406 1241 406 1230 c 128,-1,50
 406 1219 406 1219 412 1210 c 1,51,-1
 227 1210 l 2,52,53
 163 1210 163 1210 135 1181 c 128,-1,54
 107 1152 107 1152 107 1092 c 1,55,-1
 389 1092 l 2,56,57
 408 1092 408 1092 422 1106 c 2,58,-1
 524 1210 l 2,59,60
 535 1221 535 1221 535 1242.5 c 128,-1,61
 535 1264 535 1264 518 1280 c 128,-1,62
 501 1296 501 1296 478.5 1296 c 128,-1,63
 456 1296 456 1296 440 1280 c 1,64,-1
 418 1255 l 2,48,49
EndSplineSet
EndChar

StartChar: I.ss01
Encoding: 65546 -1 72
GlifName: I_.ss01
Width: 1802
Flags: MW
HStem: 0 160
VStem: 1225 106 1493 106
LayerCount: 2
Back
Fore
SplineSet
590 1694 m 1,0,-1
 591 1741 l 2,1,2
 592 1774 592 1774 592 1816.5 c 128,-1,3
 592 1859 592 1859 562 1882 c 128,-1,4
 532 1905 532 1905 491 1905 c 128,-1,5
 450 1905 450 1905 420.5 1882 c 128,-1,6
 391 1859 391 1859 391 1833 c 128,-1,7
 391 1807 391 1807 393 1770 c 128,-1,8
 395 1733 395 1733 395.5 1717 c 0,9,10
 397.563829787 1650.95744681 397.563829787 1650.95744681 426 1632 c 1,11,-1
 424 1571 l 2,12,13
 423.411764706 1559.23529412 423.411764706 1559.23529412 391.205882353 1467.61764706 c 128,-1,14
 359 1376 359 1376 344 1276 c 2,15,-1
 215 461 l 1,16,-1
 68 217 l 2,17,18
 8 118 8 118 8 98 c 128,-1,19
 8 78 8 78 45 51 c 0,20,21
 83 25 83 25 107 25 c 128,-1,22
 131 25 131 25 143 43 c 2,23,-1
 311 303 l 1,24,25
 367 395 367 395 387 446 c 1,26,-1
 489 731 l 1,27,-1
 649 473 l 1,28,-1
 715 45 l 1,29,30
 722 19 722 19 743 9.5 c 128,-1,31
 764 0 764 0 817 0 c 128,-1,32
 870 0 870 0 870 35 c 0,33,34
 870 40 870 40 868 63 c 2,35,-1
 821 483 l 2,36,37
 814 537 814 537 801 569 c 1,38,-1
 621 938 l 1,39,-1
 635 1094 l 1,40,-1
 688 1044 l 2,41,42
 709 1024 709 1024 747 1024 c 2,43,-1
 922 1024 l 1,44,-1
 1036 881 l 1,45,-1
 1130 303 l 2,46,47
 1142 227 1142 227 1187.5 193.5 c 128,-1,48
 1233 160 1233 160 1315 160 c 2,49,-1
 1616 160 l 1,50,-1
 1645 131 l 2,51,52
 1667 109 1667 109 1730.5 109 c 128,-1,53
 1794 109 1794 109 1794 129 c 0,54,55
 1794 137 1794 137 1784 149 c 2,56,-1
 1579 381 l 2,57,58
 1545 418 1545 418 1487 418 c 1,59,-1
 1327 625 l 1,60,-1
 1323 653 l 1,61,62
 1358 667.677419355 1358 667.677419355 1358 741 c 1,63,64
 1362 791 1362 791 1362 814 c 128,-1,65
 1362 837 1362 837 1337 860 c 128,-1,66
 1312 883 1312 883 1266 883 c 0,67,68
 1194 883 1194 883 1174 821 c 1,69,-1
 985 1063 l 2,70,71
 972 1080 972 1080 958 1087 c 1,72,73
 958 1113 958 1113 941 1131 c 128,-1,74
 924 1149 924 1149 899 1149 c 2,75,-1
 752 1149 l 1,76,-1
 627 1305 l 1,77,78
 627 1397 627 1397 590 1466.5 c 128,-1,79
 553 1536 553 1536 553 1571 c 1,80,-1
 551 1626 l 1,81,82
 590 1635 590 1635 590 1694 c 1,0,-1
1278 104 m 128,-1,84
 1300 104 1300 104 1315.5 89 c 128,-1,85
 1331 74 1331 74 1331 51.5 c 128,-1,86
 1331 29 1331 29 1315.5 14.5 c 128,-1,87
 1300 0 1300 0 1278 0 c 128,-1,88
 1256 -0 1256 -0 1240.5 14.5 c 128,-1,89
 1225 29 1225 29 1225 51.5 c 128,-1,90
 1225 74 1225 74 1240.5 89 c 128,-1,83
 1256 104 1256 104 1278 104 c 128,-1,84
1508.5 89 m 128,-1,92
 1524 104 1524 104 1546.5 104 c 128,-1,93
 1569 104 1569 104 1584 89 c 128,-1,94
 1599 74 1599 74 1599 51.5 c 128,-1,95
 1599 29 1599 29 1584 14.5 c 128,-1,96
 1569 0 1569 0 1546.5 0 c 128,-1,97
 1524 0 1524 0 1508.5 14.5 c 128,-1,98
 1493 29 1493 29 1493 51.5 c 128,-1,91
 1493 74 1493 74 1508.5 89 c 128,-1,92
EndSplineSet
EndChar

StartChar: J.ss01
Encoding: 65547 -1 73
GlifName: J_.ss01
Width: 1269
Flags: MW
HStem: 774 109
VStem: 171 138 267 117 344 140 742 171 833 199 864 137 952 170
LayerCount: 2
Back
Fore
SplineSet
913 45 m 2,0,1
 913 0 913 0 837 0 c 128,-1,2
 761 0 761 0 758 45 c 1,3,-1
 727 774 l 1,4,-1
 637 774 l 2,5,6
 565 774 565 774 541 811 c 1,7,-1
 494 874 l 1,8,-1
 475 45 l 2,9,10
 474 19 474 19 461.5 9.5 c 128,-1,11
 449 0 449 0 412 0 c 0,12,13
 344 0 344 0 344 45 c 2,14,-1
 344 539 l 1,15,-1
 309 539 l 1,16,-1
 309 45 l 2,17,18
 309 0 309 0 240 0 c 0,19,20
 205 0 205 0 193.5 10 c 128,-1,21
 182 20 182 20 180 45 c 1,22,-1
 162 586 l 1,23,24
 139 586 139 586 124.5 596.5 c 128,-1,25
 110 607 110 607 110 628 c 128,-1,26
 110 649 110 649 154 1057 c 0,27,28
 158 1094 158 1094 187 1118.5 c 128,-1,29
 216 1143 216 1143 266 1143 c 1,30,-1
 268 1190 l 1,31,32
 236 1206 236 1206 235 1243 c 0,33,34
 231 1334 231 1334 231 1360 c 128,-1,35
 231 1386 231 1386 254 1410 c 128,-1,36
 277 1434 277 1434 325.5 1434 c 128,-1,37
 374 1434 374 1434 397 1411.5 c 128,-1,38
 420 1389 420 1389 420 1366 c 128,-1,39
 420 1343 420 1343 416 1245 c 1,40,-1
 416 1243 l 1,41,42
 414 1203 414 1203 383 1190 c 1,43,-1
 385 1143 l 1,44,45
 426 1143 426 1143 450 1124 c 128,-1,46
 474 1105 474 1105 506 1059 c 2,47,-1
 629 883 l 1,48,-1
 655 883 l 1,49,-1
 643 1376 l 1,50,51
 643 1464 643 1464 725 1495 c 0,52,53
 776 1513 776 1513 820 1543.5 c 128,-1,54
 864 1574 864 1574 864 1602 c 2,55,-1
 864 1632 l 1,56,57
 843 1643 843 1643 838 1696 c 128,-1,58
 833 1749 833 1749 833 1826 c 0,59,60
 833 1860 833 1860 862.5 1882.5 c 128,-1,61
 892 1905 892 1905 932.5 1905 c 128,-1,62
 973 1905 973 1905 1002.5 1883 c 128,-1,63
 1032 1861 1032 1861 1032 1831.5 c 128,-1,64
 1032 1802 1032 1802 1026 1694 c 0,65,66
 1022 1643 1022 1643 1001 1632 c 1,67,-1
 1001 1602 l 2,68,69
 1001 1574 1001 1574 1045.5 1543.5 c 128,-1,70
 1090 1513 1090 1513 1141 1495 c 0,71,72
 1221 1465 1221 1465 1221 1376 c 1,73,-1
 1208 883 l 1,74,75
 1204 805 1204 805 1139 805 c 1,76,-1
 1106 45 l 2,77,78
 1105 0 1105 0 1028.5 0 c 128,-1,79
 952 0 952 0 952 45 c 2,80,-1
 952 797 l 1,81,-1
 913 797 l 1,82,-1
 913 45 l 2,0,1
EndSplineSet
EndChar

StartChar: K.ss01
Encoding: 65548 -1 74
GlifName: K_.ss01
Width: 815
Flags: MW
HStem: 0 1767<632 691>
VStem: 195 164 608 68<29 842>
LayerCount: 2
Back
Fore
SplineSet
434 1016 m 1,0,-1
 360 879 l 1,1,-1
 358 45 l 2,2,3
 358 0 358 0 283 0 c 128,-1,4
 208 0 208 0 205 45 c 2,5,-1
 184 489 l 1,6,-1
 113 741 l 1,7,8
 82 845 82 845 82 893.5 c 0,9,10
 82 980.8 82 980.8 109 1024 c 2,11,-1
 328 1389 l 2,12,13
 348 1422 348 1422 375 1443 c 128,-1,14
 402 1464 402 1464 443.5 1485 c 128,-1,15
 485 1506 485 1506 508 1534 c 2,16,-1
 526 1556 l 1,17,18
 522 1564 522 1564 522 1575 c 128,-1,19
 522 1586 522 1586 539 1614 c 2,20,-1
 616 1737 l 1,21,22
 637 1767 637 1767 677 1767 c 128,-1,23
 717 1767 717 1767 756 1738.5 c 128,-1,24
 795 1710 795 1710 795 1659 c 0,25,26
 795 1637 795 1637 782 1618 c 1,27,-1
 686 1491 l 2,28,29
 673 1475 673 1475 658 1475 c 128,-1,30
 643 1475 643 1475 623 1485 c 1,31,32
 597.036363636 1447.90909091 597.036363636 1447.90909091 594.018181818 1380.95454545 c 128,-1,33
 591 1314 591 1314 551 1231 c 1,34,-1
 551 1100 l 1,35,-1
 705 952 l 1,36,37
 725 926 725 926 725 906 c 128,-1,38
 725 886 725 886 711.5 867 c 128,-1,39
 698 848 698 848 676 842 c 1,40,-1
 676 29 l 2,41,42
 676 18 676 18 666.5 9 c 128,-1,43
 657 0 657 0 642 0 c 128,-1,44
 627 0 627 0 617.5 9 c 128,-1,45
 608 18 608 18 608 29 c 2,46,-1
 608 860 l 1,47,-1
 434 1016 l 1,0,-1
EndSplineSet
EndChar

StartChar: L.ss01
Encoding: 65549 -1 75
GlifName: L_.ss01
Width: 1085
Flags: MW
HStem: 449 287<522 614 614 641 522 680> 1434 59<902 999 902 1017> 1640 53<943 1024 979 1024 979 1024> 1843 61<902 999>
VStem: 168 203<1329 1460 1310 1485> 201 127<1229 1247 1247 1266 1225 1266> 717 59<1620 1717 1620 1735> 924 55<1694 1774 1694 1774 1757 1774 1694 1781> 1126 61<1620 1717>
LayerCount: 2
Back
Fore
SplineSet
1119 1502 m 128,-1,1
 1050 1434 1050 1434 951 1434 c 128,-1,2
 852 1434 852 1434 784.5 1501.5 c 128,-1,3
 717 1569 717 1569 717 1668.5 c 128,-1,4
 717 1768 717 1768 784.5 1836.5 c 128,-1,5
 852 1905 852 1905 951 1905 c 128,-1,6
 1050 1905 1050 1905 1119 1836 c 128,-1,7
 1188 1767 1188 1767 1188 1668.5 c 128,-1,0
 1188 1570 1188 1570 1119 1502 c 128,-1,1
827 1544.5 m 128,-1,9
 878 1493 878 1493 951 1493 c 128,-1,10
 1024 1493 1024 1493 1075 1544.5 c 128,-1,11
 1126 1596 1126 1596 1126 1668.5 c 128,-1,12
 1126 1741 1126 1741 1074.5 1792 c 128,-1,13
 1023 1843 1023 1843 950.5 1843 c 128,-1,14
 878 1843 878 1843 827 1792 c 128,-1,15
 776 1741 776 1741 776 1668.5 c 128,-1,8
 776 1596 776 1596 827 1544.5 c 128,-1,9
1024 1694 m 2,16,17
 1053 1694 1053 1694 1053 1667 c 128,-1,18
 1053 1640 1053 1640 1024 1640 c 2,19,-1
 950 1640 l 2,20,21
 924 1640 924 1640 924 1667 c 2,22,-1
 924 1774 l 2,23,24
 924 1802 924 1802 950 1802 c 0,25,26
 963 1802 963 1802 971 1793.5 c 128,-1,27
 979 1785 979 1785 979 1774 c 2,28,-1
 979 1694 l 1,29,-1
 1024 1694 l 2,16,17
961 52 m 1,30,31
 969 28 969 28 969 23 c 0,32,33
 969 0 969 0 911.5 0 c 128,-1,34
 854 0 854 0 836.5 6 c 128,-1,35
 819 12 819 12 813 29 c 2,36,-1
 680 449 l 1,37,-1
 231 449 l 2,38,39
 156.621621622 449 156.621621622 449 145 535 c 2,40,-1
 96 915 l 1,41,42
 82 1015 82 1015 82 1048 c 128,-1,43
 82 1081 82 1081 150 1081 c 1,44,45
 201 1172 201 1172 201 1229 c 2,46,-1
 201 1266 l 1,47,48
 168 1282 168 1282 168 1329 c 2,49,-1
 168 1460 l 2,50,51
 168 1496 168 1496 198 1520 c 128,-1,52
 228 1544 228 1544 267 1544 c 128,-1,53
 306 1544 306 1544 338.5 1519.5 c 128,-1,54
 371 1495 371 1495 371 1460 c 2,55,-1
 371 1327 l 2,56,57
 371 1304 371 1304 355 1286 c 128,-1,58
 339 1268 339 1268 328 1266 c 1,59,-1
 328 1247 l 2,60,61
 328 1193 328 1193 360.5 1164 c 128,-1,62
 393 1135 393 1135 405 1122.5 c 0,63,64
 440.421686747 1085.60240964 440.421686747 1085.60240964 455 1020 c 2,65,-1
 522 735 l 1,66,-1
 614 735 l 2,67,68
 653 735 653 735 675.5 713 c 128,-1,69
 698 691 698 691 698 655 c 1,70,-1
 715 655 l 2,71,72
 793 655 793 655 809 594 c 1,73,-1
 961 52 l 1,30,31
EndSplineSet
EndChar

StartChar: M.ss01
Encoding: 65550 -1 76
GlifName: M_.ss01
Width: 1187
Flags: MW
HStem: 795 276<926 950 950 1174> 1004 135<614 848 668 827> 1110 35<996 1007> 1178 37<922 931 996 1007> 1196 66<907 907 942 942> 1262 66<907 907 942 942> 1288 14 1327 63 1358 37<755 765> 1391 43
VStem: 248 164 760 37 842 37 891 35 909 35 1001 172 1044 35 1104 37
LayerCount: 2
Back
Fore
SplineSet
1174 795 m 1,0,-1
 950 795 l 2,1,2
 914 795 914 795 896 813.5 c 128,-1,3
 878 832 878 832 864 879 c 2,4,-1
 827 1004 l 1,5,-1
 625 1004 l 2,6,7
 583 1004 583 1004 563 1024 c 1,8,-1
 498 1094 l 1,9,-1
 379 879 l 1,10,-1
 412 502 l 1,11,-1
 412 45 l 2,12,13
 412 0 412 0 336.5 0 c 128,-1,14
 261 0 261 0 258 45 c 2,15,-1
 238 489 l 1,16,-1
 143 741 l 2,17,18
 90 879 90 879 90 935.5 c 128,-1,19
 90 992 90 992 109 1024 c 1,20,-1
 340 1389 l 2,21,22
 367 1430 367 1430 393.5 1451 c 128,-1,23
 420 1472 420 1472 469 1496 c 128,-1,24
 518 1520 518 1520 537 1548 c 1,25,-1
 549 1567 l 1,26,27
 545 1575 545 1575 545 1588.5 c 128,-1,28
 545 1602 545 1602 561 1624 c 1,29,-1
 641 1747 l 1,30,31
 663 1778 663 1778 701.5 1778 c 128,-1,32
 740 1778 740 1778 772 1755 c 0,33,34
 819 1720 819 1720 819 1669 c 0,35,36
 819 1646 819 1646 807 1628 c 1,37,-1
 709 1499 l 2,38,39
 696 1483 696 1483 680.5 1483 c 128,-1,40
 665 1483 665 1483 645 1493 c 1,41,42
 620.869565217 1452.7826087 620.869565217 1452.7826087 617.934782609 1385.89130435 c 128,-1,43
 615 1319 615 1319 580 1247 c 1,44,-1
 668 1139 l 1,45,-1
 848 1139 l 2,46,47
 874 1139 874 1139 893.5 1118.5 c 128,-1,48
 913 1098 913 1098 913 1071 c 1,49,-1
 1174 1071 l 1,50,-1
 1174 795 l 1,0,-1
860.5 1452 m 128,-1,52
 879 1452 879 1452 879 1433.5 c 128,-1,53
 879 1415 879 1415 860.5 1415 c 128,-1,54
 842 1415 842 1415 842 1433.5 c 128,-1,51
 842 1452 842 1452 860.5 1452 c 128,-1,52
797 1444 m 0,55,56
 815 1444 815 1444 815 1425 c 0,57,58
 815 1419 815 1419 809.5 1414 c 128,-1,59
 804 1409 804 1409 797 1409 c 128,-1,60
 790 1409 790 1409 784 1414 c 128,-1,61
 778 1419 778 1419 778 1425.5 c 128,-1,62
 778 1432 778 1432 784 1438 c 128,-1,63
 790 1444 790 1444 797 1444 c 0,55,56
909 1372 m 0,64,65
 891 1372 891 1372 891 1391 c 0,66,67
 891 1398 891 1398 896.5 1403.5 c 128,-1,68
 902 1409 902 1409 908.5 1409 c 128,-1,69
 915 1409 915 1409 920.5 1403.5 c 128,-1,70
 926 1398 926 1398 926 1391 c 128,-1,71
 926 1384 926 1384 920.5 1378 c 128,-1,72
 915 1372 915 1372 909 1372 c 0,64,65
778 1376.5 m 128,-1,74
 778 1358 778 1358 759.5 1358 c 128,-1,75
 741 1358 741 1358 741 1376.5 c 128,-1,76
 741 1395 741 1395 759.5 1395 c 128,-1,73
 778 1395 778 1395 778 1376.5 c 128,-1,74
926 1348 m 0,77,78
 944 1348 944 1348 944 1327 c 0,79,80
 944 1321 944 1321 938.5 1316 c 128,-1,81
 933 1311 933 1311 926.5 1311 c 128,-1,82
 920 1311 920 1311 914.5 1316 c 128,-1,83
 909 1321 909 1321 909 1328.5 c 128,-1,84
 909 1336 909 1336 914.5 1342 c 128,-1,85
 920 1348 920 1348 926 1348 c 0,77,78
1044 1303 m 0,86,87
 1044 1321 1044 1321 1063 1321 c 0,88,89
 1069 1321 1069 1321 1074 1315.5 c 128,-1,90
 1079 1310 1079 1310 1079 1303 c 128,-1,91
 1079 1296 1079 1296 1074 1290 c 128,-1,92
 1069 1284 1069 1284 1062.5 1284 c 128,-1,93
 1056 1284 1056 1284 1050 1290 c 128,-1,94
 1044 1296 1044 1296 1044 1303 c 0,86,87
1122.5 1307 m 128,-1,96
 1141 1307 1141 1307 1141 1288.5 c 128,-1,97
 1141 1270 1141 1270 1122.5 1270 c 128,-1,98
 1104 1270 1104 1270 1104 1288.5 c 128,-1,95
 1104 1307 1104 1307 1122.5 1307 c 128,-1,96
926 1280 m 0,99,100
 944 1280 944 1280 944 1261.5 c 128,-1,101
 944 1243 944 1243 926 1243 c 0,102,103
 920 1243 920 1243 914.5 1249 c 128,-1,104
 909 1255 909 1255 909 1262 c 128,-1,105
 909 1269 909 1269 914.5 1274.5 c 128,-1,106
 920 1280 920 1280 926 1280 c 0,99,100
1019.5 1274 m 128,-1,108
 1038 1274 1038 1274 1038 1255.5 c 128,-1,109
 1038 1237 1038 1237 1019.5 1237 c 128,-1,110
 1001 1237 1001 1237 1001 1255.5 c 128,-1,107
 1001 1274 1001 1274 1019.5 1274 c 128,-1,108
926 1214 m 0,111,112
 944 1214 944 1214 944 1196 c 128,-1,113
 944 1178 944 1178 926 1178 c 0,114,115
 920 1178 920 1178 914.5 1183.5 c 128,-1,116
 909 1189 909 1189 909 1196 c 128,-1,117
 909 1203 909 1203 914.5 1208.5 c 128,-1,118
 920 1214 920 1214 926 1214 c 0,111,112
983 1196 m 128,-1,120
 983 1214 983 1214 1001.5 1214 c 128,-1,121
 1020 1214 1020 1214 1020 1196 c 128,-1,122
 1020 1178 1020 1178 1001.5 1178 c 128,-1,119
 983 1178 983 1178 983 1196 c 128,-1,120
1020 1128 m 0,123,124
 1020 1110 1020 1110 1001.5 1110 c 128,-1,125
 983 1110 983 1110 983 1128 c 0,126,127
 983 1134 983 1134 988.5 1139.5 c 128,-1,128
 994 1145 994 1145 1001 1145 c 128,-1,129
 1008 1145 1008 1145 1014 1139.5 c 128,-1,130
 1020 1134 1020 1134 1020 1128 c 0,123,124
EndSplineSet
EndChar

StartChar: N.ss01
Encoding: 65551 -1 77
GlifName: N_.ss01
Width: 757
Flags: MW
HStem: 0 1905<254 405 352 504>
VStem: 188 170 278 199 309 137<1602 1632 1581 1632 1581 1632> 397 171
LayerCount: 2
Back
Fore
SplineSet
309 1632 m 1,0,1
 278 1647.5 278 1647.5 278 1826 c 0,2,3
 278 1860 278 1860 307.5 1882.5 c 128,-1,4
 337 1905 337 1905 378 1905 c 128,-1,5
 419 1905 419 1905 448 1882.5 c 128,-1,6
 477 1860 477 1860 477 1811 c 128,-1,7
 477 1762 477 1762 473 1703 c 128,-1,8
 469 1644 469 1644 446 1632 c 1,9,-1
 446 1602 l 2,10,11
 446 1574 446 1574 490.5 1543.5 c 128,-1,12
 535 1513 535 1513 586 1495 c 0,13,14
 668 1464 668 1464 668 1376 c 0,15,16
 668 1303 668 1303 653 883 c 0,17,18
 648.125 805 648.125 805 584 805 c 1,19,-1
 553 45 l 1,20,21
 550 0 550 0 473.5 0 c 128,-1,22
 397 0 397 0 397 45 c 2,23,-1
 397 797 l 1,24,-1
 358 797 l 1,25,-1
 358 45 l 2,26,27
 358 0 358 0 283 0 c 128,-1,28
 208 0 208 0 205 45 c 1,29,-1
 172 805 l 1,30,31
 106 805 106 805 102 883 c 0,32,33
 101 938 101 938 95.5 1116.5 c 128,-1,34
 90 1295 90 1295 90 1380 c 128,-1,35
 90 1465 90 1465 170 1495 c 0,36,37
 221 1513 221 1513 265 1543.5 c 128,-1,38
 309 1574 309 1574 309 1602 c 2,39,-1
 309 1632 l 1,0,1
EndSplineSet
EndChar

StartChar: O.ss01
Encoding: 65552 -1 78
GlifName: O_.ss01
Width: 610
Flags: MW
HStem: 0 1434
VStem: 142 138 241 117 315 138
LayerCount: 2
Back
Fore
SplineSet
135 586 m 1,0,1
 113 586 113 586 98 597 c 128,-1,2
 83 608 83 608 83 617 c 0,3,4
 83 626 83 626 93 719.5 c 0,5,6
 103 813 103 813 127 1057 c 0,7,8
 131 1096 131 1096 160 1119.5 c 128,-1,9
 189 1143 189 1143 240 1143 c 1,10,-1
 242 1190 l 1,11,12
 210 1204 210 1204 209 1243 c 0,13,14
 205 1342 205 1342 205 1364.5 c 0,15,16
 205 1387 205 1387 228 1410.5 c 128,-1,17
 251 1434 251 1434 299 1434 c 128,-1,18
 347 1434 347 1434 370 1410.5 c 128,-1,19
 393 1387 393 1387 393 1365 c 0,20,21
 393 1343 393 1343 389 1248 c 1,22,-1
 389 1243 l 1,23,24
 388 1206 388 1206 356 1190 c 1,25,-1
 358 1143 l 1,26,27
 409 1143 409 1143 438 1119.5 c 128,-1,28
 467 1096 467 1096 471 1057 c 0,29,30
 497 800 497 800 502 751 c 128,-1,31
 507 702 507 702 510 670 c 128,-1,32
 513 638 513 638 514 631 c 128,-1,33
 515 624 515 624 515 615.5 c 0,34,35
 515 607 515 607 500 596.5 c 128,-1,36
 485 586 485 586 463 586 c 1,37,-1
 444 45 l 1,38,39
 442 20 442 20 431 10 c 128,-1,40
 420 0 420 0 385 0 c 0,41,42
 315 0 315 0 315 45 c 2,43,-1
 315 539 l 1,44,-1
 281 539 l 1,45,-1
 281 45 l 2,46,47
 281 0 281 0 213 0 c 0,48,49
 177 0 177 0 164.5 10 c 128,-1,50
 152 20 152 20 150 45 c 1,51,-1
 135 586 l 1,0,1
EndSplineSet
EndChar

StartChar: P.ss01
Encoding: 65553 -1 79
GlifName: P_.ss01
Width: 1269
Flags: MW
HStem: -16 72 463 287<854 877 877 903 778 961 854 854> 729 74
VStem: 41 72<299 478 299 496> 442 203<1313 1444 1293 1468> 475 127<1212 1231 1231 1249 1208 1249> 786 74<299 406>
LayerCount: 2
Back
Fore
SplineSet
422 899 m 2,0,1
 421 919 421 919 421 976 c 0,2,3
 421 1033 421 1033 448 1105 c 0,4,5
 475 1177 475 1177 475 1212 c 2,6,-1
 475 1249 l 1,7,8
 442 1266 442 1266 442 1313 c 2,9,-1
 442 1444 l 2,10,11
 442 1480 442 1480 472.5 1504 c 128,-1,12
 503 1528 503 1528 542 1528 c 0,13,14
 581 1528 581 1528 613 1503.5 c 128,-1,15
 645 1479 645 1479 645 1444 c 2,16,-1
 645 1311 l 2,17,18
 645 1288 645 1288 629 1269.5 c 128,-1,19
 613 1251 613 1251 602 1249 c 1,20,-1
 602 1231 l 2,21,22
 602 1177 602 1177 637 1146 c 0,23,24
 672 1115 672 1115 688 1086.5 c 128,-1,25
 704 1058 704 1058 717 1004 c 2,26,-1
 778 750 l 1,27,-1
 877 750 l 2,28,29
 916 750 916 750 938.5 728 c 128,-1,30
 961 706 961 706 961 670 c 1,31,-1
 977 670 l 2,32,33
 1013 670 1013 670 1034.5 656.5 c 128,-1,34
 1056 643 1056 643 1071 608 c 2,35,-1
 1245 207 l 1,36,37
 1270 146 1270 146 1270 136.5 c 0,38,39
 1270 127 1270 127 1260 117 c 128,-1,40
 1250 107 1250 107 1220 94.5 c 128,-1,41
 1190 82 1190 82 1173.5 82 c 0,42,43
 1157 82 1157 82 1151 94 c 2,44,-1
 961 463 l 1,45,-1
 854 463 l 1,46,47
 860 426 860 426 860 393 c 0,48,49
 860 223 860 223 740 103.5 c 128,-1,50
 620 -16 620 -16 451 -16 c 128,-1,51
 282 -16 282 -16 161.5 103.5 c 128,-1,52
 41 223 41 223 41 386.5 c 0,53,54
 41 550 41 550 148.5 669 c 128,-1,55
 256 788 256 788 424 803 c 1,56,-1
 422 899 l 2,0,1
424 729 m 1,57,58
 282 712 282 712 197.5 617.5 c 128,-1,59
 113 523 113 523 113 387.5 c 0,60,61
 113 252 113 252 211.5 153.5 c 128,-1,62
 310 55 310 55 450.5 55 c 0,63,64
 591 55 591 55 688.5 153.5 c 128,-1,65
 786 252 786 252 786 393 c 0,66,67
 786 430 786 430 778 463 c 1,68,-1
 512 463 l 2,69,70
 472 463 472 463 449 488 c 128,-1,71
 426 513 426 513 426 549 c 2,72,-1
 424 729 l 1,57,58
EndSplineSet
EndChar

StartChar: Q.ss01
Encoding: 65554 -1 80
GlifName: Q_.ss01
Width: 593
Flags: MW
HStem: 0 1905<168 307>
VStem: 94 201<1823 1847> 129 125<1606 1624 1583 1628 1583 1628> 191 159
LayerCount: 2
Back
Fore
SplineSet
399 1350 m 1,0,1
 412 1334 412 1334 412 1313.5 c 0,2,3
 412 1293 412 1293 395 1276 c 1,4,5
 477 1194 477 1194 506 1140 c 128,-1,6
 535 1086 535 1086 535 987 c 0,7,8
 535 978 535 978 529.5 890.5 c 0,9,10
 524 803 524 803 524 653 c 0,11,12
 524 624 524 624 511 613 c 128,-1,13
 498 602 498 602 459 602 c 2,14,-1
 354 600 l 1,15,-1
 350 45 l 2,16,17
 350 0 350 0 278 0 c 0,18,19
 206 0 206 0 203 45 c 1,20,-1
 180 598 l 1,21,-1
 123 598 l 2,22,23
 70 598 70 598 70 655 c 2,24,-1
 70 856 l 2,25,26
 70 950 70 950 152 1069 c 1,27,-1
 94 1337 l 2,28,29
 88 1364 88 1364 88 1397 c 0,30,31
 88 1430 88 1430 108.5 1493.5 c 0,32,33
 129 1557 129 1557 129 1606 c 2,34,-1
 129 1628 l 1,35,36
 100 1642 100 1642 98 1690 c 2,37,-1
 94 1823 l 1,38,39
 94 1859 94 1859 124 1882 c 128,-1,40
 154 1905 154 1905 195 1905 c 128,-1,41
 236 1905 236 1905 265.5 1882 c 128,-1,42
 295 1859 295 1859 295 1823 c 1,43,-1
 291 1681 l 2,44,45
 291 1646 291 1646 254 1624 c 1,46,-1
 254 1591 l 2,47,48
 254 1552 254 1552 289 1503 c 2,49,-1
 399 1350 l 1,0,1
EndSplineSet
EndChar

StartChar: R.ss01
Encoding: 65555 -1 81
GlifName: R_.ss01
Width: 1828
Flags: MW
HStem: 461 76 537 135 672 100<1290 1380 1290 1479 1206 1380>
VStem: 817 201 850 137 1049 161 1536 203 1577 129
LayerCount: 2
Back
Fore
SplineSet
645 817 m 1,0,1
 639 913 639 913 639 1100 c 0,2,3
 639 1142 639 1142 660 1174.5 c 128,-1,4
 681 1207 681 1207 725.5 1220 c 128,-1,5
 770 1233 770 1233 810 1260 c 128,-1,6
 850 1287 850 1287 850 1315 c 2,7,-1
 850 1354 l 1,8,9
 823 1367 823 1367 821 1415 c 2,10,-1
 817 1546 l 1,11,12
 817 1582 817 1582 846.5 1605 c 128,-1,13
 876 1628 876 1628 918 1628 c 128,-1,14
 960 1628 960 1628 989 1605 c 128,-1,15
 1018 1582 1018 1582 1018 1546 c 1,16,-1
 1014 1415 l 2,17,18
 1012 1371 1012 1371 987 1354 c 1,19,-1
 987 1315 l 2,20,21
 987 1286 987 1286 1027 1259 c 128,-1,22
 1067 1232 1067 1232 1111 1220.5 c 128,-1,23
 1155 1209 1155 1209 1176.5 1175.5 c 128,-1,24
 1198 1142 1198 1142 1198 1115.5 c 128,-1,25
 1198 1089 1198 1089 1197 1062.5 c 128,-1,26
 1196 1036 1196 1036 1195 994.5 c 0,27,28
 1192.85714286 905.571428571 1192.85714286 905.571428571 1190 817 c 1,29,30
 1060 836 1060 836 916 836 c 128,-1,31
 772 836 772 836 645 817 c 1,0,1
1049 537 m 1,32,33
 1224 548 1224 548 1344 585.5 c 128,-1,34
 1464 623 1464 623 1479 672 c 1,35,-1
 1206 672 l 1,36,37
 1206 710 1206 710 1231 741 c 128,-1,38
 1256 772 1256 772 1290 772 c 2,39,-1
 1380 772 l 1,40,-1
 1450 1040 l 1,41,42
 1460 1085 1460 1085 1477.5 1112 c 128,-1,43
 1495 1139 1495 1139 1525 1167.5 c 128,-1,44
 1555 1196 1555 1196 1566 1217 c 128,-1,45
 1577 1238 1577 1238 1577 1268 c 2,46,-1
 1577 1280 l 1,47,48
 1536 1300 1536 1300 1536 1341 c 2,49,-1
 1536 1481 l 2,50,51
 1536 1516 1536 1516 1567 1539.5 c 128,-1,52
 1598 1563 1598 1563 1638 1563 c 128,-1,53
 1678 1563 1678 1563 1708.5 1539.5 c 128,-1,54
 1739 1516 1739 1516 1739 1481 c 2,55,-1
 1739 1346 l 2,56,57
 1739 1296 1739 1296 1706 1280 c 1,58,-1
 1706 1251 l 2,59,60
 1706 1197 1706 1197 1757 1102 c 1,61,62
 1786 1102 1786 1102 1797 1094 c 128,-1,63
 1808 1086 1808 1086 1808 1062.5 c 128,-1,64
 1808 1039 1808 1039 1793.5 864 c 128,-1,65
 1779 689 1779 689 1774 627.5 c 128,-1,66
 1769 566 1769 566 1766.5 537.5 c 128,-1,67
 1764 509 1764 509 1739 485 c 128,-1,68
 1714 461 1714 461 1675 461 c 2,69,-1
 1219 461 l 1,70,-1
 1200 29 l 2,71,72
 1198.06666667 -9.09494701773e-13 1198.06666667 -9.09494701773e-13 1140.03333333 -4.54747350886e-13 c 128,-1,73
 1082 0 1082 0 1065.5 7 c 128,-1,74
 1049 14 1049 14 1049 33 c 2,75,-1
 1049 537 l 1,32,33
72 1102 m 1,76,77
 20 1102 20 1102 20 1067 c 0,78,79
 20 1051 20 1051 35 866 c 128,-1,80
 50 681 50 681 61 545 c 0,81,82
 64 509 64 509 89.5 485 c 128,-1,83
 115 461 115 461 154 461 c 2,84,-1
 610 461 l 1,85,-1
 631 33 l 2,86,87
 632 0 632 0 706 0 c 128,-1,88
 780 0 780 0 780 33 c 2,89,-1
 780 537 l 1,90,91
 605 548 605 548 485 585.5 c 128,-1,92
 365 623 365 623 350 672 c 1,93,-1
 623 672 l 1,94,95
 623 710 623 710 597.5 741 c 128,-1,96
 572 772 572 772 539 772 c 2,97,-1
 449 772 l 1,98,-1
 381 1040 l 2,99,100
 370 1085 370 1085 352 1112.5 c 128,-1,101
 334 1140 334 1140 304 1168 c 128,-1,102
 274 1196 274 1196 263 1217 c 128,-1,103
 252 1238 252 1238 252 1268 c 2,104,-1
 252 1280 l 1,105,106
 295 1296 295 1296 295 1341 c 2,107,-1
 293 1481 l 2,108,109
 293 1516 293 1516 261.5 1539.5 c 128,-1,110
 230 1563 230 1563 190 1563 c 128,-1,111
 150 1563 150 1563 120 1540 c 128,-1,112
 90 1517 90 1517 90 1481 c 2,113,-1
 90 1346 l 2,114,115
 90 1296 90 1296 123 1280 c 1,116,-1
 123 1251 l 2,117,118
 123 1197 123 1197 72 1102 c 1,76,77
EndSplineSet
EndChar

StartChar: S.ss01
Encoding: 65556 -1 82
GlifName: S_.ss01
Width: 1746
Flags: MW
HStem: 61 217 346 227 655 330
VStem: 76 227
LayerCount: 2
Back
Fore
SplineSet
1282 625 m 1,0,1
 1090 535.127659574 1090 535.127659574 1090 320 c 0,2,3
 1090 174 1090 174 1188 79 c 128,-1,4
 1286 -16 1286 -16 1423 -16 c 128,-1,5
 1560 -16 1560 -16 1659.5 79 c 128,-1,6
 1759 174 1759 174 1759 315.5 c 128,-1,7
 1759 457 1759 457 1663.5 556 c 128,-1,8
 1568 655 1568 655 1423 655 c 0,9,10
 1383 655 1383 655 1341 645 c 1,11,-1
 1214 1030 l 1,12,13
 1208 1053 1208 1053 1200 1062 c 128,-1,14
 1192 1071 1192 1071 1174 1071 c 2,15,-1
 1139 1071 l 1,16,17
 1139 1092 1139 1092 1121 1107 c 128,-1,18
 1103 1122 1103 1122 1075 1122 c 2,19,-1
 883 1122 l 1,20,-1
 784 1417 l 2,21,22
 776 1438 776 1438 776 1457.5 c 128,-1,23
 776 1477 776 1477 784 1495 c 1,24,25
 808 1501 808 1501 826.5 1520 c 128,-1,26
 845 1539 845 1539 847 1555 c 0,27,28
 864 1691 864 1691 864 1716.5 c 128,-1,29
 864 1742 864 1742 833.5 1766 c 128,-1,30
 803 1790 803 1790 762 1790 c 128,-1,31
 721 1790 721 1790 696.5 1768.5 c 128,-1,32
 672 1747 672 1747 670 1710 c 0,33,34
 662 1586 662 1586 662 1568 c 128,-1,35
 662 1550 662 1550 670 1534 c 1,36,-1
 670 1516 l 2,37,38
 670 1499 670 1499 621 1456 c 128,-1,39
 572 1413 572 1413 549 1358 c 1,40,-1
 391 946 l 1,41,42
 381 917 381 917 381 887 c 0,43,44
 383 793 383 793 500 750 c 1,45,-1
 442 631 l 1,46,47
 393 649 393 649 332 649 c 0,48,49
 197 649 197 649 98.5 552 c 128,-1,50
 0 455 0 455 0 315.5 c 128,-1,51
 0 176 0 176 98.5 80 c 128,-1,52
 197 -16 197 -16 332.5 -16 c 128,-1,53
 468 -16 468 -16 562 76.5 c 128,-1,54
 656 169 656 169 664 279 c 1,55,-1
 743 279 l 1,56,-1
 735 240 l 1,57,58
 733 224 733 224 733 219 c 0,59,60
 733 190 733 190 775.5 179 c 128,-1,61
 818 168 818 168 838 168 c 128,-1,62
 858 168 858 168 867.5 177.5 c 128,-1,63
 877 187 877 187 883 219 c 2,64,-1
 911 369 l 1,65,-1
 1243 741 l 1,66,-1
 1282 625 l 1,0,1
934 492 m 1,67,-1
 975 690 l 1,68,-1
 975 692 l 1,69,70
 983 732 983 732 983 755 c 128,-1,71
 983 778 983 778 952 795 c 2,72,-1
 686 946 l 1,73,-1
 725 1143 l 1,74,-1
 805 1006 l 2,75,76
 813 993 813 993 827 989 c 128,-1,77
 841 985 841 985 883 985 c 2,78,-1
 1161 985 l 1,79,-1
 1219 813 l 1,80,-1
 934 492 l 1,67,-1
756 346 m 1,81,-1
 664 346 l 1,82,83
 658 423 658 423 612.5 496 c 128,-1,84
 567 569 567 569 500 602 c 1,85,-1
 559 727 l 1,86,-1
 815 649 l 1,87,-1
 756 346 l 1,81,-1
1604.5 502.5 m 128,-1,89
 1681 427 1681 427 1681 322 c 128,-1,90
 1681 217 1681 217 1603.5 139 c 128,-1,91
 1526 61 1526 61 1422.5 61 c 128,-1,92
 1319 61 1319 61 1242 139 c 128,-1,93
 1165 217 1165 217 1165 305 c 128,-1,94
 1165 393 1165 393 1204.5 456.5 c 128,-1,95
 1244 520 1244 520 1307 551 c 1,96,-1
 1384 320 l 2,97,98
 1396.40909091 281 1396.40909091 281 1421 281 c 0,99,100
 1433 281 1433 281 1442.5 289.5 c 128,-1,101
 1452 298 1452 298 1452 309.5 c 128,-1,102
 1452 321 1452 321 1444 342 c 2,103,-1
 1366 571 l 1,104,105
 1406 578 1406 578 1423 578 c 0,106,88
 1528 578 1528 578 1604.5 502.5 c 128,-1,89
332 573 m 0,107,108
 377 573 377 573 412 561 c 1,109,-1
 311 338 l 2,110,111
 303 319 303 319 303 307 c 0,112,113
 303 279 303 279 332 279 c 2,114,-1
 586 279 l 1,115,116
 578 197 578 197 505.5 129 c 128,-1,117
 433 61 433 61 331 61 c 128,-1,118
 229 61 229 61 152.5 137.5 c 128,-1,119
 76 214 76 214 76 318 c 128,-1,120
 76 422 76 422 152.5 497.5 c 128,-1,121
 229 573 229 573 332 573 c 0,107,108
469 533 m 1,122,123
 515 506 515 506 549.5 453.5 c 128,-1,124
 584 401 584 401 588 346 c 1,125,-1
 385 346 l 1,126,-1
 469 533 l 1,122,123
EndSplineSet
EndChar

StartChar: T.ss01
Encoding: 65557 -1 83
GlifName: T_.ss01
Width: 1249
Flags: MW
HStem: 571 41<944 993>
VStem: 82 1188
LayerCount: 2
Back
Fore
SplineSet
1051 1073 m 2,0,1
 1051 1085 1051 1085 1038.5 1085 c 128,-1,2
 1026 1085 1026 1085 1018 1075 c 2,3,-1
 768 758 l 1,4,5
 791 687 791 687 852 649.5 c 128,-1,6
 913 612 913 612 999 612 c 1,7,-1
 1042 725 l 1,8,-1
 1171 725 l 2,9,10
 1225 725 1225 725 1247.5 773 c 128,-1,11
 1270 821 1270 821 1270 839.5 c 128,-1,12
 1270 858 1270 858 1239 877 c 1,13,-1
 1051 985 l 1,14,-1
 1051 1073 l 2,0,1
168 674 m 1,15,16
 127 100 127 100 127 43 c 0,17,18
 127 0 127 0 204.5 0 c 128,-1,19
 282 0 282 0 289 43 c 2,20,-1
 350 422 l 1,21,22
 491 360 491 360 639 360 c 2,23,-1
 793 360 l 1,24,-1
 821 43 l 2,25,26
 825 0 825 0 908 0 c 128,-1,27
 991 0 991 0 991 43 c 2,28,-1
 993 571 l 1,29,30
 892 571 892 571 830 610 c 128,-1,31
 768 649 768 649 735 733 c 1,32,-1
 82 801 l 1,33,34
 82 766 82 766 108 726.5 c 128,-1,35
 134 687 134 687 168 674 c 1,15,16
EndSplineSet
EndChar

StartChar: U.ss01
Encoding: 65558 -1 84
GlifName: U_.ss01
Width: 796
Flags: MW
HStem: 459 369 459 369<262 476 459 476 459 530>
VStem: 271 250 301 191 336 120
LayerCount: 2
Back
Fore
SplineSet
262 459 m 1,0,-1
 281 629 l 1,1,-1
 166 524 l 2,2,3
 142 502 142 502 119 502 c 0,4,5
 96 502 96 502 74 524 c 0,6,7
 55 546 55 546 55 569.5 c 0,8,9
 55 593 55 593 78 616 c 2,10,-1
 242 780 l 1,11,12
 287 827 287 827 334 827 c 1,13,-1
 338 864 l 1,14,15
 308 873 308 873 305 920 c 0,16,17
 301 1006 301 1006 301 1027.5 c 0,18,19
 301 1049 301 1049 325 1072.5 c 128,-1,20
 349 1096 349 1096 397 1096 c 128,-1,21
 445 1096 445 1096 468.5 1072.5 c 128,-1,22
 492 1049 492 1049 492 1032.5 c 0,23,24
 492 1016 492 1016 489 979.5 c 0,25,26
 486 943 486 943 484 907.5 c 0,27,28
 482 872 482 872 453 864 c 1,29,-1
 459 827 l 1,30,31
 506 827 506 827 551 780 c 1,32,-1
 717 614 l 2,33,34
 741 590 741 590 741 565 c 128,-1,35
 741 540 741 540 720 519 c 0,36,37
 699 498 699 498 676 498 c 0,38,39
 653 498 653 498 631 520 c 1,40,-1
 512 629 l 1,41,-1
 530 459 l 1,42,-1
 262 459 l 1,0,-1
117 258 m 1,43,44
 100 238 100 238 100 216 c 0,45,46
 100 194 100 194 113 178 c 2,47,-1
 231 25 l 1,48,49
 252 0 252 0 269 0 c 0,50,51
 286 0 286 0 318 24.5 c 0,52,53
 350 49 350 49 350 62 c 0,54,55
 350 75 350 75 340 90 c 2,56,-1
 268 190 l 1,57,-1
 371 287 l 1,58,-1
 254 403 l 1,59,-1
 117 258 l 1,43,44
676 258 m 1,60,61
 694 236 694 236 694 217 c 128,-1,62
 694 198 694 198 680 178 c 1,63,-1
 559 25 l 1,64,65
 541 0 541 0 526 0 c 0,66,67
 511 0 511 0 494 10 c 0,68,69
 442 47 442 47 442 68 c 0,70,71
 442 74 442 74 449 84 c 2,72,-1
 524 190 l 1,73,-1
 422 287 l 1,74,-1
 539 403 l 1,75,-1
 676 258 l 1,60,61
EndSplineSet
EndChar

StartChar: A.ss02
Encoding: 65559 -1 85
GlifName: A_.ss02
Width: 1474
Flags: MW
HStem: 0 166 63 168
VStem: 436 274 639 199<1413 1503 1413 1528> 711 55
LayerCount: 2
Back
Fore
SplineSet
739 1307 m 1,0,-1
 379 1118 l 1,1,-1
 379 1212 l 2,2,3
 379 1231 379 1231 390 1236 c 128,-1,4
 401 1241 401 1241 436 1241 c 1,5,-1
 436 1376 l 2,6,7
 436 1398 436 1398 455 1405.5 c 128,-1,8
 474 1413 474 1413 518 1413 c 2,9,-1
 639 1413 l 1,10,-1
 639 1503 l 2,11,12
 639 1563 639 1563 738.5 1563 c 128,-1,13
 838 1563 838 1563 838 1503 c 2,14,-1
 838 1413 l 1,15,-1
 958 1413 l 2,16,17
 1003 1413 1003 1413 1022.5 1405.5 c 128,-1,18
 1042 1398 1042 1398 1042 1376 c 2,19,-1
 1042 1241 l 1,20,21
 1075 1241 1075 1241 1086.5 1236 c 128,-1,22
 1098 1231 1098 1231 1098 1212 c 2,23,-1
 1098 1118 l 1,24,-1
 739 1307 l 1,0,-1
711 233 m 1,25,26
 675 238 675 238 612.5 267.5 c 128,-1,27
 550 297 550 297 518.5 297 c 128,-1,28
 487 297 487 297 459 293 c 1,29,-1
 367 678 l 1,30,31
 334.242524917 799.395348837 334.242524917 799.395348837 315.621262458 833.697674419 c 128,-1,32
 297 868 297 868 274.5 906.5 c 128,-1,33
 252 945 252 945 252 968.5 c 128,-1,34
 252 992 252 992 295 1014 c 2,35,-1
 711 1233 l 1,36,-1
 711 233 l 1,25,26
1189.5 884 m 0,37,38
 1192 888 1192 888 1208.5 916.5 c 128,-1,39
 1225 945 1225 945 1225 968.5 c 128,-1,40
 1225 992 1225 992 1182 1014 c 2,41,-1
 766 1233 l 1,42,-1
 766 233 l 1,43,44
 807 238 807 238 866 267.5 c 128,-1,45
 925 297 925 297 959.5 297 c 128,-1,46
 994 297 994 297 1018 293 c 1,47,-1
 1112 678 l 1,48,49
 1147.0802139 816.128342246 1147.0802139 816.128342246 1189.5 884 c 0,37,38
39 63 m 0,50,51
 0 63 0 63 0 133 c 2,52,-1
 -0 160 l 2,53,54
 0 231 0 231 39 231 c 0,55,56
 93 231 93 231 156 198.5 c 128,-1,57
 219 166 219 166 273.5 166 c 128,-1,58
 328 166 328 166 393 198.5 c 128,-1,59
 458 231 458 231 503.5 231 c 128,-1,60
 549 231 549 231 617 198.5 c 128,-1,61
 685 166 685 166 739 166 c 128,-1,62
 793 166 793 166 861 198.5 c 128,-1,63
 929 231 929 231 975 231 c 128,-1,64
 1021 231 1021 231 1086 198.5 c 128,-1,65
 1151 166 1151 166 1208.5 166 c 128,-1,66
 1266 166 1266 166 1325 198.5 c 128,-1,67
 1384 231 1384 231 1436 231 c 0,68,69
 1475 231 1475 231 1475 160 c 2,70,-1
 1475 133 l 2,71,72
 1475 63 1475 63 1436 63 c 0,73,74
 1382 63 1382 63 1323 31.5 c 128,-1,75
 1264 0 1264 0 1208.5 0 c 128,-1,76
 1153 0 1153 0 1086 31.5 c 128,-1,77
 1019 63 1019 63 973 63 c 128,-1,78
 927 63 927 63 859 31.5 c 128,-1,79
 791 0 791 0 739 0 c 128,-1,80
 687 0 687 0 617 31.5 c 128,-1,81
 547 63 547 63 503.5 63 c 128,-1,82
 460 63 460 63 393 31.5 c 128,-1,83
 326 0 326 0 271.5 0 c 128,-1,84
 217 0 217 0 156 31.5 c 128,-1,85
 95 63 95 63 39 63 c 0,50,51
EndSplineSet
EndChar

StartChar: B.ss02
Encoding: 65560 -1 86
GlifName: B_.ss02
Width: 1806
Flags: MW
HStem: 0 139<783 1694 795 1694> 418 139<934 1092 934 1092 934 1171 1171 1311 1391 1509> 793 121<1000 1028 1028 1092 555 1171 1171 1260>
VStem: 934 158<418 557 418 557> 1171 139<418 557 418 557> 1391 119<418 557 557 557>
LayerCount: 2
Back
Fore
SplineSet
1028 793 m 2,0,1
 987 793 987 793 972 786 c 128,-1,2
 957 779 957 779 938 752 c 1,3,-1
 915 715 l 1,4,-1
 178 715 l 1,5,-1
 125 842 l 2,6,7
 112 872 112 872 66 872 c 128,-1,8
 20 872 20 872 20 852 c 2,9,-1
 20 655 l 2,10,11
 20 594.928571429 20 594.928571429 82 575 c 2,12,-1
 756 356 l 1,13,-1
 813 238 l 1,14,15
 822 217 822 217 839.5 208 c 128,-1,16
 857 199 857 199 897 199 c 2,17,-1
 1489 199 l 2,18,19
 1595 199 1595 199 1690.5 261 c 128,-1,20
 1786 323 1786 323 1786 397 c 1,21,-1
 1589 674 l 2,22,23
 1570 700 1570 700 1553 707.5 c 128,-1,24
 1536 715 1536 715 1495 715 c 2,25,-1
 1372 715 l 1,26,-1
 1350 752 l 1,27,28
 1331 779 1331 779 1316 786 c 128,-1,29
 1301 793 1301 793 1260 793 c 2,30,-1
 1171 793 l 1,31,-1
 1171 913 l 1,32,-1
 1708 913 l 2,33,34
 1726 913 1726 913 1726 938 c 2,35,-1
 1726 967 l 2,36,37
 1726 991 1726 991 1708 991 c 2,38,-1
 555 991 l 2,39,40
 537 991 537 991 537 967 c 2,41,-1
 537 938 l 2,42,43
 537 913 537 913 555 913 c 2,44,-1
 1092 913 l 1,45,-1
 1092 793 l 1,46,-1
 1028 793 l 2,0,1
934 418 m 1,47,-1
 934 557 l 1,48,-1
 1092 557 l 1,49,-1
 1092 418 l 1,50,-1
 934 418 l 1,47,-1
1171 557 m 1,51,-1
 1311 557 l 1,52,-1
 1311 418 l 1,53,-1
 1171 418 l 1,54,-1
 1171 557 l 1,51,-1
1509 557 m 1,55,-1
 1589 418 l 1,56,-1
 1391 418 l 1,57,-1
 1391 557 l 1,58,-1
 1509 557 l 1,55,-1
795 0 m 2,59,60
 762 0 762 0 762 43 c 2,61,-1
 762 96 l 2,62,63
 762 139 762 139 795 139 c 2,64,-1
 1694 139 l 2,65,66
 1726 139 1726 139 1726 96 c 2,67,-1
 1726 43 l 2,68,69
 1726 0 1726 0 1694 0 c 2,70,-1
 795 0 l 2,59,60
EndSplineSet
EndChar

StartChar: C.ss02
Encoding: 65561 -1 87
GlifName: C_.ss02
Width: 1636
Flags: MW
HStem: 0 1554<315 1559 1450 1559>
VStem: 41 1554<277 1516 1408 1516>
LayerCount: 2
Back
Fore
SplineSet
1583 1541.5 m 128,-1,1
 1571 1554 1571 1554 1523 1554 c 128,-1,2
 1475 1554 1475 1554 1422 1527 c 128,-1,3
 1369 1500 1369 1500 1288 1425 c 1,4,-1
 1004 1145 l 1,5,-1
 139 1503 l 1,6,7
 123 1507 123 1507 121 1507 c 0,8,9
 92 1507 92 1507 72 1475 c 2,10,-1
 51 1442 l 2,11,12
 41 1425 41 1425 41 1411.5 c 128,-1,13
 41 1398 41 1398 59 1380 c 1,14,-1
 662 850 l 1,15,-1
 281 336 l 1,16,-1
 88 336 l 2,17,18
 70 336 70 336 55.5 315.5 c 128,-1,19
 41 295 41 295 41 281 c 128,-1,20
 41 267 41 267 55 256 c 1,21,-1
 203 164 l 1,22,-1
 297 16 l 2,23,24
 308 0 308 0 319.5 0 c 128,-1,25
 331 0 331 0 353 14 c 128,-1,26
 375 28 375 28 375 53 c 2,27,-1
 375 238 l 1,28,-1
 891 621 l 1,29,-1
 1425 14 l 1,30,31
 1439 0 1439 0 1452.5 0 c 128,-1,32
 1466 0 1466 0 1489 14 c 0,33,34
 1548 50 1548 50 1548 80 c 0,35,36
 1548 89 1548 89 1542 104 c 2,37,-1
 1186 963 l 1,38,-1
 1464 1247 l 1,39,40
 1595 1378 1595 1378 1595 1491 c 0,41,0
 1595 1529 1595 1529 1583 1541.5 c 128,-1,1
EndSplineSet
EndChar

StartChar: D.ss02
Encoding: 65562 -1 88
GlifName: D_.ss02
Width: 1769
Flags: MW
HStem: 16 221
VStem: 41 1757<193 530>
LayerCount: 2
Back
Fore
SplineSet
1798 512 m 0,0,1
 1798 463 1798 463 1730 396.5 c 128,-1,2
 1662 330 1662 330 1579 299 c 1,3,-1
 784 18 l 2,4,5
 731 0 731 0 694.5 0 c 0,6,7
 658 0 658 0 395 10 c 1,8,-1
 393 10 l 1,9,10
 359 12 359 12 213 16 c 0,11,12
 177 16 177 16 150 53 c 1,13,-1
 49 176 l 2,14,15
 41 187 41 187 41 201.5 c 0,16,17
 41 216 41 216 67.5 234 c 0,18,19
 94 252 94 252 108 252 c 0,20,21
 122 252 122 252 150 238 c 1,22,-1
 289 160 l 1,23,-1
 680 303 l 1,24,-1
 150 809 l 2,25,26
 121 836 121 836 121 849 c 0,27,28
 121 862 121 862 139.5 880.5 c 0,29,30
 158 899 158 899 184.5 914.5 c 128,-1,31
 211 930 211 930 224 930 c 0,32,33
 237 930 237 930 258 920 c 2,34,-1
 1241 496 l 1,35,-1
 1479 575 l 1,36,37
 1543 594 1543 594 1611 594 c 0,38,39
 1679 594 1679 594 1738.5 568.5 c 128,-1,40
 1798 543 1798 543 1798 512 c 0,0,1
EndSplineSet
EndChar

StartChar: E.ss02
Encoding: 65563 -1 89
GlifName: E_.ss02
Width: 1415
Flags: MW
HStem: -2 100<845 871> 61 98<680 708> 117 100<518 546>
VStem: 481 100<153 180> 643 100<97 124> 809 98<34 61>
LayerCount: 2
Back
Fore
SplineSet
481 1291 m 2,0,1
 481 1331 481 1331 518 1331 c 2,2,-1
 571 1331 l 2,3,4
 617 1331 617 1331 627 1309 c 2,5,-1
 1038 395 l 1,6,-1
 1202 317 l 2,7,8
 1304 269 1304 269 1359.5 197 c 128,-1,9
 1415 125 1415 125 1415 80 c 0,10,11
 1415 72 1415 72 1413 68 c 0,12,13
 1406 52 1406 52 1365 36 c 128,-1,14
 1324 20 1324 20 1258.5 20 c 128,-1,15
 1193 20 1193 20 1102 57 c 2,16,-1
 444 330 l 2,17,18
 397 350 397 350 358 389 c 1,19,-1
 29 731 l 1,20,21
 0 763.222222222 0 763.222222222 0 796.611111111 c 128,-1,22
 0 830 0 830 20 950 c 0,23,24
 22.25 977 22.25 977 51 977 c 0,25,26
 61 977 61 977 83.5 968 c 128,-1,27
 106 959 106 959 113 952 c 128,-1,28
 120 945 120 945 127 922 c 2,29,-1
 182 764 l 1,30,-1
 485 631 l 1,31,-1
 537 610 l 1,32,-1
 481 1286 l 1,33,-1
 481 1291 l 2,0,1
495.5 131.5 m 128,-1,35
 481 146 481 146 481 167 c 128,-1,36
 481 188 481 188 495.5 202.5 c 128,-1,37
 510 217 510 217 531 217 c 128,-1,38
 552 217 552 217 567 202.5 c 128,-1,39
 582 188 582 188 582 167 c 128,-1,40
 582 146 582 146 567 131.5 c 128,-1,41
 552 117 552 117 531 117 c 128,-1,34
 510 117 510 117 495.5 131.5 c 128,-1,35
657.5 75.5 m 128,-1,43
 643 90 643 90 643 110.5 c 128,-1,44
 643 131 643 131 657.5 145.5 c 128,-1,45
 672 160 672 160 693 160 c 128,-1,46
 714 160 714 160 728.5 145.5 c 128,-1,47
 743 131 743 131 743 111 c 128,-1,48
 743 91 743 91 728.5 76 c 128,-1,49
 714 61 714 61 693 61 c 128,-1,42
 672 61 672 61 657.5 75.5 c 128,-1,43
823.5 12.5 m 128,-1,51
 809 27 809 27 809 48 c 128,-1,52
 809 69 809 69 823.5 83.5 c 128,-1,53
 838 98 838 98 858 98 c 128,-1,54
 878 98 878 98 892.5 83.5 c 128,-1,55
 907 69 907 69 907 48 c 128,-1,56
 907 27 907 27 892.5 12.5 c 128,-1,57
 878 -2 878 -2 858 -2 c 128,-1,50
 838 -2 838 -2 823.5 12.5 c 128,-1,51
EndSplineSet
EndChar

StartChar: F.ss02
Encoding: 65564 -1 90
GlifName: F_.ss02
Width: 1849
Flags: MW
HStem: -16 78<312 453 312 478 1401 1539> 285 63<370 639 434 637 715 776> 578 76<312 406> 754 63<639 883 649 670 752 797 752 752 862 862 862 883> 1008 63<1030 1225 1040 1202>
VStem: 47 76<251 391 251 414> 639 76<285 348> 797 66<387 754 387 754 387 754> 1137 76<251 369 251 389> 1729 78<251 391>
LayerCount: 2
Back
Fore
SplineSet
1137 319 m 0,0,1
 1137 535.127659574 1137 535.127659574 1329 625 c 1,2,-1
 1290 743 l 1,3,-1
 913 319 l 1,4,5
 913 287 913 287 893.5 266.5 c 128,-1,6
 874 246 874 246 848.5 246 c 0,7,8
 791.764705882 246 791.764705882 246 778 285 c 1,9,-1
 715 285 l 1,10,11
 706.507629705 176.722278739 706.507629705 176.722278739 618 84 c 0,12,13
 576 40 576 40 513.5 12 c 128,-1,14
 451 -16 451 -16 381 -16 c 0,15,16
 245 -16 245 -16 146 80.5 c 128,-1,17
 47 177 47 177 47 317.5 c 128,-1,18
 47 458 47 458 146.5 555.5 c 128,-1,19
 246 653 246 653 381 653 c 0,20,21
 478 653 478 653 555 606 c 1,22,-1
 670 754 l 1,23,-1
 649 754 l 2,24,25
 635 754 635 754 625.5 763.5 c 128,-1,26
 616 773 616 773 616 785.5 c 128,-1,27
 616 798 616 798 626 807.5 c 128,-1,28
 636 817 636 817 649 817 c 2,29,-1
 883 817 l 2,30,31
 896 817 896 817 905.5 807.5 c 128,-1,32
 915 798 915 798 915 785.5 c 128,-1,33
 915 773 915 773 906 763.5 c 128,-1,34
 897 754 897 754 883 754 c 2,35,-1
 862 754 l 1,36,-1
 862 387 l 1,37,38
 873 384 873 384 881 379 c 1,39,-1
 1266 815 l 1,40,-1
 1202 1008 l 1,41,-1
 1040 1008 l 2,42,43
 1026 1008 1026 1008 1017 1017.5 c 128,-1,44
 1008 1027 1008 1027 1008 1039.5 c 128,-1,45
 1008 1052 1008 1052 1017.5 1061.5 c 128,-1,46
 1027 1071 1027 1071 1040 1071 c 2,47,-1
 1225 1071 l 2,48,49
 1250 1071 1250 1071 1262 1030 c 1,50,-1
 1389 645 l 1,51,52
 1431 655 1431 655 1470 655 c 0,53,54
 1615 655 1615 655 1710.5 555.5 c 128,-1,55
 1806 456 1806 456 1806 314.5 c 128,-1,56
 1806 173 1806 173 1706.5 78.5 c 128,-1,57
 1607 -16 1607 -16 1470 -16 c 128,-1,58
 1333 -16 1333 -16 1235 78.5 c 128,-1,59
 1137 173 1137 173 1137 319 c 0,0,1
752 754 m 1,60,-1
 604 567 l 1,61,62
 650 527 650 527 680 467 c 128,-1,63
 710 407 710 407 715 348 c 1,64,-1
 776 348 l 1,65,66
 785 364 785 364 797 373 c 1,67,-1
 797 754 l 1,68,-1
 752 754 l 1,60,-1
381 285 m 2,69,70
 340 285 340 285 340 313 c 0,71,72
 340 331 340 331 348 342 c 2,73,-1
 508 547 l 1,74,75
 451 578 451 578 381 578 c 0,76,77
 277 578 277 578 200 501.5 c 128,-1,78
 123 425 123 425 123 320.5 c 128,-1,79
 123 216 123 216 200.5 138.5 c 128,-1,80
 278 61 278 61 380 61 c 128,-1,81
 482 61 482 61 555.5 131.5 c 128,-1,82
 629 202 629 202 637 285 c 1,83,-1
 381 285 l 2,69,70
1651 138.5 m 128,-1,85
 1729 216 1729 216 1729 321 c 128,-1,86
 1729 426 1729 426 1652 502 c 128,-1,87
 1575 578 1575 578 1470 578 c 0,88,89
 1453 578 1453 578 1413 571 c 1,90,-1
 1491 342 l 2,91,92
 1499 321 1499 321 1499 309.5 c 128,-1,93
 1499 298 1499 298 1489.5 289.5 c 128,-1,94
 1480 281 1480 281 1467.5 281 c 0,95,96
 1444.09090909 281 1444.09090909 281 1432 319 c 2,97,-1
 1354 551 l 1,98,99
 1291 520 1291 520 1251.5 456 c 128,-1,100
 1212 392 1212 392 1212 304 c 128,-1,101
 1212 216 1212 216 1289 138.5 c 128,-1,102
 1366 61 1366 61 1469.5 61 c 128,-1,84
 1573 61 1573 61 1651 138.5 c 128,-1,85
434 348 m 1,103,-1
 639 348 l 1,104,105
 632 441 632 441 559 508 c 1,106,-1
 434 348 l 1,103,-1
EndSplineSet
EndChar

StartChar: G.ss02
Encoding: 65565 -1 91
GlifName: G_.ss02
Width: 1540
Flags: MW
HStem: 250 150<275 317 1223 1265> 508 412<104 1124 428 1124 428 1235 309 1124 428 1436>
VStem: 219 152<303 344> 1169 150<303 344>
LayerCount: 2
Back
Fore
SplineSet
1352 0 m 2,0,1
 1456 0 1456 0 1456 63 c 2,2,-1
 1456 215 l 1,3,-1
 1479 426 l 1,4,5
 1479 471 1479 471 1436 508 c 2,6,-1
 1403 537 l 1,7,-1
 1251 1036 l 1,8,9
 1242 1069 1242 1069 1169 1069 c 2,10,-1
 371 1069 l 2,11,12
 298 1069 298 1069 289 1036 c 1,13,-1
 137 537 l 1,14,-1
 104 508 l 2,15,16
 61 471 61 471 61 432.666666667 c 128,-1,17
 61 394.333333333 61 394.333333333 86 211 c 1,18,-1
 86 61 l 2,19,20
 86 28 86 28 111.5 13 c 128,-1,21
 137 -2 137 -2 197 -2 c 2,22,-1
 299 -2 l 2,23,24
 359 -2 359 -2 380 16.5 c 128,-1,25
 401 35 401 35 401 86 c 1,26,-1
 1141 88 l 1,27,28
 1141 37 1141 37 1163.5 18.5 c 128,-1,29
 1186 0 1186 0 1245 0 c 2,30,-1
 1352 0 l 2,0,1
309 508 m 1,31,-1
 428 920 l 1,32,-1
 1124 920 l 1,33,-1
 1235 508 l 1,34,-1
 309 508 l 1,31,-1
371 324 m 128,-1,36
 371 293 371 293 349.5 271.5 c 128,-1,37
 328 250 328 250 296.5 250 c 128,-1,38
 265 250 265 250 242 271.5 c 128,-1,39
 219 293 219 293 219 324 c 128,-1,40
 219 355 219 355 242 377 c 128,-1,41
 265 399 265 399 296.5 399 c 128,-1,42
 328 399 328 399 349.5 377 c 128,-1,35
 371 355 371 355 371 324 c 128,-1,36
1319 324 m 128,-1,44
 1319 293 1319 293 1297 271.5 c 128,-1,45
 1275 250 1275 250 1243.5 250 c 128,-1,46
 1212 250 1212 250 1190.5 271.5 c 128,-1,47
 1169 293 1169 293 1169 324 c 128,-1,48
 1169 355 1169 355 1190.5 377 c 128,-1,49
 1212 399 1212 399 1243.5 399 c 128,-1,50
 1275 399 1275 399 1297 377 c 128,-1,43
 1319 355 1319 355 1319 324 c 128,-1,44
EndSplineSet
EndChar

StartChar: H.ss02
Encoding: 65566 -1 92
GlifName: H_.ss02
Width: 1540
Flags: MW
HStem: 87 163 399 109 920 150
VStem: 86 133<61 344 211 344> 1319 137
LayerCount: 2
Back
Fore
SplineSet
1456 63 m 2,0,1
 1456 0 1456 0 1352 0 c 2,2,-1
 1245 0 l 2,3,4
 1186 0 1186 0 1163.5 18.5 c 128,-1,5
 1141 37 1141 37 1141 88 c 1,6,-1
 401 86 l 1,7,8
 401 35 401 35 380 16.5 c 128,-1,9
 359 -2 359 -2 299 -2 c 2,10,-1
 197 -2 l 2,11,12
 137 -2 137 -2 111.5 13 c 128,-1,13
 86 28 86 28 86 61 c 2,14,-1
 86 211 l 1,15,16
 61 394.333333333 61 394.333333333 61 432.666666667 c 128,-1,17
 61 471 61 471 104 508 c 2,18,-1
 137 537 l 1,19,-1
 289 1036 l 1,20,21
 298 1069 298 1069 371 1069 c 2,22,-1
 559 1069 l 1,23,-1
 573 1118 l 2,24,25
 580 1143 580 1143 627 1143 c 2,26,-1
 924 1143 l 2,27,28
 972 1143 972 1143 979 1118 c 2,29,-1
 991 1069 l 1,30,-1
 1169 1069 l 2,31,32
 1242 1069 1242 1069 1251 1036 c 1,33,-1
 1403 537 l 1,34,-1
 1436 508 l 2,35,36
 1479 471 1479 471 1479 426 c 1,37,-1
 1456 215 l 1,38,-1
 1456 63 l 2,0,1
1235 508 m 1,39,-1
 1124 920 l 1,40,-1
 428 920 l 1,41,-1
 309 508 l 1,42,-1
 1235 508 l 1,39,-1
242 271.5 m 128,-1,44
 265 250 265 250 296.5 250 c 128,-1,45
 328 250 328 250 349.5 271.5 c 128,-1,46
 371 293 371 293 371 324 c 128,-1,47
 371 355 371 355 349.5 377 c 128,-1,48
 328 399 328 399 296.5 399 c 128,-1,49
 265 399 265 399 242 377 c 128,-1,50
 219 355 219 355 219 324 c 128,-1,43
 219 293 219 293 242 271.5 c 128,-1,44
1190.5 271.5 m 128,-1,52
 1212 250 1212 250 1243.5 250 c 128,-1,53
 1275 250 1275 250 1297 271.5 c 128,-1,54
 1319 293 1319 293 1319 324 c 128,-1,55
 1319 355 1319 355 1297 377 c 128,-1,56
 1275 399 1275 399 1243.5 399 c 128,-1,57
 1212 399 1212 399 1190.5 377 c 128,-1,58
 1169 355 1169 355 1169 324 c 128,-1,51
 1169 293 1169 293 1190.5 271.5 c 128,-1,52
EndSplineSet
EndChar

StartChar: I.ss02
Encoding: 65567 -1 93
GlifName: I_.ss02
Width: 1540
Flags: MW
HStem: 250 150 508 412 1069 201 1294 137<727 928 727 1141> 1456 82
VStem: 219 152 307 72 463 264 1169 150
LayerCount: 2
Back
Fore
SplineSet
403 1538 m 0,0,1
 416.428571429 1538 416.428571429 1538 635 1520 c 0,2,3
 678 1517 678 1517 702.5 1492.5 c 128,-1,4
 727 1468 727 1468 727 1432 c 1,5,-1
 1141 1432 l 2,6,7
 1154 1432 1154 1432 1159 1423 c 1,8,-1
 1200 1370 l 2,9,10
 1202 1368 1202 1368 1202 1362 c 128,-1,11
 1202 1356 1202 1356 1198 1352 c 2,12,-1
 1139 1298 l 1,13,14
 1134 1295 1134 1295 1130 1295 c 128,-1,15
 1126 1295 1126 1295 1122 1300 c 2,16,-1
 1090 1343 l 2,17,18
 1085 1349 1085 1349 1082 1349 c 128,-1,19
 1079 1349 1079 1349 1075 1343 c 2,20,-1
 1042 1298 l 2,21,22
 1039 1294 1039 1294 1035 1294 c 128,-1,23
 1031 1294 1031 1294 1028 1298 c 2,24,-1
 993 1343 l 2,25,26
 990 1348 990 1348 986 1348 c 128,-1,27
 982 1348 982 1348 979 1343 c 2,28,-1
 946 1303 l 1,29,30
 940 1294 940 1294 928 1294 c 2,31,-1
 727 1294 l 1,32,33
 727 1258 727 1258 702.5 1234.5 c 0,34,35
 667.574468085 1201 667.574468085 1201 545 1201 c 1,36,37
 413 1190 413 1190 403 1190 c 0,38,39
 331 1190 331 1190 307 1241 c 1,40,41
 289 1289 289 1289 289 1366.5 c 128,-1,42
 289 1444 289 1444 310 1491 c 128,-1,43
 331 1538 331 1538 403 1538 c 0,0,1
463 1415 m 2,44,45
 463 1456 463 1456 440 1456 c 2,46,-1
 401 1456 l 2,47,48
 379 1456 379 1456 379 1415 c 2,49,-1
 379 1311 l 2,50,51
 379 1270 379 1270 401 1270 c 2,52,-1
 440 1270 l 2,53,54
 463 1270 463 1270 463 1311 c 2,55,-1
 463 1415 l 2,44,45
1352 0 m 2,56,57
 1456 0 1456 0 1456 63 c 2,58,-1
 1456 215 l 1,59,-1
 1479 426 l 1,60,61
 1479 471 1479 471 1436 508 c 2,62,-1
 1403 537 l 1,63,-1
 1251 1036 l 1,64,65
 1242 1069 1242 1069 1169 1069 c 2,66,-1
 371 1069 l 2,67,68
 298 1069 298 1069 289 1036 c 1,69,-1
 137 537 l 1,70,-1
 104 508 l 2,71,72
 61 471 61 471 61 432.666666667 c 128,-1,73
 61 394.333333333 61 394.333333333 86 211 c 1,74,-1
 86 61 l 2,75,76
 86 28 86 28 111.5 13 c 128,-1,77
 137 -2 137 -2 197 -2 c 2,78,-1
 299 -2 l 2,79,80
 359 -2 359 -2 380 16.5 c 128,-1,81
 401 35 401 35 401 86 c 1,82,-1
 1141 88 l 1,83,84
 1141 37 1141 37 1163.5 18.5 c 128,-1,85
 1186 0 1186 0 1245 0 c 2,86,-1
 1352 0 l 2,56,57
309 508 m 1,87,-1
 428 920 l 1,88,-1
 1124 920 l 1,89,-1
 1235 508 l 1,90,-1
 309 508 l 1,87,-1
371 324 m 128,-1,92
 371 293 371 293 349.5 271.5 c 128,-1,93
 328 250 328 250 296.5 250 c 128,-1,94
 265 250 265 250 242 271.5 c 128,-1,95
 219 293 219 293 219 324 c 128,-1,96
 219 355 219 355 242 377 c 128,-1,97
 265 399 265 399 296.5 399 c 128,-1,98
 328 399 328 399 349.5 377 c 128,-1,91
 371 355 371 355 371 324 c 128,-1,92
1319 324 m 128,-1,100
 1319 293 1319 293 1297 271.5 c 128,-1,101
 1275 250 1275 250 1243.5 250 c 128,-1,102
 1212 250 1212 250 1190.5 271.5 c 128,-1,103
 1169 293 1169 293 1169 324 c 128,-1,104
 1169 355 1169 355 1190.5 377 c 128,-1,105
 1212 399 1212 399 1243.5 399 c 128,-1,106
 1275 399 1275 399 1297 377 c 128,-1,99
 1319 355 1319 355 1319 324 c 128,-1,100
EndSplineSet
EndChar

StartChar: J.ss02
Encoding: 65568 -1 94
GlifName: J_.ss02
Width: 1597
Flags: MW
HStem: 88 160<305 1163 305 434> 397 111<305 347 1255 1296> 1239 106<680 915 915 930 680 1290> 1427 100<667 680 680 915>
VStem: 82 170<301 508 301 517> 119 315<63 88 54 193 54 193> 1163 315<54 63 63 88> 1352 164<301 362>
LayerCount: 2
Back
Fore
SplineSet
1479 63 m 2,0,1
 1479 0 1479 0 1374 0 c 2,2,-1
 1268 0 l 2,3,4
 1209 0 1209 0 1186 19 c 128,-1,5
 1163 38 1163 38 1163 88 c 1,6,-1
 434 88 l 1,7,8
 434 37 434 37 413 18.5 c 128,-1,9
 392 0 392 0 332 0 c 2,10,-1
 229 0 l 2,11,12
 169 0 169 0 144 15 c 128,-1,13
 119 30 119 30 119 63 c 2,14,-1
 119 193 l 1,15,-1
 88 319 l 2,16,17
 82 343 82 343 82 362 c 2,18,-1
 82 508 l 2,19,20
 82 537 82 537 86 573 c 2,21,-1
 164 1470 l 2,22,23
 167 1509 167 1509 179.5 1518.5 c 128,-1,24
 192 1528 192 1528 244 1528 c 2,25,-1
 1366 1528 l 2,26,27
 1407 1528 1407 1528 1418 1517.5 c 128,-1,28
 1429 1507 1429 1507 1432 1470 c 2,29,-1
 1511 573 l 1,30,31
 1516 528 1516 528 1516 508 c 2,32,-1
 1516 362 l 2,33,34
 1516 346 1516 346 1509 322 c 1,35,-1
 1479 193 l 1,36,-1
 1479 63 l 2,0,1
956 1405 m 2,37,38
 956 1427 956 1427 915 1427 c 2,39,-1
 680 1427 l 2,40,41
 641 1427 641 1427 641 1405 c 2,42,-1
 641 1368 l 2,43,44
 641 1346 641 1346 680 1346 c 2,45,-1
 915 1346 l 2,46,47
 956 1346 956 1346 956 1368 c 2,48,-1
 956 1405 l 2,37,38
1290 1239 m 1,49,-1
 297 1239 l 1,50,-1
 248 508 l 1,51,-1
 1341 508 l 1,52,-1
 1290 1239 l 1,49,-1
273.5 375.5 m 128,-1,54
 252 354 252 354 252 322.5 c 128,-1,55
 252 291 252 291 273.5 269.5 c 128,-1,56
 295 248 295 248 326.5 248 c 128,-1,57
 358 248 358 248 379.5 269.5 c 128,-1,58
 401 291 401 291 401 322.5 c 128,-1,59
 401 354 401 354 379.5 375.5 c 128,-1,60
 358 397 358 397 326.5 397 c 128,-1,53
 295 397 295 397 273.5 375.5 c 128,-1,54
1329.5 269.5 m 128,-1,62
 1352 291 1352 291 1352 322.5 c 128,-1,63
 1352 354 1352 354 1329.5 375.5 c 128,-1,64
 1307 397 1307 397 1276 397 c 128,-1,65
 1245 397 1245 397 1223.5 375.5 c 128,-1,66
 1202 354 1202 354 1202 322.5 c 128,-1,67
 1202 291 1202 291 1223.5 269.5 c 128,-1,68
 1245 248 1245 248 1276 248 c 128,-1,61
 1307 248 1307 248 1329.5 269.5 c 128,-1,62
EndSplineSet
EndChar

StartChar: K.ss02
Encoding: 65569 -1 95
GlifName: K_.ss02
Width: 1441
Flags: MW
HStem: 362 164 676 113 1235 106 1425 100
VStem: 217 173 1071 156
LayerCount: 2
Back
Fore
SplineSet
1430 33 m 1,0,1
 1442 21 1442 21 1442 10.5 c 128,-1,2
 1442 0 1442 0 1403 0 c 2,3,-1
 1257 0 l 2,4,5
 1230 0 1230 0 1217 6 c 128,-1,6
 1204 12 1204 12 1184 33 c 1,7,-1
 840 362 l 1,8,-1
 604 362 l 1,9,-1
 258 33 l 2,10,11
 237 12 237 12 225 6 c 128,-1,12
 213 0 213 0 186 0 c 2,13,-1
 41 0 l 2,14,15
 0 0 0 0 0 10.5 c 128,-1,16
 0 21 0 21 14 33 c 2,17,-1
 408 362 l 1,18,-1
 371 362 l 2,19,20
 287 362 287 362 272 434 c 1,21,-1
 217 731 l 2,22,23
 215 739 215 739 215 764 c 128,-1,24
 215 789 215 789 217 809 c 2,25,-1
 274 1473 l 1,26,27
 279 1506 279 1506 292 1516 c 128,-1,28
 305 1526 305 1526 346 1526 c 2,29,-1
 1085 1526 l 2,30,31
 1134 1526 1134 1526 1149 1516 c 128,-1,32
 1164 1506 1164 1506 1167 1475 c 2,33,-1
 1227 809 l 2,34,35
 1229 781 1229 781 1229 762 c 128,-1,36
 1229 743 1229 743 1227 731 c 2,37,-1
 1169 434 l 2,38,39
 1154 362 1154 362 1073 362 c 2,40,-1
 1030 362 l 1,41,-1
 1430 33 l 1,0,1
840 1403 m 2,42,43
 840 1425 840 1425 799 1425 c 2,44,-1
 645 1425 l 2,45,46
 606 1425 606 1425 606 1403 c 2,47,-1
 606 1364 l 2,48,49
 606 1341 606 1341 645 1341 c 2,50,-1
 799 1341 l 2,51,52
 840 1341 840 1341 840 1364 c 2,53,-1
 840 1403 l 2,42,43
1032 1235 m 1,54,-1
 408 1235 l 1,55,-1
 373 788 l 1,56,-1
 1071 788 l 1,57,-1
 1032 1235 l 1,54,-1
369 602 m 128,-1,59
 369 571 369 571 390.5 548.5 c 128,-1,60
 412 526 412 526 443.5 526 c 128,-1,61
 475 526 475 526 497.5 548.5 c 128,-1,62
 520 571 520 571 520 602 c 128,-1,63
 520 633 520 633 497.5 654.5 c 128,-1,64
 475 676 475 676 443 676 c 128,-1,65
 411 676 411 676 390 654.5 c 128,-1,58
 369 633 369 633 369 602 c 128,-1,59
941.5 548.5 m 128,-1,67
 963 526 963 526 993.5 526 c 128,-1,68
 1024 526 1024 526 1047.5 548.5 c 128,-1,69
 1071 571 1071 571 1071 601.5 c 128,-1,70
 1071 632 1071 632 1047.5 654 c 128,-1,71
 1024 676 1024 676 993 676 c 128,-1,72
 962 676 962 676 941 654.5 c 128,-1,73
 920 633 920 633 920 602 c 128,-1,66
 920 571 920 571 941.5 548.5 c 128,-1,67
EndSplineSet
EndChar

StartChar: A.ss03
Encoding: 65570 -1 96
GlifName: A_.ss03
Width: 1611
Flags: MW
HStem: 0 139<143 1364 248 1364 248 1440> 225 37 467 145<903 1102 918 1102> 602 37 1280 154<248 1364 248 248> 1585 317<466 631 623 631 623 776 983 991>
VStem: 90 158<139 1280 139 1352 139 1380> 389 78 426 100 485 87 678 37 881 102 1055 39 1364 158<139 1280 1280 1280>
LayerCount: 2
Back
Fore
SplineSet
1012 1604 m 2,0,1
 1001 1585 1001 1585 987.5 1585 c 128,-1,2
 974 1585 974 1585 963 1604 c 2,3,-1
 815 1862 l 2,4,5
 809 1872 809 1872 809 1884 c 0,6,7
 809 1903 809 1903 838 1903 c 2,8,-1
 1137 1903 l 2,9,10
 1167 1903 1167 1903 1167 1882 c 0,11,12
 1167 1875 1167 1875 1159 1862 c 2,13,-1
 1012 1604 l 2,0,1
807 1606 m 0,14,15
 807 1585 807 1585 776 1585 c 2,16,-1
 477 1585 l 2,17,18
 449 1585 449 1585 449 1604 c 0,19,20
 449 1614 449 1614 455 1626 c 2,21,-1
 602 1884 l 2,22,23
 613 1903 613 1903 626.5 1903 c 128,-1,24
 640 1903 640 1903 651 1884 c 2,25,-1
 799 1626 l 2,26,27
 807 1613 807 1613 807 1606 c 0,14,15
1440 1434 m 2,28,29
 1483 1434 1483 1434 1502.5 1414.5 c 128,-1,30
 1522 1395 1522 1395 1522 1352 c 2,31,-1
 1522 82 l 2,32,33
 1522 39 1522 39 1502.5 19.5 c 128,-1,34
 1483 0 1483 0 1440 0 c 2,35,-1
 172 0 l 2,36,37
 129 0 129 0 109.5 19.5 c 128,-1,38
 90 39 90 39 90 82 c 2,39,-1
 90 1352 l 2,40,41
 90 1395 90 1395 109.5 1414.5 c 128,-1,42
 129 1434 129 1434 172 1434 c 2,43,-1
 1440 1434 l 2,28,29
1364 1280 m 1,44,-1
 248 1280 l 1,45,-1
 248 139 l 1,46,-1
 1364 139 l 1,47,-1
 1364 1280 l 1,44,-1
338 672 m 0,48,49
 330 896 330 896 330 932 c 128,-1,50
 330 968 330 968 363.5 978.5 c 0,51,52
 442 1003.10447761 442 1003.10447761 442 1034 c 2,53,-1
 442 1051 l 1,54,55
 429 1057 429 1057 427.5 1085 c 128,-1,56
 426 1113 426 1113 426 1140 c 0,57,58
 426 1188 426 1188 477 1188 c 0,59,60
 498 1188 498 1188 512 1176.5 c 128,-1,61
 526 1165 526 1165 526 1141 c 0,62,63
 526 1058.38461538 526 1058.38461538 510 1051 c 1,64,-1
 510 1034 l 2,65,66
 510 1005 510 1005 582 981 c 0,67,68
 623 968 623 968 623 922 c 0,69,70
 623 921 623 921 614 672 c 0,71,72
 614 633 614 633 580 633 c 1,73,-1
 565 248 l 1,74,75
 563 225 563 225 524 225 c 128,-1,76
 485 225 485 225 485 248 c 2,77,-1
 485 629 l 1,78,-1
 467 629 l 1,79,-1
 467 248 l 2,80,81
 467 225 467 225 428 225 c 128,-1,82
 389 225 389 225 389 248 c 2,83,-1
 373 633 l 1,84,85
 338 633 338 633 338 672 c 0,48,49
983 895 m 2,86,87
 983 876 983 876 963 864 c 1,88,-1
 963 856 l 2,89,90
 963 826 963 826 986.5 806.5 c 128,-1,91
 1010 787 1010 787 1020 741 c 1,92,-1
 1051 612 l 1,93,-1
 1102 612 l 2,94,95
 1143 612 1143 612 1143 571 c 1,96,-1
 1151 571 l 2,97,98
 1188.33333333 571 1188.33333333 571 1200 541 c 1,99,-1
 1288 338 l 2,100,101
 1300 308 1300 308 1300 303.5 c 128,-1,102
 1300 299 1300 299 1285 286.5 c 128,-1,103
 1270 274 1270 274 1256 274 c 128,-1,104
 1242 274 1242 274 1239 281 c 2,105,-1
 1143 467 l 1,106,-1
 1090 467 l 1,107,108
 1094 437 1094 437 1094 432 c 0,109,110
 1094 346 1094 346 1032.5 285.5 c 128,-1,111
 971 225 971 225 885.5 225 c 128,-1,112
 800 225 800 225 739 285.5 c 128,-1,113
 678 346 678 346 678 430 c 128,-1,114
 678 514 678 514 733.5 572.5 c 128,-1,115
 789 631 789 631 872 639 c 1,116,117
 870 667 870 667 870 688 c 2,118,-1
 870 699 l 2,119,120
 870 756 870 756 884.5 792.5 c 128,-1,121
 899 829 899 829 899 846 c 2,122,-1
 899 864 l 1,123,124
 881 873 881 873 881 897 c 2,125,-1
 881 963 l 2,126,127
 881 981 881 981 896.5 993.5 c 128,-1,128
 912 1006 912 1006 932 1006 c 128,-1,129
 952 1006 952 1006 967.5 993.5 c 128,-1,130
 983 981 983 981 983 963 c 2,131,-1
 983 895 l 2,86,87
872 602 m 1,132,133
 800 593 800 593 757.5 545.5 c 128,-1,134
 715 498 715 498 715 430 c 128,-1,135
 715 362 715 362 764.5 312 c 128,-1,136
 814 262 814 262 885 262 c 128,-1,137
 956 262 956 262 1005.5 312 c 128,-1,138
 1055 362 1055 362 1055 432 c 0,139,140
 1055 455 1055 455 1051 467 c 1,141,-1
 918 467 l 2,142,143
 897 467 897 467 884.5 479.5 c 128,-1,144
 872 492 872 492 872 510 c 2,145,-1
 872 602 l 1,132,133
EndSplineSet
EndChar

StartChar: B.ss03
Encoding: 65571 -1 97
GlifName: B_.ss03
Width: 1470
Flags: MW
HStem: 0 178<164 377 164 399 123 377> 578 170<1180 1409>
VStem: 1139 270<602 707 707 718>
LayerCount: 2
Back
Fore
SplineSet
1409 578 m 1,0,-1
 399 0 l 1,1,-1
 123 0 l 1,2,-1
 123 137 l 2,3,4
 123 154 123 154 135 166 c 128,-1,5
 147 178 147 178 164 178 c 2,6,-1
 377 178 l 1,7,-1
 377 270 l 2,8,9
 377 287 377 287 389 299 c 128,-1,10
 401 311 401 311 418 311 c 2,11,-1
 631 311 l 1,12,-1
 631 418 l 2,13,14
 631 435 631 435 643 447 c 128,-1,15
 655 459 655 459 672 459 c 2,16,-1
 885 459 l 1,17,-1
 885 561 l 2,18,19
 885 578 885 578 897 590 c 128,-1,20
 909 602 909 602 926 602 c 2,21,-1
 1139 602 l 1,22,-1
 1139 707 l 2,23,24
 1139 724 1139 724 1151.5 736 c 128,-1,25
 1164 748 1164 748 1180 748 c 2,26,-1
 1409 748 l 1,27,-1
 1409 578 l 1,0,-1
EndSplineSet
EndChar

StartChar: C.ss03
Encoding: 65572 -1 98
GlifName: C_.ss03
Width: 1470
Flags: MW
HStem: 0 178 578 170
VStem: 1139 270
LayerCount: 2
Back
Fore
SplineSet
248 1014 m 2,0,1
 231 1019 231 1019 231 1025.5 c 0,2,3
 231 1032 231 1032 233 1038 c 2,4,-1
 301 1294 l 2,5,6
 308 1321 308 1321 330 1333 c 2,7,-1
 395 1368 l 2,8,9
 402 1372 402 1372 407 1372 c 0,10,11
 412 1372 412 1372 412 1369.5 c 0,12,13
 412 1367 412 1367 408 1355 c 0,14,15
 404 1343 404 1343 401 1331 c 2,16,-1
 348 1139 l 1,17,-1
 879 1446 l 2,18,19
 887 1450 887 1450 897.5 1450 c 0,20,21
 908 1450 908 1450 918 1432 c 2,22,-1
 928 1413 l 2,23,24
 938 1396 938 1396 938 1386 c 128,-1,25
 938 1376 938 1376 924 1368 c 2,26,-1
 393 1061 l 1,27,-1
 616 1006 l 2,28,29
 627 1003 627 1003 627 997.5 c 0,30,31
 627 992 627 992 616 985 c 2,32,-1
 553 948 l 2,33,34
 543 942 543 942 528.5 942 c 0,35,36
 514 942 514 942 508 944 c 2,37,-1
 248 1014 l 2,0,1
1409 578 m 1,38,-1
 399 -0 l 1,39,-1
 123 -0 l 1,40,-1
 123 137 l 2,41,42
 123 154 123 154 135 166 c 128,-1,43
 147 178 147 178 164 178 c 2,44,-1
 377 178 l 1,45,-1
 377 270 l 2,46,47
 377 287 377 287 389 299 c 128,-1,48
 401 311 401 311 418 311 c 2,49,-1
 631 311 l 1,50,-1
 631 418 l 2,51,52
 631 435 631 435 643 447 c 128,-1,53
 655 459 655 459 672 459 c 2,54,-1
 885 459 l 1,55,-1
 885 561 l 2,56,57
 885 578 885 578 897 590 c 128,-1,58
 909 602 909 602 926 602 c 2,59,-1
 1139 602 l 1,60,-1
 1139 707 l 2,61,62
 1139 724 1139 724 1151.5 735.5 c 128,-1,63
 1164 747 1164 747 1180 747 c 2,64,-1
 1409 747 l 1,65,-1
 1409 578 l 1,38,-1
EndSplineSet
EndChar

StartChar: D.ss03
Encoding: 65573 -1 99
GlifName: D_.ss03
Width: 1470
Flags: MW
HStem: 0 178 578 170
VStem: 1139 270
LayerCount: 2
Back
Fore
SplineSet
903 1423 m 2,0,1
 920 1418 920 1418 920 1412.5 c 128,-1,2
 920 1407 920 1407 918 1399 c 2,3,-1
 850 1143 l 1,4,5
 842 1117 842 1117 821 1104 c 1,6,-1
 756 1069 l 2,7,8
 747 1065 747 1065 743 1065 c 128,-1,9
 739 1065 739 1065 739 1069 c 0,10,11
 739 1075 739 1075 748 1102 c 1,12,-1
 803 1298 l 1,13,-1
 272 991 l 2,14,15
 265 987 265 987 258 987 c 0,16,17
 241.5 987 241.5 987 227.25 1016 c 128,-1,18
 213 1045 213 1045 213 1053 c 128,-1,19
 213 1061 213 1061 227 1069 c 2,20,-1
 758 1376 l 1,21,-1
 535 1432 l 2,22,23
 524 1435 524 1435 524 1440 c 128,-1,24
 524 1445 524 1445 535 1452 c 2,25,-1
 598 1489 l 2,26,27
 610 1495 610 1495 622.5 1495 c 128,-1,28
 635 1495 635 1495 643 1493 c 2,29,-1
 903 1423 l 2,0,1
1409 578 m 1,30,-1
 399 -0 l 1,31,-1
 123 -0 l 1,32,-1
 123 137 l 2,33,34
 123 154 123 154 135 166 c 128,-1,35
 147 178 147 178 164 178 c 2,36,-1
 377 178 l 1,37,-1
 377 270 l 2,38,39
 377 287 377 287 389 299 c 128,-1,40
 401 311 401 311 418 311 c 2,41,-1
 631 311 l 1,42,-1
 631 418 l 2,43,44
 631 435 631 435 643 447 c 128,-1,45
 655 459 655 459 672 459 c 2,46,-1
 885 459 l 1,47,-1
 885 561 l 2,48,49
 885 578 885 578 897 590 c 128,-1,50
 909 602 909 602 926 602 c 2,51,-1
 1139 602 l 1,52,-1
 1139 707 l 2,53,54
 1139 724 1139 724 1151.5 735.5 c 128,-1,55
 1164 747 1164 747 1180 747 c 2,56,-1
 1409 747 l 1,57,-1
 1409 578 l 1,30,-1
EndSplineSet
EndChar

StartChar: E.ss03
Encoding: 65574 -1 100
GlifName: E_.ss03
Width: 1753
Flags: MW
HStem: 0 258<264 477 264 508 160 477> 442 72<155 340 188 340 188 360> 754 74<1583 1583> 1057 72<1436 1444 1444 1565 1565 1567>
VStem: 0 74<294 355 294 374> 1239 344<682 754 614 786 614 798> 1681 72<910 972>
LayerCount: 2
Back
Fore
SplineSet
1753 944 m 128,-1,1
 1753 869 1753 869 1705 815.5 c 128,-1,2
 1657 762 1657 762 1583 754 c 1,3,-1
 1583 614 l 1,4,-1
 508 0 l 1,5,-1
 160 0 l 1,6,-1
 160 141 l 1,7,8
 91 151 91 151 45.5 203.5 c 128,-1,9
 0 256 0 256 0 328.5 c 0,10,11
 0 401 0 401 53.5 457.5 c 128,-1,12
 107 514 107 514 188 514 c 2,13,-1
 340 514 l 1,14,-1
 1362 1110 l 2,15,16
 1392 1128 1392 1128 1415 1128 c 2,17,-1
 1565 1128 l 2,18,19
 1645 1128 1645 1128 1699 1073.5 c 128,-1,0
 1753 1019 1753 1019 1753 944 c 128,-1,1
223 213 m 1,20,21
 223 235 223 235 235 246.5 c 128,-1,22
 247 258 247 258 264 258 c 2,23,-1
 477 258 l 1,24,-1
 477 350 l 2,25,26
 477 367 477 367 489 379 c 128,-1,27
 501 391 501 391 518 391 c 2,28,-1
 731 391 l 1,29,-1
 731 498 l 2,30,31
 731 515 731 515 743 527 c 128,-1,32
 755 539 755 539 772 539 c 2,33,-1
 985 539 l 1,34,-1
 985 641 l 2,35,36
 985 658 985 658 997 670 c 128,-1,37
 1009 682 1009 682 1026 682 c 2,38,-1
 1239 682 l 1,39,-1
 1239 786 l 2,40,41
 1239 803 1239 803 1251.5 815 c 128,-1,42
 1264 827 1264 827 1280 827 c 2,43,-1
 1567 827 l 2,44,45
 1612 827 1612 827 1646.5 861 c 128,-1,46
 1681 895 1681 895 1681 941 c 0,47,48
 1681 987 1681 987 1646.5 1022 c 128,-1,49
 1612 1057 1612 1057 1567 1057 c 2,50,-1
 1444 1057 l 2,51,52
 1420 1057 1420 1057 1397 1044 c 2,53,-1
 360 442 l 1,54,-1
 188 442 l 2,55,56
 138 442 138 442 106 407.5 c 128,-1,57
 74 373 74 373 74 326.5 c 0,58,59
 74 280 74 280 108.5 246.5 c 128,-1,60
 143 213 143 213 188 213 c 2,61,-1
 223 213 l 1,20,21
EndSplineSet
EndChar

StartChar: F.ss03
Encoding: 65575 -1 101
GlifName: F_.ss03
Width: 1753
Flags: MW
HStem: 0 258 442 72 754 74 1057 72
VStem: 0 74 1239 344 1681 72
LayerCount: 2
Back
Fore
SplineSet
350 1014 m 2,0,1
 334 1019 334 1019 334 1025.5 c 0,2,3
 334 1032 334 1032 336 1038 c 2,4,-1
 403 1294 l 2,5,6
 410 1321 410 1321 432 1333 c 2,7,-1
 498 1368 l 2,8,9
 505 1372 505 1372 509.5 1372 c 0,10,11
 514 1372 514 1372 514 1368 c 128,-1,12
 514 1364 514 1364 510.5 1353.5 c 0,13,14
 507 1343 507 1343 504 1331 c 2,15,-1
 451 1139 l 1,16,-1
 981 1446 l 2,17,18
 989 1450 989 1450 999.5 1450 c 0,19,20
 1010 1450 1010 1450 1020 1432 c 2,21,-1
 1030 1413 l 2,22,23
 1040 1396 1040 1396 1040 1386 c 128,-1,24
 1040 1376 1040 1376 1026 1368 c 2,25,-1
 496 1061 l 1,26,-1
 719 1006 l 2,27,28
 729 1004 729 1004 729 997.5 c 0,29,30
 729 991 729 991 719 985 c 2,31,-1
 655 948 l 2,32,33
 645 942 645 942 630.5 942 c 0,34,35
 616 942 616 942 610 944 c 2,36,-1
 350 1014 l 2,0,1
1753 944 m 128,-1,38
 1753 869 1753 869 1705 815.5 c 128,-1,39
 1657 762 1657 762 1583 754 c 1,40,-1
 1583 614 l 1,41,-1
 508 -0 l 1,42,-1
 160 -0 l 1,43,-1
 160 141 l 1,44,45
 91 151 91 151 45.5 203.5 c 128,-1,46
 0 256 0 256 0 328.5 c 0,47,48
 0 401 0 401 53.5 457.5 c 128,-1,49
 107 514 107 514 188 514 c 2,50,-1
 340 514 l 1,51,-1
 1362 1110 l 2,52,53
 1392 1128 1392 1128 1415 1128 c 2,54,-1
 1565 1128 l 2,55,56
 1645 1128 1645 1128 1699 1073.5 c 128,-1,37
 1753 1019 1753 1019 1753 944 c 128,-1,38
223 213 m 1,57,58
 223 235 223 235 235 246.5 c 128,-1,59
 247 258 247 258 264 258 c 2,60,-1
 477 258 l 1,61,-1
 477 350 l 2,62,63
 477 367 477 367 489 379 c 128,-1,64
 501 391 501 391 518 391 c 2,65,-1
 731 391 l 1,66,-1
 731 498 l 2,67,68
 731 515 731 515 743 527 c 128,-1,69
 755 539 755 539 772 539 c 2,70,-1
 985 539 l 1,71,-1
 985 641 l 2,72,73
 985 658 985 658 997 670 c 128,-1,74
 1009 682 1009 682 1026 682 c 2,75,-1
 1239 682 l 1,76,-1
 1239 786 l 2,77,78
 1239 803 1239 803 1251.5 815 c 128,-1,79
 1264 827 1264 827 1280 827 c 2,80,-1
 1567 827 l 2,81,82
 1612 827 1612 827 1646.5 861 c 128,-1,83
 1681 895 1681 895 1681 941 c 0,84,85
 1681 987 1681 987 1646.5 1022 c 128,-1,86
 1612 1057 1612 1057 1567 1057 c 2,87,-1
 1444 1057 l 2,88,89
 1420 1057 1420 1057 1397 1044 c 2,90,-1
 360 442 l 1,91,-1
 188 442 l 2,92,93
 138 442 138 442 106 407.5 c 128,-1,94
 74 373 74 373 74 326.5 c 0,95,96
 74 280 74 280 108.5 246.5 c 128,-1,97
 143 213 143 213 188 213 c 2,98,-1
 223 213 l 1,57,58
EndSplineSet
EndChar

StartChar: G.ss03
Encoding: 65576 -1 102
GlifName: G_.ss03
Width: 1753
Flags: MW
HStem: 0 258 442 72 754 74 1057 72
VStem: 0 74 1239 344 1681 72
LayerCount: 2
Back
Fore
SplineSet
1006 1423 m 2,0,1
 1022 1418 1022 1418 1022 1412.5 c 128,-1,2
 1022 1407 1022 1407 1020 1399 c 2,3,-1
 952 1143 l 1,4,5
 943 1116 943 1116 924 1104 c 1,6,-1
 858 1069 l 2,7,8
 849 1065 849 1065 845.5 1065 c 128,-1,9
 842 1065 842 1065 842 1070.5 c 0,10,11
 842 1078 842 1078 850 1102 c 1,12,-1
 905 1298 l 1,13,-1
 375 991 l 2,14,15
 368 987 368 987 360 987 c 0,16,17
 344.5 987 344.5 987 329.75 1017.5 c 128,-1,18
 315 1048 315 1048 315 1054 c 128,-1,19
 315 1060 315 1060 330 1069 c 2,20,-1
 860 1376 l 1,21,-1
 637 1432 l 2,22,23
 627 1434 627 1434 627 1440 c 128,-1,24
 627 1446 627 1446 637 1452 c 2,25,-1
 700 1489 l 2,26,27
 712 1495 712 1495 724.5 1495 c 128,-1,28
 737 1495 737 1495 745 1493 c 2,29,-1
 1006 1423 l 2,0,1
1753 944 m 128,-1,31
 1753 869 1753 869 1705 815.5 c 128,-1,32
 1657 762 1657 762 1583 754 c 1,33,-1
 1583 614 l 1,34,-1
 508 -0 l 1,35,-1
 160 -0 l 1,36,-1
 160 141 l 1,37,38
 91 151 91 151 45.5 203.5 c 128,-1,39
 0 256 0 256 0 328.5 c 128,-1,40
 0 401 0 401 53.5 457.5 c 128,-1,41
 107 514 107 514 188 514 c 2,42,-1
 340 514 l 1,43,-1
 1362 1110 l 2,44,45
 1392 1128 1392 1128 1415 1128 c 2,46,-1
 1565 1128 l 2,47,48
 1645 1128 1645 1128 1699 1073.5 c 128,-1,30
 1753 1019 1753 1019 1753 944 c 128,-1,31
223 213 m 1,49,50
 223 235 223 235 235 246.5 c 128,-1,51
 247 258 247 258 264 258 c 2,52,-1
 477 258 l 1,53,-1
 477 350 l 2,54,55
 477 367 477 367 489 379 c 128,-1,56
 501 391 501 391 518 391 c 2,57,-1
 731 391 l 1,58,-1
 731 498 l 2,59,60
 731 515 731 515 743 527 c 128,-1,61
 755 539 755 539 772 539 c 2,62,-1
 985 539 l 1,63,-1
 985 641 l 2,64,65
 985 658 985 658 997 670 c 128,-1,66
 1009 682 1009 682 1026 682 c 2,67,-1
 1239 682 l 1,68,-1
 1239 786 l 2,69,70
 1239 803 1239 803 1251.5 815 c 128,-1,71
 1264 827 1264 827 1280 827 c 2,72,-1
 1567 827 l 2,73,74
 1612 827 1612 827 1646.5 861 c 128,-1,75
 1681 895 1681 895 1681 941 c 128,-1,76
 1681 987 1681 987 1646.5 1022 c 128,-1,77
 1612 1057 1612 1057 1567 1057 c 2,78,-1
 1444 1057 l 2,79,80
 1420 1057 1420 1057 1397 1044 c 2,81,-1
 360 442 l 1,82,-1
 188 442 l 2,83,84
 138 442 138 442 106 407.5 c 128,-1,85
 74 373 74 373 74 326.5 c 128,-1,86
 74 280 74 280 108.5 246.5 c 128,-1,87
 143 213 143 213 188 213 c 2,88,-1
 223 213 l 1,49,50
EndSplineSet
EndChar

StartChar: A.ss04
Encoding: 65577 -1 103
GlifName: A_.ss04
Width: 1673
Flags: MW
HStem: -18 1090<161 897 161 897>
VStem: 281 475<199 653> 915 475<199 199 199 653 653 738>
LayerCount: 2
Back
Fore
SplineSet
1489 61 m 2,0,1
 1550 61 1550 61 1550 94 c 2,2,-1
 1550 1036 l 2,3,4
 1550 1056 1550 1056 1537 1063.5 c 128,-1,5
 1524 1071 1524 1071 1489 1071 c 2,6,-1
 1192 1071 l 2,7,8
 1072 1071 1072 1071 991.5 1028.5 c 128,-1,9
 911 986 911 986 836 911 c 1,10,11
 744 1003 744 1003 671 1037 c 128,-1,12
 598 1071 598 1071 479 1071 c 2,13,-1
 184 1071 l 2,14,15
 149 1071 149 1071 136 1063.5 c 128,-1,16
 123 1056 123 1056 123 1036 c 2,17,-1
 123 94 l 2,18,19
 123 61 123 61 184 61 c 2,20,-1
 559 61 l 2,21,22
 723 61 723 61 778 -18 c 1,23,-1
 897 -18 l 1,24,25
 947 61 947 61 1114 61 c 2,26,-1
 1489 61 l 2,0,1
756 160 m 1,27,28
 696.2 199 696.2 199 559 199 c 2,29,-1
 281 199 l 1,30,-1
 281 911 l 1,31,-1
 500 911 l 2,32,33
 620 911 620 911 688 844 c 128,-1,34
 756 777 756 777 756 653 c 2,35,-1
 756 160 l 1,27,28
1114 199 m 2,36,37
 974.8 199 974.8 199 915 160 c 1,38,-1
 915 653 l 2,39,40
 915 777 915 777 986 844 c 128,-1,41
 1057 911 1057 911 1174 911 c 2,42,-1
 1391 911 l 1,43,-1
 1391 199 l 1,44,-1
 1114 199 l 2,36,37
EndSplineSet
EndChar

StartChar: B.ss04
Encoding: 65578 -1 104
GlifName: B_.ss04
Width: 1632
Flags: MW
HStem: 0 137<140 1378 254 1378 254 1468> 928 143<301 301 301 1331>
VStem: 102 152<137 791 137 1038> 1378 152<137 791 791 791>
LayerCount: 2
Back
Fore
SplineSet
164 0 m 2,0,1
 102 0 102 0 102 33 c 2,2,-1
 102 1038 l 2,3,4
 102 1071 102 1071 164 1071 c 2,5,-1
 1468 1071 l 2,6,7
 1530 1071 1530 1071 1530 1038 c 2,8,-1
 1530 33 l 2,9,10
 1530 0 1530 0 1468 0 c 2,11,-1
 164 0 l 2,0,1
301 928 m 1,12,-1
 330 915 l 1,13,-1
 815 535 l 1,14,-1
 1303 915 l 1,15,-1
 1331 928 l 1,16,-1
 301 928 l 1,12,-1
1378 791 m 1,17,-1
 1352 766 l 1,18,-1
 913 432 l 2,19,20
 875 403 875 403 834 403 c 2,21,-1
 801 403 l 2,22,23
 765 403 765 403 723 432 c 1,24,-1
 281 766 l 1,25,-1
 254 791 l 1,26,-1
 254 137 l 1,27,-1
 1378 137 l 1,28,-1
 1378 791 l 1,17,-1
EndSplineSet
EndChar

StartChar: C.ss04
Encoding: 65579 -1 105
GlifName: C_.ss04
Width: 1333
Flags: MW
HStem: 0 139 319 78 575 139 1012 68
VStem: 121 158<139 139 139 319 397 575> 127 78<850 924 850 931> 637 78<139 319 139 319 397 575> 1073 158<139 319 319 319 397 575 575 575> 1149 78
LayerCount: 2
Back
Fore
SplineSet
182 0 m 2,0,1
 121 0 121 0 121 33 c 2,2,-1
 121 674 l 2,3,4
 121 690 121 690 137 702.5 c 128,-1,5
 153 715 153 715 182 715 c 2,6,-1
 201 715 l 1,7,8
 166 740 166 740 146.5 784.5 c 128,-1,9
 127 829 127 829 127 877 c 0,10,11
 127 962 127 962 183 1020.5 c 128,-1,12
 239 1079 239 1079 340 1079 c 128,-1,13
 441 1079 441 1079 498 991 c 1,14,-1
 676 733 l 1,15,-1
 854 991 l 1,16,17
 911 1079 911 1079 1009 1079 c 128,-1,18
 1107 1079 1107 1079 1167 1021.5 c 128,-1,19
 1227 964 1227 964 1227 881 c 0,20,21
 1227 833 1227 833 1207.5 787.5 c 128,-1,22
 1188 742 1188 742 1153 715 c 1,23,-1
 1171 715 l 2,24,25
 1200 715 1200 715 1215.5 703 c 128,-1,26
 1231 691 1231 691 1231 674 c 2,27,-1
 1231 33 l 2,28,29
 1231 0 1231 0 1169 0 c 2,30,-1
 182 0 l 2,0,1
438 952 m 2,31,32
 397 1012 397 1012 338 1012 c 128,-1,33
 279 1012 279 1012 242 976.5 c 128,-1,34
 205 941 205 941 205 899 c 128,-1,35
 205 857 205 857 216.5 828.5 c 128,-1,36
 228 800 228 800 251 773.5 c 0,37,38
 301.773584906 715 301.773584906 715 418 715 c 2,39,-1
 596 715 l 1,40,-1
 438 952 l 2,31,32
934 715 m 2,41,42
 1046 715 1046 715 1097.5 768.5 c 128,-1,43
 1149 822 1149 822 1149 883 c 128,-1,44
 1149 944 1149 944 1110 978 c 128,-1,45
 1071 1012 1071 1012 1032 1012 c 0,46,47
 953 1012 953 1012 913 952 c 2,48,-1
 756 715 l 1,49,-1
 934 715 l 2,41,42
279 397 m 1,50,-1
 637 397 l 1,51,-1
 637 575 l 1,52,-1
 279 575 l 1,53,-1
 279 397 l 1,50,-1
715 397 m 1,54,-1
 1073 397 l 1,55,-1
 1073 575 l 1,56,-1
 715 575 l 1,57,-1
 715 397 l 1,54,-1
279 139 m 1,58,-1
 637 139 l 1,59,-1
 637 319 l 1,60,-1
 279 319 l 1,61,-1
 279 139 l 1,58,-1
1073 319 m 1,62,-1
 715 319 l 1,63,-1
 715 139 l 1,64,-1
 1073 139 l 1,65,-1
 1073 319 l 1,62,-1
EndSplineSet
EndChar

StartChar: D.ss04
Encoding: 65580 -1 106
GlifName: D_.ss04
Width: 1640
Flags: MW
HStem: 0 137<140 1380 260 1380 260 1477> 236 659<395 672 516 672 752 889 969 1124 1124 1154 516 1221> 999 72<752 889 752 752> 1278 156<260 1380 260 260> 1554 88<465 535> 1671 137<829 1044 829 1221 1124 1145 1124 1127 1221 1229 829 1241 1221 1222> 1821 86<485 496 465 535>
VStem: 102 158<137 1278 137 1401 137 1412> 395 80 553 276<1644 1782 1644 1801> 672 80 889 80 1380 158<137 1278 1278 1278>
LayerCount: 2
Back
Fore
SplineSet
1300 1749 m 1,0,-1
 1300 1731 l 1,1,-1
 1241 1671 l 1,2,-1
 1221 1671 l 1,3,-1
 1184 1710 l 1,4,-1
 1145 1671 l 1,5,-1
 1124 1671 l 1,6,-1
 1085 1710 l 1,7,-1
 1044 1671 l 1,8,-1
 829 1671 l 1,9,10
 829 1629 829 1629 809 1602.5 c 128,-1,11
 789 1576 789 1576 752 1573 c 2,12,-1
 496 1554 l 1,13,14
 414 1554 414 1554 395 1612 c 0,15,16
 377 1662 377 1662 377 1729.5 c 128,-1,17
 377 1797 377 1797 395 1847 c 0,18,19
 414 1907 414 1907 496 1907 c 1,20,-1
 752 1886 l 1,21,22
 829 1881 829 1881 829 1808 c 1,23,-1
 1221 1808 l 2,24,25
 1247 1808 1247 1808 1262 1790 c 1,26,-1
 1300 1749 l 1,0,-1
553 1782 m 2,27,28
 553 1811 553 1811 550.5 1816 c 128,-1,29
 548 1821 548 1821 535 1821 c 2,30,-1
 496 1821 l 2,31,32
 481 1821 481 1821 478 1816 c 128,-1,33
 475 1811 475 1811 475 1782 c 2,34,-1
 475 1681 l 2,35,36
 475 1652 475 1652 478 1647 c 128,-1,37
 481 1642 481 1642 496 1642 c 2,38,-1
 535 1642 l 2,39,40
 548 1642 548 1642 550.5 1647 c 128,-1,41
 553 1652 553 1652 553 1681 c 2,42,-1
 553 1782 l 2,27,28
164 0 m 2,43,44
 102 0 102 0 102 33 c 2,45,-1
 102 1401 l 2,46,47
 102 1434 102 1434 164 1434 c 2,48,-1
 1477 1434 l 2,49,50
 1538 1434 1538 1434 1538 1401 c 2,51,-1
 1538 33 l 2,52,53
 1538 0 1538 0 1477 0 c 2,54,-1
 164 0 l 2,43,44
1380 1278 m 1,55,-1
 260 1278 l 1,56,-1
 260 137 l 1,57,-1
 1380 137 l 1,58,-1
 1380 1278 l 1,55,-1
672 1032 m 2,59,60
 672 1071 672 1071 692 1071 c 2,61,-1
 948 1071 l 2,62,63
 969 1071 969 1071 969 1032 c 2,64,-1
 969 895 l 1,65,-1
 1124 895 l 2,66,67
 1171 895 1171 895 1215 854.5 c 128,-1,68
 1259 814 1259 814 1262 758 c 1,69,-1
 1262 744 l 1,70,71
 1282 304 1282 304 1282 295 c 0,72,73
 1282 236 1282 236 1221 236 c 2,74,-1
 416 236 l 2,75,76
 356 236 356 236 356 295 c 0,77,78
 356 312 356 312 365.5 511 c 128,-1,79
 375 710 375 710 377 762 c 128,-1,80
 379 814 379 814 424 854.5 c 128,-1,81
 469 895 469 895 516 895 c 2,82,-1
 672 895 l 1,83,-1
 672 1032 l 2,59,60
889 999 m 1,84,-1
 752 999 l 1,85,-1
 752 895 l 1,86,-1
 889 895 l 1,87,-1
 889 999 l 1,84,-1
EndSplineSet
EndChar

StartChar: E.ss04
Encoding: 65581 -1 107
GlifName: E_.ss04
Width: 1130
Flags: MW
HStem: 0 506 610 70 930 70 1487 70<315 345>
VStem: 205 72<1163 1432> 383 72<1422 1446> 596 78 821 80
LayerCount: 2
Back
Fore
SplineSet
383 1163 m 2,0,1
 446 1163 446 1163 446 1128 c 0,2,3
 446 1120 446 1120 366.5 586 c 128,-1,4
 287 52 287 52 282 26 c 128,-1,5
 277 0 277 0 254 0 c 2,6,-1
 231 0 l 2,7,8
 206.4375 0 206.4375 0 201.71875 25.5 c 128,-1,9
 197 51 197 51 119 585.5 c 128,-1,10
 41 1120 41 1120 41 1133.5 c 0,11,12
 41 1163 41 1163 104 1163 c 2,13,-1
 205 1163 l 1,14,-1
 205 1432 l 2,15,16
 205 1484 205 1484 242 1520 c 128,-1,17
 279 1556 279 1556 331 1556 c 128,-1,18
 383 1556 383 1556 419 1520 c 128,-1,19
 455 1484 455 1484 455 1432 c 0,20,21
 455 1405 455 1405 419 1405 c 128,-1,22
 383 1405 383 1405 383 1432 c 0,23,24
 383 1454 383 1454 368 1470.5 c 128,-1,25
 353 1487 353 1487 330.5 1487 c 128,-1,26
 308 1487 308 1487 292 1470.5 c 128,-1,27
 276 1454 276 1454 276 1432 c 2,28,-1
 276 1163 l 1,29,-1
 383 1163 l 2,0,1
758 1030 m 0,30,31
 758 999 758 999 803 999 c 2,32,-1
 854 999 l 2,33,34
 895 999 895 999 895 1039.5 c 128,-1,35
 895 1080 895 1080 911.5 1105.5 c 128,-1,36
 928 1131 928 1131 986.5 1178.5 c 128,-1,37
 1045 1226 1045 1226 1073.5 1267 c 128,-1,38
 1102 1308 1102 1308 1102 1384 c 128,-1,39
 1102 1460 1102 1460 1039 1508 c 128,-1,40
 976 1556 976 1556 886 1556 c 128,-1,41
 796 1556 796 1556 749 1540 c 128,-1,42
 702 1524 702 1524 668.5 1500 c 128,-1,43
 635 1476 635 1476 635 1457.5 c 128,-1,44
 635 1439 635 1439 657 1403 c 0,45,46
 680 1370 680 1370 694 1370 c 128,-1,47
 708 1370 708 1370 732.5 1383 c 0,48,49
 804.115384615 1421 804.115384615 1421 860 1421 c 0,50,51
 938 1421 938 1421 938 1360 c 0,52,53
 938 1323 938 1323 871 1254.5 c 128,-1,54
 804 1186 804 1186 781 1138.5 c 128,-1,55
 758 1091 758 1091 758 1030 c 0,30,31
741 799 m 2,56,57
 741 764 741 764 805 764 c 2,58,-1
 838 764 l 2,59,60
 901 764 901 764 901 799 c 2,61,-1
 901 895 l 2,62,63
 901 930 901 930 838 930 c 2,64,-1
 805 930 l 2,65,66
 741 930 741 930 741 895 c 2,67,-1
 741 799 l 2,56,57
596 647 m 2,68,69
 596 680 596 680 625 680 c 2,70,-1
 870 680 l 2,71,72
 884 680 884 680 892.5 669 c 128,-1,73
 901 658 901 658 901 647 c 2,74,-1
 901 506 l 1,75,-1
 940 506 l 2,76,77
 992 506 992 506 1033 469 c 128,-1,78
 1074 432 1074 432 1081.5 382.5 c 128,-1,79
 1089 333 1089 333 1109.5 199.5 c 128,-1,80
 1130 66 1130 66 1130 49 c 128,-1,81
 1130 32 1130 32 1117.5 16 c 128,-1,82
 1105 0 1105 0 1071 0 c 2,83,-1
 424 0 l 2,84,85
 390 0 390 0 377.5 16 c 128,-1,86
 365 32 365 32 365 49 c 128,-1,87
 365 66 365 66 385.5 199.5 c 128,-1,88
 406 333 406 333 413.5 382.5 c 128,-1,89
 421 432 421 432 462 469 c 128,-1,90
 503 506 503 506 555 506 c 2,91,-1
 596 506 l 1,92,-1
 596 647 l 2,68,69
821 610 m 1,93,-1
 674 610 l 1,94,-1
 674 506 l 1,95,-1
 821 506 l 1,96,-1
 821 610 l 1,93,-1
EndSplineSet
EndChar

StartChar: F.ss04
Encoding: 65582 -1 108
GlifName: F_.ss04
Width: 1171
Flags: MW
HStem: 0 172<46 682 156 682 156 1032> 350 174<211 811 221 682>
VStem: 682 129 811 279
LayerCount: 2
Back
Fore
SplineSet
1090 39 m 2,0,1
 1090 24 1090 24 1074.5 12 c 128,-1,2
 1059 0 1059 0 1032 0 c 2,3,-1
 70 0 l 2,4,5
 32 0 32 0 16 5.5 c 128,-1,6
 0 11 0 11 0 27 c 2,7,-1
 0 80 l 2,8,9
 0 121 0 121 47.5 146.5 c 128,-1,10
 95 172 95 172 156 172 c 2,11,-1
 682 172 l 1,12,-1
 682 350 l 1,13,-1
 221 350 l 2,14,15
 204 350 204 350 192 367 c 128,-1,16
 180 384 180 384 180 416 c 2,17,-1
 180 459 l 2,18,19
 180 492 180 492 192 508 c 128,-1,20
 204 524 204 524 221 524 c 2,21,-1
 811 524 l 1,22,-1
 811 844 l 1,23,-1
 584 967 l 1,24,-1
 526 799 l 2,25,26
 512 758 512 758 453 758 c 1,27,-1
 399 680 l 1,28,29
 383 659 383 659 361.5 659 c 128,-1,30
 340 659 340 659 328.5 672.5 c 128,-1,31
 317 686 317 686 317 698 c 128,-1,32
 317 710 317 710 323 754 c 128,-1,33
 329 798 329 798 329.5 798 c 128,-1,34
 330 798 330 798 330 799 c 0,35,36
 303 823 303 823 303 836.5 c 128,-1,37
 303 850 303 850 309 870 c 2,38,-1
 487 1391 l 2,39,40
 496 1419 496 1419 520 1419 c 128,-1,41
 544 1419 544 1419 563 1411 c 1,42,-1
 592 1487 l 2,43,44
 604 1516 604 1516 630.5 1516 c 128,-1,45
 657 1516 657 1516 674.5 1501 c 128,-1,46
 692 1486 692 1486 692 1473.5 c 128,-1,47
 692 1461 692 1461 688 1450 c 2,48,-1
 659 1372 l 1,49,50
 702 1354 702 1354 702 1331 c 0,51,52
 702 1318 702 1318 696 1298 c 2,53,-1
 639 1124 l 1,54,-1
 934 954 l 1,55,56
 1090 857 1090 857 1090 662 c 2,57,-1
 1090 39 l 2,0,1
831.5 204.5 m 128,-1,59
 852 184 852 184 882 184 c 128,-1,60
 912 184 912 184 933 204.5 c 128,-1,61
 954 225 954 225 954 255 c 128,-1,62
 954 285 954 285 933 306.5 c 128,-1,63
 912 328 912 328 882 328 c 128,-1,64
 852 328 852 328 831.5 306.5 c 128,-1,65
 811 285 811 285 811 255 c 128,-1,58
 811 225 811 225 831.5 204.5 c 128,-1,59
EndSplineSet
EndChar

StartChar: G.ss04
Encoding: 65583 -1 109
GlifName: G_.ss04
Width: 1165
Flags: MW
HStem: 0 1071<520 672 476 713>
VStem: 49 1096<429 588 471 588>
LayerCount: 2
Back
Fore
SplineSet
420 356 m 1,0,-1
 420 59 l 2,1,2
 420 27 420 27 440.5 13.5 c 128,-1,3
 461 0 461 0 520 0 c 2,4,-1
 672 0 l 2,5,6
 731 0 731 0 750.5 13 c 128,-1,7
 770 26 770 26 770 59 c 2,8,-1
 770 356 l 1,9,-1
 1083 356 l 2,10,11
 1145 356 1145 356 1145 471 c 2,12,-1
 1145 588 l 2,13,14
 1145 709 1145 709 1083 709 c 2,15,-1
 770 709 l 1,16,-1
 770 1012 l 2,17,18
 770 1043 770 1043 749.5 1057 c 128,-1,19
 729 1071 729 1071 672 1071 c 2,20,-1
 520 1071 l 2,21,22
 458 1071 458 1071 439 1057.5 c 128,-1,23
 420 1044 420 1044 420 1012 c 2,24,-1
 420 709 l 1,25,-1
 106 709 l 2,26,27
 75 709 75 709 62 680 c 128,-1,28
 49 651 49 651 49 588 c 2,29,-1
 49 471 l 2,30,31
 49 409 49 409 62.5 382.5 c 128,-1,32
 76 356 76 356 106 356 c 2,33,-1
 420 356 l 1,0,-1
EndSplineSet
EndChar

StartChar: H.ss04
Encoding: 65584 -1 110
GlifName: H_.ss04
Width: 720
Flags: MW
HStem: 0 456 1455 456
VStem: 102 303<877 1036 1036 1146>
LayerCount: 2
Back
Fore
SplineSet
559 1911 m 2,0,1
 618 1911 618 1911 618 1874 c 0,2,3
 618 1749 618 1749 588 1505 c 0,4,5
 585 1479 585 1479 572 1468 c 128,-1,6
 559 1457 559 1457 528 1456 c 2,7,-1
 469 1454 l 2,8,9
 439 1453 439 1453 422.5 1432.5 c 128,-1,10
 406 1412 406 1412 406 1393 c 2,11,-1
 406 518 l 2,12,13
 406 499 406 499 422.5 478.5 c 128,-1,14
 439 458 439 458 469 457 c 2,15,-1
 528 455 l 2,16,17
 559 454 559 454 572 442.5 c 128,-1,18
 585 431 585 431 588 405 c 0,19,20
 618 161 618 161 618 37 c 0,21,22
 618 0 618 0 559 0 c 2,23,-1
 481 -0 l 2,24,25
 406 0 406 0 343.5 25 c 128,-1,26
 281 50 281 50 248 96 c 0,27,28
 191 177 191 177 146.5 435.5 c 128,-1,29
 102 694 102 694 102 877 c 2,30,-1
 102 1036 l 2,31,32
 102 1220 102 1220 145.5 1476.5 c 128,-1,33
 189 1733 189 1733 248 1815 c 0,34,35
 281 1861 281 1861 343.5 1886 c 128,-1,36
 406 1911 406 1911 481 1911 c 2,37,-1
 559 1911 l 2,0,1
EndSplineSet
EndChar

StartChar: I.ss04
Encoding: 65585 -1 111
GlifName: I_.ss04
Width: 1185
Flags: MW
HStem: 145 80<285 406 297 406 545 653 793 901> 303 80<285 406 297 406 545 653 793 901> 461 80<285 406 297 406 545 653 793 901>
VStem: 262 178<166 205 158 213 324 362 481 520> 510 178<166 205 158 213 324 362 481 520> 758 178<166 205 158 213 324 362 481 520 1554 1595>
LayerCount: 2
Back
Fore
SplineSet
936 1595 m 2,0,1
 936 1609 936 1609 927 1620.5 c 128,-1,2
 918 1632 918 1632 901 1632 c 2,3,-1
 793 1632 l 2,4,5
 776 1632 776 1632 767 1620.5 c 128,-1,6
 758 1609 758 1609 758 1595 c 2,7,-1
 758 1554 l 1,8,-1
 180 1554 l 2,9,10
 102 1554 102 1554 102 1505 c 2,11,-1
 102 68 l 2,12,13
 102 36 102 36 119.5 22 c 128,-1,14
 137 8 137 8 180 8 c 2,15,-1
 1034 8 l 2,16,17
 1094 8 1094 8 1094 68 c 2,18,-1
 1094 1505 l 2,19,20
 1094 1554 1094 1554 1014 1554 c 2,21,-1
 936 1554 l 1,22,-1
 936 1595 l 2,0,1
262 662 m 1,23,-1
 262 1395 l 1,24,-1
 936 1395 l 1,25,-1
 936 662 l 1,26,-1
 262 662 l 1,23,-1
297 461 m 2,27,28
 262 461 262 461 262 481 c 2,29,-1
 262 520 l 2,30,31
 262 541 262 541 297 541 c 2,32,-1
 406 541 l 2,33,34
 440 541 440 541 440 520 c 2,35,-1
 440 481 l 2,36,37
 440 461 440 461 406 461 c 2,38,-1
 297 461 l 2,27,28
545 461 m 2,39,40
 510 461 510 461 510 481 c 2,41,-1
 510 520 l 2,42,43
 510 541 510 541 545 541 c 2,44,-1
 653 541 l 2,45,46
 688 541 688 541 688 520 c 2,47,-1
 688 481 l 2,48,49
 688 461 688 461 653 461 c 2,50,-1
 545 461 l 2,39,40
793 461 m 2,51,52
 758 461 758 461 758 481 c 2,53,-1
 758 520 l 2,54,55
 758 541 758 541 793 541 c 2,56,-1
 901 541 l 2,57,58
 936 541 936 541 936 520 c 2,59,-1
 936 481 l 2,60,61
 936 461 936 461 901 461 c 2,62,-1
 793 461 l 2,51,52
440 324 m 2,63,64
 440 303 440 303 406 303 c 2,65,-1
 297 303 l 2,66,67
 262 303 262 303 262 324 c 2,68,-1
 262 362 l 2,69,70
 262 383 262 383 297 383 c 2,71,-1
 406 383 l 2,72,73
 440 383 440 383 440 362 c 2,74,-1
 440 324 l 2,63,64
653 383 m 2,75,76
 688 383 688 383 688 362 c 2,77,-1
 688 324 l 2,78,79
 688 303 688 303 653 303 c 2,80,-1
 545 303 l 2,81,82
 510 303 510 303 510 324 c 2,83,-1
 510 362 l 2,84,85
 510 383 510 383 545 383 c 2,86,-1
 653 383 l 2,75,76
901 383 m 2,87,88
 936 383 936 383 936 362 c 2,89,-1
 936 324 l 2,90,91
 936 303 936 303 901 303 c 2,92,-1
 793 303 l 2,93,94
 758 303 758 303 758 324 c 2,95,-1
 758 362 l 2,96,97
 758 383 758 383 793 383 c 2,98,-1
 901 383 l 2,87,88
262 205 m 2,99,100
 262 225 262 225 297 225 c 2,101,-1
 406 225 l 2,102,103
 440 225 440 225 440 205 c 2,104,-1
 440 166 l 2,105,106
 440 145 440 145 406 145 c 2,107,-1
 297 145 l 2,108,109
 262 145 262 145 262 166 c 2,110,-1
 262 205 l 2,99,100
510 205 m 2,111,112
 510 225 510 225 545 225 c 2,113,-1
 653 225 l 2,114,115
 688 225 688 225 688 205 c 2,116,-1
 688 166 l 2,117,118
 688 145 688 145 653 145 c 2,119,-1
 545 145 l 2,120,121
 510 145 510 145 510 166 c 2,122,-1
 510 205 l 2,111,112
758 205 m 2,123,124
 758 225 758 225 793 225 c 2,125,-1
 901 225 l 2,126,127
 936 225 936 225 936 205 c 2,128,-1
 936 166 l 2,129,130
 936 145 936 145 901 145 c 2,131,-1
 793 145 l 2,132,133
 758 145 758 145 758 166 c 2,134,-1
 758 205 l 2,123,124
EndSplineSet
EndChar

StartChar: J.ss04
Encoding: 65586 -1 112
GlifName: J_.ss04
Width: 1196
Flags: MW
HStem: 127 119<580 612>
VStem: 262 674<383 1393 383 1393> 537 119<170 203>
LayerCount: 2
Back
Fore
SplineSet
180 1554 m 2,0,1
 102 1554 102 1554 102 1505 c 2,2,-1
 102 68 l 2,3,4
 102 36 102 36 119.5 22 c 128,-1,5
 137 8 137 8 180 8 c 2,6,-1
 1034 8 l 2,7,8
 1094 8 1094 8 1094 68 c 2,9,-1
 1094 1505 l 2,10,11
 1094 1554 1094 1554 1014 1554 c 2,12,-1
 180 1554 l 2,0,1
262 383 m 1,13,-1
 262 1393 l 1,14,-1
 936 1393 l 1,15,-1
 936 383 l 1,16,-1
 262 383 l 1,13,-1
596 127 m 128,-1,18
 571 127 571 127 554 144 c 128,-1,19
 537 161 537 161 537 186 c 128,-1,20
 537 211 537 211 554 228.5 c 128,-1,21
 571 246 571 246 596 246 c 128,-1,22
 621 246 621 246 638 228.5 c 128,-1,23
 655 211 655 211 655 186 c 128,-1,24
 655 161 655 161 638 144 c 128,-1,17
 621 127 621 127 596 127 c 128,-1,18
EndSplineSet
EndChar

StartChar: K.ss04
Encoding: 65587 -1 113
GlifName: K_.ss04
Width: 1507
Flags: MW
HStem: 0 135<65 1051 72 1051> 258 139<478 485 485 633 891 1038>
VStem: 199 434<258 1389> 891 418<258 1389 397 1389> 1155 311<27 66 15 94>
LayerCount: 2
Back
Fore
SplineSet
41 436 m 2,0,1
 41 397 41 397 98 397 c 2,2,-1
 633 397 l 1,3,-1
 633 258 l 1,4,-1
 485 258 l 2,5,6
 474 258 474 258 470.5 254 c 128,-1,7
 467 250 467 250 467 238 c 2,8,-1
 467 217 l 2,9,10
 467 205 467 205 470.5 201 c 128,-1,11
 474 197 474 197 485 197 c 2,12,-1
 1038 197 l 2,13,14
 1057 197 1057 197 1057 217 c 2,15,-1
 1057 238 l 2,16,17
 1057 258 1057 258 1038 258 c 2,18,-1
 891 258 l 1,19,-1
 891 397 l 1,20,-1
 1409 397 l 2,21,22
 1458 397 1458 397 1464 416.5 c 0,23,24
 1466 423 1466 423 1466 436 c 2,25,-1
 1466 1489 l 2,26,27
 1466 1548 1466 1548 1409 1548 c 2,28,-1
 98 1548 l 2,29,30
 41 1548 41 1548 41 1489 c 2,31,-1
 41 436 l 2,0,1
199 537 m 1,32,-1
 199 1389 l 1,33,-1
 1309 1389 l 1,34,-1
 1309 537 l 1,35,-1
 199 537 l 1,32,-1
1225 0 m 2,36,37
 1187 0 1187 0 1171 5.5 c 128,-1,38
 1155 11 1155 11 1155 27 c 2,39,-1
 1155 66 l 2,40,41
 1155 107 1155 107 1202.5 132.5 c 128,-1,42
 1250 158 1250 158 1312.5 158 c 128,-1,43
 1375 158 1375 158 1420.5 132 c 128,-1,44
 1466 106 1466 106 1466 66 c 2,45,-1
 1466 27 l 2,46,47
 1466 11 1466 11 1450.5 5.5 c 128,-1,48
 1435 0 1435 0 1397 0 c 2,49,-1
 1225 0 l 2,36,37
1051 135 m 2,50,51
 1063 135 1063 135 1072 122.5 c 128,-1,52
 1081 110 1081 110 1081 86 c 2,53,-1
 1081 51 l 2,54,55
 1081 27 1081 27 1072 13.5 c 128,-1,56
 1063 0 1063 0 1051 0 c 2,57,-1
 72 0 l 2,58,59
 60 0 60 0 50.5 12.5 c 128,-1,60
 41 25 41 25 41 49 c 2,61,-1
 41 86 l 2,62,63
 41 110 41 110 50.5 122.5 c 128,-1,64
 60 135 60 135 72 135 c 2,65,-1
 1051 135 l 2,50,51
EndSplineSet
EndChar

StartChar: L.ss04
Encoding: 65588 -1 114
GlifName: L_.ss04
Width: 937
Flags: MW
HStem: 0 1925
VStem: 94 43 203 47 317 45 444 119
LayerCount: 2
Back
Fore
SplineSet
435 1678 m 1,0,-1
 428 1905 l 2,1,2
 428 1925 428 1925 395 1925 c 128,-1,3
 362 1925 362 1925 362 1905 c 2,4,-1
 362 1430 l 1,5,-1
 317 1430 l 1,6,-1
 317 1905 l 2,7,8
 317 1925 317 1925 283.5 1925 c 128,-1,9
 250 1925 250 1925 250 1905 c 2,10,-1
 250 1430 l 1,11,-1
 203 1430 l 1,12,-1
 203 1905 l 2,13,14
 203 1925 203 1925 170 1925 c 128,-1,15
 137 1925 137 1925 137 1905 c 2,16,-1
 137 1430 l 1,17,-1
 94 1430 l 1,18,-1
 94 1905 l 2,19,20
 94 1925 94 1925 61.5 1925 c 128,-1,21
 29 1925 29 1925 29 1905 c 2,22,-1
 14 1341 l 1,23,24
 14 1257 14 1257 88 1183 c 128,-1,25
 162 1109 162 1109 162 1071 c 2,26,-1
 141 41 l 2,27,28
 141 0 141 0 211 0 c 2,29,-1
 246 0 l 2,30,31
 319 0 319 0 319 41 c 2,32,-1
 299 1071 l 2,33,34
 299 1116 299 1116 346 1160 c 0,35,36
 444 1251.74468085 444 1251.74468085 444 1341 c 0,37,38
 444 1352 444 1352 435 1678 c 1,0,-1
657 813 m 1,39,-1
 637 41 l 1,40,41
 637 0 637 0 707 0 c 2,42,-1
 741 0 l 2,43,44
 815 0 815 0 815 41 c 2,45,-1
 815 1866 l 2,46,47
 815 1901 815 1901 803.5 1913 c 128,-1,48
 792 1925 792 1925 758 1925 c 0,49,50
 684 1925 684 1925 623.5 1829.5 c 128,-1,51
 563 1734 563 1734 563 1589 c 2,52,-1
 563 879 l 2,53,54
 563 813 563 813 637 813 c 2,55,-1
 657 813 l 1,39,-1
EndSplineSet
EndChar

